%FSTAX23Y23*%
%MOIN*%
%SFA1B1*%

%IPPOS*%
%ADD12C,0.010000*%
%ADD13C,0.020000*%
%ADD17O,0.040000X0.020000*%
%ADD32R,0.015750X0.053150*%
%ADD33R,0.086610X0.062990*%
%ADD34R,0.070870X0.074800*%
%ADD35R,0.074800X0.074800*%
%ADD36R,0.021650X0.021650*%
%ADD37R,0.060000X0.040000*%
%ADD38R,0.094490X0.029920*%
%ADD39R,0.025590X0.049210*%
%ADD40C,0.016000*%
%ADD41C,0.040000*%
%ADD42C,0.014000*%
%ADD43C,0.079530*%
%ADD44R,0.059060X0.059060*%
%ADD45C,0.059060*%
%ADD46R,0.047240X0.047240*%
%ADD47R,0.059060X0.059060*%
%ADD48C,0.078740*%
%ADD49C,0.050000*%
%LNlayout-1*%
%LPD*%
G36*
X0321Y0302D02*
X0318Y0299D01*
X0315Y0302*
Y03045*
X0321*
Y0302*
G37*
G36*
X0309D02*
X0306Y0299D01*
X0303Y0302*
Y03045*
X0309*
Y0302*
G37*
G36*
X0385Y02987D02*
X0382Y03017D01*
X0379Y02987*
Y03042*
X0385*
Y02987*
G37*
G36*
X0373D02*
X037Y03017D01*
X0367Y02987*
Y03042*
X0373*
Y02987*
G37*
G36*
X0361D02*
X0358Y03017D01*
X0355Y02987*
Y03042*
X0361*
Y02987*
G37*
G36*
X0349D02*
X0346Y03017D01*
X0343Y02987*
Y03042*
X0349*
Y02987*
G37*
G36*
X0321Y02955D02*
X0315D01*
Y0301*
X0318Y0298*
X0321Y0301*
Y02955*
G37*
G36*
X0309D02*
X0303D01*
Y0301*
X0306Y0298*
X0309Y0301*
Y02955*
G37*
G36*
X0385Y02977D02*
Y02952D01*
X0379*
Y02977*
X0382Y03007*
X0385Y02977*
G37*
G36*
X0373D02*
Y02952D01*
X0367*
Y02977*
X037Y03007*
X0373Y02977*
G37*
G36*
X0361D02*
Y02952D01*
X0355*
Y02977*
X0358Y03007*
X0361Y02977*
G37*
G36*
X0349D02*
Y02952D01*
X0343*
Y02977*
X0346Y03007*
X0349Y02977*
G37*
G36*
X036Y02205D02*
X0357Y02235D01*
X0354Y02205*
Y0226*
X036*
Y02205*
G37*
G36*
Y02195D02*
Y0217D01*
X0354*
Y02195*
X0357Y02225*
X036Y02195*
G37*
G36*
X03735Y0167D02*
X03705Y017D01*
X03675Y0167*
Y01725*
X03735*
Y0167*
G37*
G36*
X03645D02*
X03615Y017D01*
X03585Y0167*
Y01725*
X03645*
Y0167*
G37*
G36*
X02665D02*
X02635Y017D01*
X02605Y0167*
Y01725*
X02665*
Y0167*
G37*
G36*
X02575D02*
X02545Y017D01*
X02515Y0167*
Y01725*
X02575*
Y0167*
G37*
G36*
X03735Y0166D02*
Y01635D01*
X03675*
Y0166*
X03705Y0169*
X03735Y0166*
G37*
G36*
X03645D02*
Y01635D01*
X03585*
Y0166*
X03615Y0169*
X03645Y0166*
G37*
G36*
X02665D02*
Y01635D01*
X02605*
Y0166*
X02635Y0169*
X02665Y0166*
G37*
G36*
X02575D02*
Y01635D01*
X02515*
Y0166*
X02545Y0169*
X02575Y0166*
G37*
G36*
X04615Y01535D02*
X04585Y01565D01*
X04555Y01535*
Y0159*
X04615*
Y01535*
G37*
G36*
X0453D02*
X045Y01565D01*
X0447Y01535*
Y0159*
X0453*
Y01535*
G37*
G36*
X04615Y01525D02*
Y015D01*
X04555*
Y01525*
X04585Y01555*
X04615Y01525*
G37*
G36*
X0453D02*
Y015D01*
X0447*
Y01525*
X045Y01555*
X0453Y01525*
G37*
G54D12*
X03615Y01647D02*
X03705D01*
X02899Y01275D02*
X02902Y01272D01*
X02815Y01275D02*
X02899D01*
X02822Y01354D02*
X02829D01*
X02141Y01348D02*
X02569D01*
X03117Y01308D02*
X0379D01*
X02809Y01368D02*
X02822Y01354D01*
X03094Y0133D02*
X03117Y01308D01*
X02798Y01368D02*
X02809D01*
X03087Y01312D02*
X0313Y0127D01*
X02114Y0133D02*
X03094D01*
X02087Y01312D02*
X03087D01*
X02569Y01348D02*
X0259Y0137D01*
X01595Y01805D02*
X02087Y01312D01*
X01802Y01687D02*
X02141Y01348D01*
X01694Y0175D02*
X02114Y0133D01*
X0259Y0137D02*
X0271D01*
X02832Y01351D02*
X02834D01*
X02829Y01354D02*
X02832Y01351D01*
X0293Y0138D02*
Y01605D01*
X02758Y01218D02*
X02815Y01275D01*
X02758Y01138D02*
Y01218D01*
X0284Y01357D02*
Y01645D01*
X02834Y01351D02*
X0284Y01357D01*
X02092Y0124D02*
X0272D01*
X02007Y01155D02*
X02092Y0124D01*
X0313Y0127D02*
X0413D01*
X0271Y0109D02*
X02758Y01138D01*
X01935Y0109D02*
X0271D01*
X03295Y01605D02*
X03556Y01344D01*
X04249Y01346D02*
X04289Y01305D01*
X03285Y01645D02*
X03568Y01362D01*
X03764D02*
X03766Y01364D01*
X04301*
X03556Y01344D02*
X03772D01*
X0413Y0127D02*
X04196Y01203D01*
X03568Y01362D02*
X03764D01*
X03774Y01346D02*
X04249D01*
X03772Y01344D02*
X03774Y01346D01*
X04301Y01364D02*
X04305Y0136D01*
X01313Y01178D02*
X01316Y01175D01*
X01313Y01178D02*
Y0118D01*
X01316Y01175D02*
X01386D01*
X04289Y01305D02*
X04374D01*
X04645Y015D02*
X04665Y01479D01*
X04674*
X04676Y01481*
X04645Y015D02*
Y0163D01*
X04545Y0173D02*
X04645Y0163D01*
X04343Y01551D02*
X04445Y01652D01*
Y0173*
X0293Y01605D02*
X03295D01*
X03632Y02012D02*
X0392Y023D01*
X03788Y01938D02*
X03851D01*
X0387Y0192*
X03762Y01965D02*
X03788Y01938D01*
X03675Y01965D02*
X03762D01*
X04496Y01265D02*
X0489D01*
X04045Y0169D02*
X0451Y01225D01*
X04095Y01666D02*
X04496Y01265D01*
X0451Y01225D02*
X05238D01*
X04095Y01666D02*
Y01935D01*
X04045Y0169D02*
Y0232D01*
X03632Y01992D02*
Y02012D01*
X0284Y01645D02*
X03285D01*
X03632Y01992*
X0266Y0187D02*
X0285Y0168D01*
X0195Y0187D02*
X0266D01*
X01985Y01805D02*
X0268D01*
X0284Y01645*
X0285Y0168D02*
X0293D01*
X0395Y0169D02*
X0395Y0169D01*
X0396Y01689D02*
X0398Y0171D01*
X04014Y01715D02*
Y01721D01*
X04009Y0171D02*
X04014Y01715D01*
X0398Y0171D02*
X04009D01*
X04014Y01721D02*
X0402Y01727D01*
X0395Y01689D02*
X0396D01*
X0397Y02395D02*
X04045Y0232D01*
X03Y02063D02*
X03055D01*
X02933D02*
X03D01*
X03475Y0197D02*
X0397Y02465D01*
X0326Y0197D02*
X03475D01*
X03055Y02063D02*
X0311D01*
X03095Y02299D02*
Y02665D01*
Y02299D02*
X03168Y02226D01*
X03218*
X03225Y0222*
X05115Y0272D02*
Y02964D01*
X0414Y0267D02*
X05065D01*
X05115Y0272*
X04058Y02699D02*
X04122Y02635D01*
X04043Y02767D02*
X0414Y0267D01*
X04122Y02635D02*
X0516D01*
X0516Y02635D02*
Y02849D01*
X0516Y02635D02*
X05625D01*
X0516Y0285D02*
Y02935D01*
Y02635D02*
X0516Y02635D01*
X0402Y02775D02*
X04027Y02767D01*
X04043*
X03166Y0282D02*
X03822D01*
X03936Y02934*
X02773Y01972D02*
X02775Y01975D01*
X03055Y02017D02*
X0311D01*
X03D02*
X03055D01*
X02931Y01981D02*
X02964D01*
X03Y02017*
X02925Y01975D02*
X02931Y01981D01*
X0489Y01265D02*
X04896D01*
X049*
X01731Y0132D02*
X01732Y0132D01*
Y01155D02*
Y0132D01*
X01109Y0178D02*
X01447Y01442D01*
Y01277D02*
Y01442D01*
Y01277D02*
X01675Y0105D01*
X01985Y0158D02*
X021Y01465D01*
X01908Y01657D02*
X01985Y0158D01*
Y01657*
X021Y01465D02*
X02103D01*
X021Y01465D02*
X021Y01465D01*
X0188Y01657D02*
X01908D01*
X05457Y02738D02*
X05622D01*
X0536Y02835D02*
X05457Y02738D01*
X05622D02*
X05625Y02735D01*
X03274Y0168D02*
X0356Y01966D01*
Y01995D02*
X03855Y0229D01*
X0293Y0168D02*
X03274D01*
X0356Y01966D02*
Y01995D01*
X01099Y0145D02*
D01*
X01067Y01482D02*
Y015D01*
Y01482D02*
X01099Y0145D01*
X01262Y01287D01*
X0106Y014D02*
X01145Y01315D01*
X012*
X0382Y02965D02*
X0386D01*
X01085Y01537D02*
X01288Y01333D01*
X01085Y01537D02*
Y0163D01*
X0106Y01508D02*
X01067Y015D01*
X01288Y0118D02*
Y01333D01*
X01085Y01805D02*
X01109Y0178D01*
X01675Y0105D02*
X02998D01*
X01855Y0217D02*
X0306D01*
X0326Y0197*
X0397Y02395D02*
Y02465D01*
X012Y01315D02*
X01235Y0128D01*
Y01182D02*
Y0128D01*
X01262Y0118D02*
Y01287D01*
X0293Y0168D02*
Y0172D01*
X0187Y01155D02*
X01935Y0109D01*
X02998Y0105D02*
X03103Y01155D01*
X03196Y02498D02*
Y02782D01*
X0331Y0215D02*
Y02385D01*
X03196Y02498D02*
X0331Y02385D01*
X02215Y0278D02*
X0302D01*
X0314Y02405D02*
Y0273D01*
X03255Y0261D02*
X03265D01*
X03278Y02623D02*
X03952D01*
X03265Y0261D02*
X03278Y02623D01*
X03285Y0217D02*
X03292Y02177D01*
X03286Y0232D02*
X03292Y02314D01*
Y02177D02*
Y02314D01*
X0321Y0232D02*
X03286D01*
X03226Y02121D02*
X03281D01*
X0331Y0215*
X03225Y0212D02*
X03226Y02121D01*
X03225Y0217D02*
X03285D01*
X04196Y01163D02*
Y01203D01*
Y01163D02*
X04205Y01155D01*
X0489Y01268D02*
X04896D01*
X049Y01265*
X05238Y01225D02*
X05308Y01155D01*
X0379Y01157D02*
X03792Y01155D01*
X0269D02*
X02693Y01158D01*
X01802Y01687D02*
Y01774D01*
X01785Y01792D02*
Y01805D01*
Y01792D02*
X01802Y01774D01*
X01694Y0175D02*
Y01795D01*
X01685Y01805D02*
X01694Y01795D01*
X03875Y0298D02*
X04132D01*
X037Y02965D02*
X0382D01*
X0386D02*
X03875Y0298D01*
X04132D02*
X04522Y0337D01*
X03917Y03032D02*
X03925Y03024D01*
X03899Y03035D02*
X03901Y03032D01*
X03917*
X0385Y03035D02*
X03899D01*
X03845Y0303D02*
X0385Y03035D01*
X01592Y02D02*
X01794Y02202D01*
X02548*
X03166Y0282*
X03019Y0278D02*
X0302Y0278D01*
X03018Y0278D02*
X03019D01*
X0221Y02725D02*
X0296D01*
X032Y02329D02*
Y02344D01*
Y02329D02*
X0321Y0232D01*
X0314Y02405D02*
X032Y02344D01*
X03952Y02623D02*
X04085Y0249D01*
X02276Y02663D02*
X02884D01*
X01663Y02626D02*
X02239D01*
X02276Y02663*
X03166Y02845D02*
X03449D01*
X03001Y0268D02*
X03166Y02845D01*
X03001Y0268D02*
D01*
X02097Y02662D02*
X02215Y0278D01*
X02541Y0222D02*
X03001Y0268D01*
X02129Y02644D02*
X0221Y02725D01*
X017Y0222D02*
X02541D01*
X01285Y01805D02*
X017Y0222D01*
X01563Y01883D02*
Y01909D01*
X01485Y01805D02*
X01563Y01883D01*
X0516Y0285D02*
X0516Y02849D01*
X0532Y0297D02*
X05355Y02935D01*
X0512Y0297D02*
X0532D01*
X05355Y02935D02*
X0536D01*
X05115Y02964D02*
X0512Y0297D01*
X0409Y01935D02*
X04095D01*
X04085Y0194D02*
X0409Y01935D01*
X04085Y0194D02*
Y0249D01*
X01885Y01805D02*
X0195Y0187D01*
X0536Y02835D02*
Y02935D01*
X03455Y0285D02*
Y02965D01*
X03449Y02845D02*
X03455Y0285D01*
X01785Y02705D02*
X01827Y02662D01*
X02097*
X01745Y02644D02*
X02129D01*
X01685Y02705D02*
X01745Y02644D01*
X01585Y02705D02*
X01663Y02626D01*
X0137Y026D02*
X0281D01*
X0282Y02605D02*
Y0261D01*
X01365Y02605D02*
D01*
X0281Y026D02*
X0282Y0261D01*
X01365Y02605D02*
X0137Y026D01*
X01294Y02676D02*
X01365Y02605D01*
X03455Y02965D02*
Y02974D01*
X01285Y02705D02*
X01294Y02695D01*
Y02676D02*
Y02695D01*
X03288Y03321D02*
X03568Y03041D01*
Y03034D02*
Y03041D01*
X03572Y0303D02*
X0358D01*
X03282Y0337D02*
X03288Y03363D01*
Y03321D02*
Y03363D01*
X03568Y03034D02*
X03572Y0303D01*
X03172Y0326D02*
X03282Y0337D01*
X0286Y0326D02*
X03172D01*
X02775Y03175D02*
X0286Y0326D01*
X02925Y03135D02*
Y03163D01*
X02903Y03185D02*
X02925Y03163D01*
X01815Y03135D02*
X02925D01*
X01746Y03175D02*
X02775D01*
X02283Y03193D02*
X0253Y0344D01*
X01185Y02705D02*
X01673Y03193D01*
X02283*
X01384Y02813D02*
X01746Y03175D01*
X01385Y02705D02*
X01815Y03135D01*
X03695Y0337D02*
X037Y03365D01*
X03625Y0344D02*
X03695Y0337D01*
X0253Y0344D02*
X03625D01*
X03448Y03034D02*
Y03041D01*
X02925Y03135D02*
X03355D01*
X03452Y0303D02*
X0346D01*
X03448Y03034D02*
X03452Y0303D01*
X03355Y03135D02*
X03448Y03041D01*
X0382Y0303D02*
Y03081D01*
X04108Y0337*
X037Y0303D02*
Y03365D01*
X01235Y01182D02*
X01236Y0118D01*
X01585Y01805D02*
X01595D01*
X03845Y02485D02*
X03846Y02483D01*
X0368Y0249D02*
X03685Y02485D01*
X03851Y02483D02*
X0387Y02465D01*
X03846Y02483D02*
X03851D01*
X03685Y02485D02*
X03845D01*
X0164Y01955D02*
X01855Y0217D01*
X01535Y01955D02*
X0164D01*
X01385Y01805D02*
X01535Y01955D01*
X03594Y02985D02*
X03604Y02974D01*
X03585Y02985D02*
X03594D01*
X03604Y02974D02*
X03679D01*
X03688Y02965*
X037*
X03574Y02974D02*
X03585Y02985D01*
X03484Y02974D02*
X03574D01*
X03479Y0298D02*
X03484Y02974D01*
X03455Y02974D02*
X0346Y0298D01*
X03479*
X01985Y01703D02*
Y01805D01*
X0188Y01703D02*
X01885Y01708D01*
Y01805*
G54D13*
X03611Y01647D02*
Y01659D01*
X02549Y0139D02*
Y01647D01*
Y0139D02*
X02553Y01386D01*
X02549Y01647D02*
X02553D01*
X04595Y01502D02*
X04755Y01342D01*
X03615Y014D02*
Y01647D01*
X03611D02*
X03615D01*
X0398Y01544D02*
Y01579D01*
Y01544D02*
X03981Y01543D01*
X03895Y01665D02*
X0398Y01579D01*
X03755Y01665D02*
X03895D01*
X03934Y01674D02*
X0395Y0169D01*
X0391Y01664D02*
X0392Y01674D01*
X03934*
X03712Y01708D02*
X03755Y01665D01*
X0339Y02015D02*
X0347D01*
X03626Y02171D02*
Y02218D01*
X0347Y02015D02*
X03626Y02171D01*
X03497Y0212D02*
X0356Y02182D01*
X03615Y0223D02*
X03626Y02218D01*
X03378Y0212D02*
X03497D01*
X0356Y02182D02*
X0357D01*
X03585Y0223D02*
X03615D01*
X02835Y01975D02*
X02925D01*
X03506Y01606D02*
Y01641D01*
X03505Y01605D02*
X03506Y01606D01*
Y01641D02*
X03577Y01712D01*
X03615*
X02645Y02023D02*
X02715D01*
X02533D02*
X02645D01*
X03695Y01712D02*
Y01722D01*
X02645Y02023D02*
X02758Y0191D01*
X031*
X03245Y01765*
X03657Y0176D02*
X03695Y01722D01*
X03475Y0176D02*
X03657D01*
X03695Y01712D02*
X03705D01*
X02635Y02105D02*
X02635Y02105D01*
X02676*
X02677Y02106*
X02531Y02021D02*
X02533Y02023D01*
X0224Y02895D02*
X02312Y02967D01*
X02239Y02895D02*
Y02895D01*
Y02895D02*
X0224Y02895D01*
X02312Y02967D02*
X0306D01*
X0317Y02957D02*
Y02967D01*
X02575Y02835D02*
X03047D01*
X0317Y02967D02*
X0318D01*
X03047Y02835D02*
X0317Y02957D01*
X01485Y02705D02*
X01865Y03085D01*
Y0308D02*
Y03085D01*
Y0308D02*
X01867Y03077D01*
X01211Y0118D02*
Y01228D01*
X0119Y0125D02*
X01211Y01228D01*
X03065Y0302D02*
Y03032D01*
X0318*
X0306D02*
X03065D01*
X03055Y03091D02*
X03065Y03082D01*
X02553Y01647D02*
X02622D01*
X02545D02*
X02553D01*
X04575Y01512D02*
X04595D01*
X0451D02*
X04517Y01505D01*
X04567D02*
X04575Y01512D01*
X04517Y01505D02*
X04567D01*
X04595Y01502D02*
Y01512D01*
X045D02*
X0451D01*
X04755Y01304D02*
Y01342D01*
X0366Y0239D02*
Y024D01*
X0367Y0241*
X0368*
X0357Y02247D02*
Y023D01*
X0366Y0239*
G54D17*
X04585Y01577D03*
Y01512D03*
X045Y01577D03*
Y01512D03*
X02545Y01712D03*
Y01647D03*
X02635Y01712D03*
Y01647D03*
X03615D03*
Y01712D03*
X03705Y01647D03*
Y01712D03*
X0357Y02182D03*
Y02247D03*
X0318Y03032D03*
Y02967D03*
X0306Y03032D03*
Y02967D03*
X0346Y02965D03*
Y0303D03*
X0358Y02965D03*
Y0303D03*
X0382Y02965D03*
Y0303D03*
X037Y02965D03*
Y0303D03*
G54D32*
X01211Y0118D03*
X01236D03*
X01262D03*
X01288D03*
X01313D03*
G54D33*
X01138Y01175D03*
X01386D03*
G54D34*
X01105Y01075D03*
X01419D03*
G54D35*
X01215Y01075D03*
X01309D03*
G54D36*
X0402Y01773D03*
Y01727D03*
X0311Y02063D03*
Y02017D03*
X03055Y02063D03*
Y02017D03*
X03Y02063D03*
Y02017D03*
X0188Y01657D03*
Y01703D03*
X01985Y01657D03*
Y01703D03*
G54D37*
X0395Y01689D03*
Y01769D03*
X03865Y01689D03*
Y01769D03*
X02835Y01975D03*
Y02055D03*
X02925Y01975D03*
Y02055D03*
X03675Y01885D03*
Y01965D03*
X0368Y0241D03*
Y0249D03*
G54D38*
X03378Y0212D03*
X03225D03*
X03378Y0217D03*
X03225D03*
X03378Y0222D03*
X03225D03*
X03378Y0227D03*
X03225D03*
X03378Y0232D03*
X03225D03*
G54D39*
X02752Y02106D03*
X02677D03*
X02715Y02023D03*
G54D40*
X04546Y01586D02*
X04555Y01577D01*
X04546Y01586D02*
Y01596D01*
X04437Y01606D02*
X04536D01*
X04555Y01577D02*
X04585D01*
X04536Y01606D02*
X04546Y01596D01*
X044Y01568D02*
X04437Y01606D01*
X044Y01535D02*
Y01568D01*
X04355Y01465D02*
X04361Y01471D01*
Y01496*
X044Y01535*
X0395Y01769D02*
X04016D01*
X03835Y01789D02*
Y01802D01*
X03829Y01809D02*
X03835Y01802D01*
Y01789D02*
X03848Y01776D01*
X03968*
X04245Y01575D02*
X04254Y01566D01*
X04281Y01539D02*
X04355Y01465D01*
X04254Y01563D02*
X04278Y01539D01*
X04254Y01563D02*
Y01566D01*
X04278Y01539D02*
X04281D01*
X04245Y01575D02*
Y0173D01*
X04405Y01485D02*
X04489Y01569D01*
X04405Y0141D02*
Y01485D01*
X04016Y01769D02*
X0402Y01773D01*
X03657Y0176D02*
X03675Y01777D01*
Y01885*
X03452Y0222D02*
X03453Y02221D01*
X03378Y0222D02*
X03452D01*
X03378Y0217D02*
Y0222D01*
Y0227*
Y0232*
X02925Y02055D02*
X02933Y02063D01*
X02903Y02067D02*
Y02077D01*
X02872Y02107D02*
X02903Y02077D01*
X02915Y02055D02*
X02925D01*
X02903Y02067D02*
X02915Y02055D01*
X02872Y02107D02*
Y02112D01*
X02867Y02106D02*
X02872Y02112D01*
X02866Y02105D02*
X02867Y02106D01*
X02857Y02067D02*
Y02077D01*
X02866Y02086*
Y02105*
X02835Y02055D02*
X02845D01*
X02857Y02067*
X02752Y02106D02*
X02867D01*
X0147Y01062D02*
X01478Y01054D01*
X01419Y01075D02*
X01432Y01062D01*
X0147*
X01054Y01067D02*
X01061Y01075D01*
X01105*
Y01076*
X01138Y0111D02*
Y01175D01*
X01105Y01076D02*
X01138Y0111D01*
X01396Y01175D02*
X01419Y01151D01*
X01386Y01175D02*
X01396D01*
X01419Y01075D02*
Y01151D01*
X01309Y01075D02*
X01419D01*
X01105D02*
X01215D01*
X04865Y0292D02*
X04965D01*
X02587Y0176D02*
X02624Y01723D01*
X0247Y0176D02*
X02587D01*
X02626Y01712D02*
X02635D01*
X02624Y01714D02*
X02626Y01712D01*
X02624Y01714D02*
Y01723D01*
X02475Y0153D02*
Y01642D01*
X02534Y01701*
X02536Y01712D02*
X02545D01*
X02534Y0171D02*
X02536Y01712D01*
X02534Y01701D02*
Y0171D01*
X04491Y01577D02*
X045D01*
X04489Y01575D02*
X04491Y01577D01*
X04489Y01569D02*
Y01575D01*
G54D41*
X0481Y02715D02*
Y0276D01*
X04725Y02845D02*
X04755D01*
X03935D02*
X04725D01*
X04812Y02717D02*
Y02718D01*
X0481Y02715D02*
X04812Y02717D01*
X04725Y02845D02*
X0481Y0276D01*
X0482Y0291D02*
X04855D01*
X04755Y02845D02*
X0482Y0291D01*
X04855D02*
X04865Y0292D01*
X03818Y02728D02*
X03935Y02845D01*
X03065Y03032D02*
Y03082D01*
G54D42*
X02775Y01975D02*
X02835D01*
G54D43*
X05288Y02718D03*
X02598Y02463D03*
X05433Y01703D03*
X04493Y02978D03*
X02273Y01513D03*
X01088Y03038D03*
G54D44*
X01085Y02705D03*
X04865Y0292D03*
X04245Y0173D03*
X01085Y01805D03*
X0306Y01815D03*
G54D45*
X01185Y02705D03*
X01385D03*
X01485D03*
X01585D03*
X01685D03*
X01785D03*
X01885D03*
X01985D03*
X01285D03*
X0397Y02465D03*
Y0192D03*
X05065Y0292D03*
X04965D03*
X05165D03*
X05265D03*
X05365D03*
X05465D03*
X05625Y02835D03*
Y02735D03*
Y02635D03*
X04845Y0173D03*
X04745D03*
X04645D03*
X04545D03*
X04345D03*
X04445D03*
X01285Y01805D03*
X01985D03*
X01885D03*
X01785D03*
X01685D03*
X01585D03*
X01485D03*
X01385D03*
X01185D03*
X0296Y01815D03*
G54D46*
X0387Y02465D03*
Y0192D03*
G54D47*
X05625Y02935D03*
G54D48*
X04522Y0337D03*
X0466D03*
X04246D03*
X04384D03*
X03971D03*
X04108D03*
X03695D03*
X03833D03*
X03419D03*
X03557D03*
X03144D03*
X03282D03*
X02868D03*
X03006D03*
X02593D03*
X0273D03*
X02032D03*
X0217D03*
X01577D03*
X01715D03*
X01142D03*
X0128D03*
X04894Y01155D03*
X04756D03*
X05445D03*
X05308D03*
X0517D03*
X05032D03*
X04343D03*
X04205D03*
X04067D03*
X0393D03*
X03792D03*
X03654D03*
X03241D03*
X03103D03*
X02965D03*
X02827D03*
X0269D03*
X02552D03*
X02145D03*
X02007D03*
X0187D03*
X01732D03*
G54D49*
X02902Y01272D03*
X02798Y01368D03*
X02553Y01386D03*
X0293Y0138D03*
X0272Y0124D03*
X0379Y01308D03*
X04374Y01305D03*
X04305Y0136D03*
X04676Y01481D03*
X04343Y01551D03*
X03615Y014D03*
X04355Y01465D03*
X04405Y0141D03*
X03981Y01543D03*
X03829Y01809D03*
X0339Y02015D03*
X03453Y02221D03*
X02872Y02112D03*
X01478Y01054D03*
X01054Y01067D03*
X04812Y02718D03*
X04058Y02699D03*
X03818Y02728D03*
X0247Y0176D03*
X02475Y0153D03*
X02773Y01972D03*
X03505Y01605D03*
X03245Y01765D03*
X03475Y0176D03*
X01731Y0132D03*
X02103Y01465D03*
X0402Y02775D03*
X0392Y023D03*
X03855Y0229D03*
X0106Y014D03*
X01085Y0163D03*
X0106Y01508D03*
X02635Y02105D03*
X02531Y02021D03*
X02239Y02895D03*
X02575Y02835D03*
X01867Y03077D03*
X0119Y0125D03*
X0293Y0172D03*
Y01605D03*
X03055Y03091D03*
X04755Y01304D03*
X0314Y0273D03*
X03196Y02782D03*
X03255Y0261D03*
X0271Y0137D03*
X0489Y01268D03*
X03925Y03024D03*
X03936Y02934D03*
X03018Y0278D03*
X0296Y02725D03*
X03095Y02665D03*
X01592Y02D03*
X01563Y01909D03*
X0282Y02605D03*
X02884Y02663D03*
X04095Y01935D03*
X02903Y03185D03*
X01384Y02813D03*
M02*