%FSTAX23Y23*%
%MOIN*%
%SFA1B1*%

%IPPOS*%
%ADD26C,0.099530*%
%ADD27R,0.067060X0.067060*%
%ADD28C,0.067060*%
%ADD29R,0.055240X0.055240*%
%ADD30R,0.067060X0.067060*%
%ADD31C,0.086740*%
%LNlayout-1*%
%LPD*%
G54D26*
X05288Y02718D03*
X02598Y02463D03*
X05433Y01703D03*
X04493Y02978D03*
X02273Y01513D03*
X01088Y03038D03*
G54D27*
X01085Y02705D03*
X04865Y0292D03*
X04245Y0173D03*
X01085Y01805D03*
X0306Y01815D03*
G54D28*
X01185Y02705D03*
X01385D03*
X01485D03*
X01585D03*
X01685D03*
X01785D03*
X01885D03*
X01985D03*
X01285D03*
X0397Y02465D03*
Y0192D03*
X05065Y0292D03*
X04965D03*
X05165D03*
X05265D03*
X05365D03*
X05465D03*
X05625Y02835D03*
Y02735D03*
Y02635D03*
X04845Y0173D03*
X04745D03*
X04645D03*
X04545D03*
X04345D03*
X04445D03*
X01285Y01805D03*
X01985D03*
X01885D03*
X01785D03*
X01685D03*
X01585D03*
X01485D03*
X01385D03*
X01185D03*
X0296Y01815D03*
G54D29*
X0387Y02465D03*
Y0192D03*
G54D30*
X05625Y02935D03*
G54D31*
X04522Y0337D03*
X0466D03*
X04246D03*
X04384D03*
X03971D03*
X04108D03*
X03695D03*
X03833D03*
X03419D03*
X03557D03*
X03144D03*
X03282D03*
X02868D03*
X03006D03*
X02593D03*
X0273D03*
X02032D03*
X0217D03*
X01577D03*
X01715D03*
X01142D03*
X0128D03*
X04894Y01155D03*
X04756D03*
X05445D03*
X05308D03*
X0517D03*
X05032D03*
X04343D03*
X04205D03*
X04067D03*
X0393D03*
X03792D03*
X03654D03*
X03241D03*
X03103D03*
X02965D03*
X02827D03*
X0269D03*
X02552D03*
X02145D03*
X02007D03*
X0187D03*
X01732D03*
M02*