%FSTAX23Y23*%
%MOIN*%
%SFA1B1*%

%IPPOS*%
%ADD9500C,0.025000*%
%ADD9501C,0.029530*%
%ADD9502C,0.035430*%
%ADD9503C,0.039370*%
%ADD9504C,0.051180*%
%ADD9505C,0.079530*%
%LNlayout-1*%
%LPD*%
G54D9500*
X01054Y01067D03*
X0119Y0125D03*
X0106Y014D03*
Y01508D03*
X01478Y01054D03*
X01731Y0132D03*
X02103Y01465D03*
X02475Y0153D03*
X02553Y01386D03*
X0271Y0137D03*
X02798Y01368D03*
X0293Y0138D03*
X02902Y01272D03*
X0272Y0124D03*
X03615Y014D03*
X0379Y01308D03*
X03981Y01543D03*
X04343Y01551D03*
X04355Y01465D03*
X04405Y0141D03*
X04374Y01305D03*
X04305Y0136D03*
X04676Y01481D03*
X04755Y01304D03*
X0489Y01268D03*
X04812Y02718D03*
X04058Y02699D03*
X0402Y02775D03*
X03936Y02934D03*
X03925Y03024D03*
X03818Y02728D03*
X03855Y0229D03*
X0392Y023D03*
X04095Y01935D03*
X03829Y01809D03*
X03475Y0176D03*
X03505Y01605D03*
X03245Y01765D03*
X0339Y02015D03*
X03453Y02221D03*
X03255Y0261D03*
X03196Y02782D03*
X0314Y0273D03*
X03095Y02665D03*
X03018Y0278D03*
X0296Y02725D03*
X02884Y02663D03*
X0282Y02605D03*
X02575Y02835D03*
X02239Y02895D03*
X01867Y03077D03*
X03055Y03091D03*
X02872Y02112D03*
X02773Y01972D03*
X02635Y02105D03*
X02531Y02021D03*
X0247Y0176D03*
X0293Y0172D03*
Y01605D03*
X01563Y01909D03*
X01592Y02D03*
X01085Y0163D03*
X01384Y02813D03*
X02903Y03185D03*
G54D9501*
X0387Y0192D03*
Y02465D03*
G54D9502*
X04745Y0173D03*
X04845D03*
X04865Y0292D03*
X04965D03*
X05065D03*
X05165D03*
X05265D03*
X05365D03*
X05465D03*
X05625Y02935D03*
Y02835D03*
Y02735D03*
Y02635D03*
X04645Y0173D03*
X04545D03*
X04445D03*
X04345D03*
X04245D03*
X0306Y01815D03*
X0296D03*
X01985Y01805D03*
X01885D03*
X01785D03*
X01685D03*
X01585D03*
Y02705D03*
X01685D03*
X01785D03*
X01885D03*
X01985D03*
X01485D03*
X01385D03*
X01285D03*
X01185D03*
X01085D03*
Y01805D03*
X01185D03*
X01285D03*
X01385D03*
X01485D03*
G54D9503*
X0397Y0192D03*
Y02465D03*
G54D9504*
X01732Y01155D03*
X0187D03*
X02007D03*
X02145D03*
X02552D03*
X0269D03*
X02827D03*
X02965D03*
X03103D03*
X03241D03*
X03654D03*
X03792D03*
X0393D03*
X04067D03*
X04205D03*
X04343D03*
X04756D03*
X04894D03*
X05032D03*
X0517D03*
X05308D03*
X05445D03*
X0128Y0337D03*
X01142D03*
X01577D03*
X01715D03*
X02032D03*
X0217D03*
X02593D03*
X0273D03*
X02868D03*
X03006D03*
X03144D03*
X03282D03*
X03419D03*
X03557D03*
X03695D03*
X03833D03*
X03971D03*
X04108D03*
X04246D03*
X04384D03*
X04522D03*
X0466D03*
G54D9505*
X02273Y01513D03*
X05433Y01703D03*
X05288Y02718D03*
X04493Y02978D03*
X02598Y02463D03*
X01088Y03038D03*
M02*