%FSTAX23Y23*%
%MOIN*%
%SFA1B1*%

%IPPOS*%
%ADD10C,0.003940*%
%ADD11C,0.007870*%
%ADD12C,0.010000*%
%ADD13C,0.020000*%
%ADD14C,0.012000*%
%ADD15C,0.008000*%
%ADD16C,0.006000*%
%LNlayout-1*%
%LPD*%
G54D10*
X0392Y02348D02*
D01*
X03928Y02349*
X03936Y02349*
X03944Y02351*
X03952Y02353*
X03959Y02355*
X03967Y02358*
X03974Y02362*
X03981Y02366*
X03988Y02371*
X03994Y02376*
X04Y02381*
X04006Y02387*
X04011Y02393*
X04016Y024*
X0402Y02406*
X04024Y02414*
X04027Y02421*
X0403Y02429*
X04032Y02436*
X04034Y02444*
X04035Y02452*
X04036Y0246*
Y02469*
X04035Y02477*
X04034Y02485*
X04032Y02493*
X0403Y025*
X04027Y02508*
X04024Y02515*
X0402Y02523*
X04016Y02529*
X04011Y02536*
X04006Y02542*
X04Y02548*
X03994Y02553*
X03988Y02558*
X03981Y02563*
X03974Y02567*
X03967Y02571*
X03959Y02574*
X03952Y02576*
X03944Y02578*
X03936Y0258*
X03928Y0258*
X0392Y02581*
D01*
X03911Y0258*
X03903Y0258*
X03895Y02578*
X03887Y02576*
X0388Y02574*
X03872Y02571*
X03865Y02567*
X03858Y02563*
X03851Y02558*
X03845Y02553*
X03839Y02548*
X03833Y02542*
X03828Y02536*
X03823Y02529*
X03819Y02523*
X03815Y02515*
X03812Y02508*
X03809Y025*
X03807Y02493*
X03805Y02485*
X03804Y02477*
X03803Y02469*
Y0246*
X03804Y02452*
X03805Y02444*
X03807Y02436*
X03809Y02429*
X03812Y02421*
X03815Y02414*
X03819Y02406*
X03823Y024*
X03828Y02393*
X03833Y02387*
X03839Y02381*
X03845Y02376*
X03851Y02371*
X03858Y02366*
X03865Y02362*
X03872Y02358*
X0388Y02355*
X03887Y02353*
X03895Y02351*
X03903Y02349*
X03911Y02349*
X0392Y02348*
Y01803D02*
D01*
X03928Y01804*
X03936Y01804*
X03944Y01806*
X03952Y01808*
X03959Y0181*
X03967Y01813*
X03974Y01817*
X03981Y01821*
X03988Y01826*
X03994Y01831*
X04Y01836*
X04006Y01842*
X04011Y01848*
X04016Y01855*
X0402Y01861*
X04024Y01869*
X04027Y01876*
X0403Y01884*
X04032Y01891*
X04034Y01899*
X04035Y01907*
X04036Y01915*
Y01924*
X04035Y01932*
X04034Y0194*
X04032Y01948*
X0403Y01955*
X04027Y01963*
X04024Y0197*
X0402Y01978*
X04016Y01984*
X04011Y01991*
X04006Y01997*
X04Y02003*
X03994Y02008*
X03988Y02013*
X03981Y02018*
X03974Y02022*
X03967Y02026*
X03959Y02029*
X03952Y02031*
X03944Y02033*
X03936Y02035*
X03928Y02035*
X0392Y02036*
D01*
X03911Y02035*
X03903Y02035*
X03895Y02033*
X03887Y02031*
X0388Y02029*
X03872Y02026*
X03865Y02022*
X03858Y02018*
X03851Y02013*
X03845Y02008*
X03839Y02003*
X03833Y01997*
X03828Y01991*
X03823Y01984*
X03819Y01978*
X03815Y0197*
X03812Y01963*
X03809Y01955*
X03807Y01948*
X03805Y0194*
X03804Y01932*
X03803Y01924*
Y01915*
X03804Y01907*
X03805Y01899*
X03807Y01891*
X03809Y01884*
X03812Y01876*
X03815Y01869*
X03819Y01861*
X03823Y01855*
X03828Y01848*
X03833Y01842*
X03839Y01836*
X03845Y01831*
X03851Y01826*
X03858Y01821*
X03865Y01817*
X03872Y01813*
X0388Y0181*
X03887Y01808*
X03895Y01806*
X03903Y01804*
X03911Y01804*
X0392Y01803*
X01213Y01214D02*
D01*
X01213Y01214*
X01213Y01215*
X01213Y01215*
X01213Y01215*
X01213Y01215*
X01213Y01215*
X01213Y01215*
X01212Y01215*
X01212Y01215*
X01212Y01216*
X01212Y01216*
X01212Y01216*
X01212Y01216*
X01212Y01216*
X01212Y01216*
X01212Y01216*
X01212Y01216*
X01211Y01216*
X01211Y01216*
X01211Y01216*
X01211Y01216*
X01211Y01216*
X01211*
X01211Y01216*
X0121Y01216*
X0121Y01216*
X0121Y01216*
X0121Y01216*
X0121Y01216*
X0121Y01216*
X0121Y01216*
X0121Y01216*
X01209Y01216*
X01209Y01216*
X01209Y01216*
X01209Y01215*
X01209Y01215*
X01209Y01215*
X01209Y01215*
X01209Y01215*
X01209Y01215*
X01209Y01215*
X01209Y01215*
X01209Y01214*
X01209Y01214*
D01*
X01209Y01214*
X01209Y01214*
X01209Y01214*
X01209Y01214*
X01209Y01214*
X01209Y01213*
X01209Y01213*
X01209Y01213*
X01209Y01213*
X01209Y01213*
X01209Y01213*
X01209Y01213*
X0121Y01213*
X0121Y01213*
X0121Y01213*
X0121Y01212*
X0121Y01212*
X0121Y01212*
X0121Y01212*
X0121Y01212*
X01211Y01212*
X01211Y01212*
X01211*
X01211Y01212*
X01211Y01212*
X01211Y01212*
X01211Y01212*
X01212Y01212*
X01212Y01212*
X01212Y01213*
X01212Y01213*
X01212Y01213*
X01212Y01213*
X01212Y01213*
X01212Y01213*
X01212Y01213*
X01212Y01213*
X01213Y01213*
X01213Y01213*
X01213Y01214*
X01213Y01214*
X01213Y01214*
X01213Y01214*
X01213Y01214*
X01213Y01214*
X04018Y02405D02*
Y02524D01*
Y0186D02*
Y01979D01*
X04746Y03212D02*
Y03503D01*
X04453D02*
X04746D01*
X04453Y03212D02*
Y03503D01*
Y03212D02*
X04746D01*
X04471D02*
Y03503D01*
X04177D02*
X04471D01*
X04177Y03212D02*
Y03503D01*
Y03212D02*
X04471D01*
X04195D02*
Y03503D01*
X03902D02*
X04195D01*
X03902Y03212D02*
Y03503D01*
Y03212D02*
X04195D01*
X03919D02*
Y03503D01*
X03626D02*
X03919D01*
X03626Y03212D02*
Y03503D01*
Y03212D02*
X03919D01*
X03644D02*
Y03503D01*
X0335D02*
X03644D01*
X0335Y03212D02*
Y03503D01*
Y03212D02*
X03644D01*
X03368D02*
Y03503D01*
X03075D02*
X03368D01*
X03075Y03212D02*
Y03503D01*
Y03212D02*
X03368D01*
X03093D02*
Y03503D01*
X02799D02*
X03093D01*
X02799Y03212D02*
Y03503D01*
Y03212D02*
X03093D01*
X02817D02*
Y03503D01*
X02524D02*
X02817D01*
X02524Y03212D02*
Y03503D01*
Y03212D02*
X02817D01*
X02256D02*
Y03503D01*
X01963D02*
X02256D01*
X01963Y03212D02*
Y03503D01*
Y03212D02*
X02256D01*
X01801D02*
Y03503D01*
X01508D02*
X01801D01*
X01508Y03212D02*
Y03503D01*
Y03212D02*
X01801D01*
X01366D02*
Y03503D01*
X01073D02*
X01366D01*
X01073Y03212D02*
Y03503D01*
Y03212D02*
X01366D01*
X0467Y01021D02*
Y01312D01*
Y01021D02*
X04963D01*
Y01312*
X0467D02*
X04963D01*
X05221Y01021D02*
Y01312D01*
Y01021D02*
X05514D01*
Y01312*
X05221D02*
X05514D01*
X04945Y01021D02*
Y01312D01*
Y01021D02*
X05239D01*
Y01312*
X04945D02*
X05239D01*
X04119Y01021D02*
Y01312D01*
Y01021D02*
X04412D01*
Y01312*
X04119D02*
X04412D01*
X03843Y01021D02*
Y01312D01*
Y01021D02*
X04136D01*
Y01312*
X03843D02*
X04136D01*
X03567Y01021D02*
Y01312D01*
Y01021D02*
X03861D01*
Y01312*
X03567D02*
X03861D01*
X03016Y01021D02*
Y01312D01*
Y01021D02*
X0331D01*
Y01312*
X03016D02*
X0331D01*
X02741Y01021D02*
Y01312D01*
Y01021D02*
X03034D01*
Y01312*
X02741D02*
X03034D01*
X02465Y01021D02*
Y01312D01*
Y01021D02*
X02758D01*
Y01312*
X02465D02*
X02758D01*
X01921Y01021D02*
Y01312D01*
Y01021D02*
X02214D01*
Y01312*
X01921D02*
X02214D01*
X01645Y01021D02*
Y01312D01*
Y01021D02*
X01938D01*
Y01312*
X01645D02*
X01938D01*
X01114Y0099D02*
Y01029D01*
Y0099D02*
X0141D01*
Y01029*
X03201Y0197D02*
Y0207D01*
Y0197D02*
X03402Y0197D01*
Y0207*
X03201Y0237D02*
Y02469D01*
X03402Y0247*
Y0237D02*
Y0247D01*
G54D11*
X03439Y0212D02*
D01*
X03439Y02119*
X03439Y02119*
X03439Y02119*
X03439Y02119*
X03439Y02119*
X03439Y02119*
X03439Y02119*
X03439Y02118*
X03439Y02118*
X0344Y02118*
X0344Y02118*
X0344Y02118*
X0344Y02118*
X0344Y02118*
X0344Y02118*
X0344Y02118*
X0344Y02118*
X0344Y02118*
X03441Y02118*
X03441Y02118*
X03441Y02118*
X03441Y02118*
X03441*
X03441Y02118*
X03441Y02118*
X03442Y02118*
X03442Y02118*
X03442Y02118*
X03442Y02118*
X03442Y02118*
X03442Y02118*
X03442Y02118*
X03442Y02118*
X03442Y02118*
X03443Y02118*
X03443Y02118*
X03443Y02118*
X03443Y02119*
X03443Y02119*
X03443Y02119*
X03443Y02119*
X03443Y02119*
X03443Y02119*
X03443Y02119*
X03443Y0212*
D01*
X03443Y0212*
X03443Y0212*
X03443Y0212*
X03443Y0212*
X03443Y0212*
X03443Y0212*
X03443Y0212*
X03443Y02121*
X03443Y02121*
X03443Y02121*
X03442Y02121*
X03442Y02121*
X03442Y02121*
X03442Y02121*
X03442Y02121*
X03442Y02121*
X03442Y02121*
X03442Y02121*
X03442Y02121*
X03441Y02121*
X03441Y02121*
X03441Y02121*
X03441*
X03441Y02121*
X03441Y02121*
X03441Y02121*
X0344Y02121*
X0344Y02121*
X0344Y02121*
X0344Y02121*
X0344Y02121*
X0344Y02121*
X0344Y02121*
X0344Y02121*
X0344Y02121*
X03439Y02121*
X03439Y02121*
X03439Y0212*
X03439Y0212*
X03439Y0212*
X03439Y0212*
X03439Y0212*
X03439Y0212*
X03439Y0212*
X03439Y0212*
X02035Y02655D02*
Y02755D01*
X01035Y02655D02*
X02035D01*
X01035D02*
Y02755D01*
X0111*
X02035*
X05515Y0287D02*
Y0297D01*
X04815Y0287D02*
X05515D01*
X04815D02*
Y0297D01*
X05515*
X05575Y02585D02*
X05675D01*
X05575D02*
Y02985D01*
X05675Y02585D02*
Y02985D01*
X05575D02*
X05675D01*
X04195Y0178D02*
X04895D01*
X04195Y0168D02*
Y0178D01*
Y0168D02*
X04895D01*
Y0178*
X0111Y01855D02*
X02035D01*
X01035D02*
X0111D01*
X01035Y01755D02*
Y01855D01*
Y01755D02*
X02035D01*
Y01855*
X02771Y02062D02*
Y02067D01*
X02658Y02062D02*
X02771D01*
X02658D02*
Y02067D01*
X02771*
X02775Y02081D02*
Y0213D01*
X0291Y01765D02*
Y01865D01*
X0311*
Y01765D02*
Y01865D01*
X0291Y01765D02*
X0311D01*
G54D12*
X044Y01455D02*
X0469D01*
X044Y01635D02*
X0469D01*
Y01455D02*
Y01635D01*
X044Y01455D02*
Y01635D01*
X0247Y0282D02*
X0475D01*
X0247Y0352D02*
X0475D01*
Y0282D02*
Y0352D01*
X0247Y0282D02*
Y0352D01*
X0297Y0291D02*
X0328D01*
X0297Y0309D02*
X0328D01*
Y0291D02*
Y0309D01*
X0297Y0291D02*
Y0309D01*
X03505Y0159D02*
X03795D01*
X03505Y0177D02*
X03795D01*
Y0159D02*
Y0177D01*
X03505Y0159D02*
Y0177D01*
X02455Y0159D02*
X02745D01*
X02455Y0177D02*
X02745D01*
Y0159D02*
Y0177D01*
X02455Y0159D02*
Y0177D01*
X0401Y01749D02*
X0403D01*
X031Y02039D02*
X0312D01*
X03045D02*
X03065D01*
X0299D02*
X0301D01*
X01903Y01644D02*
Y01715D01*
X01856Y01644D02*
Y01715D01*
X02008Y01644D02*
Y01715D01*
X01961Y01644D02*
Y01715D01*
X01184Y02165D02*
X01165Y02184D01*
X01184Y02204*
X01204Y02184D02*
X01231D01*
X01244D02*
X01271D01*
X01324Y02204D02*
Y02171D01*
X01331Y02165*
X01344*
X01351Y02171*
Y02204*
X01391Y02198D02*
X01384Y02204D01*
X01371*
X01364Y02198*
Y02191*
X01371Y02184*
X01384*
X01391Y02178*
Y02171*
X01384Y02165*
X01371*
X01364Y02171*
X01404Y02204D02*
Y02165D01*
X01424*
X01431Y02171*
Y02178*
X01424Y02184*
X01404*
X01424*
X01431Y02191*
Y02198*
X01424Y02204*
X01404*
X01484D02*
Y02165D01*
X01504*
X01511Y02171*
Y02198*
X01504Y02204*
X01484*
X01524D02*
X01538D01*
X01531*
Y02165*
X01524*
X01538*
X01558D02*
Y02204D01*
X01578*
X01584Y02198*
Y02184*
X01578Y02178*
X01558*
X01571D02*
X01584Y02165D01*
X01624Y02204D02*
X01598D01*
Y02165*
X01624*
X01598Y02184D02*
X01611D01*
X01664Y02198D02*
X01658Y02204D01*
X01644*
X01638Y02198*
Y02171*
X01644Y02165*
X01658*
X01664Y02171*
X01678Y02204D02*
X01704D01*
X01691*
Y02165*
X01718Y02204D02*
X01731D01*
X01724*
Y02165*
X01718*
X01731*
X01771Y02204D02*
X01758D01*
X01751Y02198*
Y02171*
X01758Y02165*
X01771*
X01778Y02171*
Y02198*
X01771Y02204*
X01791Y02165D02*
Y02204D01*
X01818Y02165*
Y02204*
X04975Y01586D02*
Y01613D01*
X04988Y01626*
X05001Y01613*
Y01586*
Y01606*
X04975*
X05014Y01626D02*
Y01586D01*
X05034*
X05041Y01593*
Y01619*
X05034Y01626*
X05014*
X05081Y01619D02*
X05074Y01626D01*
X05061*
X05054Y01619*
Y01593*
X05061Y01586*
X05074*
X05081Y01593*
X05094Y0158D02*
X05121D01*
X05134Y01626D02*
Y01586D01*
X05154*
X05161Y01593*
Y01599*
X05154Y01606*
X05134*
X05154*
X05161Y01613*
Y01619*
X05154Y01626*
X05134*
X05174Y01586D02*
Y01613D01*
X05188Y01626*
X05201Y01613*
Y01586*
Y01606*
X05174*
X05214Y01586D02*
Y01626D01*
X05241Y01586*
Y01626*
X05254D02*
Y01586D01*
Y01599*
X05281Y01626*
X05261Y01606*
X05281Y01586*
X05294Y0158D02*
X05321D01*
X05334Y01619D02*
X05341Y01626D01*
X05354*
X05361Y01619*
Y01613*
X05354Y01606*
X05348*
X05354*
X05361Y01599*
Y01593*
X05354Y01586*
X05341*
X05334Y01593*
X03875Y01571D02*
Y01598D01*
X03888Y01611*
X03901Y01598*
Y01571*
Y01591*
X03875*
X03914Y01611D02*
Y01571D01*
X03934*
X03941Y01578*
Y01604*
X03934Y01611*
X03914*
X03981Y01604D02*
X03974Y01611D01*
X03961*
X03954Y01604*
Y01578*
X03961Y01571*
X03974*
X03981Y01578*
X03994Y01565D02*
X04021D01*
X04034Y01611D02*
Y01571D01*
X04054*
X04061Y01578*
Y01584*
X04054Y01591*
X04034*
X04054*
X04061Y01598*
Y01604*
X04054Y01611*
X04034*
X04074Y01571D02*
Y01598D01*
X04088Y01611*
X04101Y01598*
Y01571*
Y01591*
X04074*
X04114Y01571D02*
Y01611D01*
X04141Y01571*
Y01611*
X04154D02*
Y01571D01*
Y01584*
X04181Y01611*
X04161Y01591*
X04181Y01571*
X04194Y01565D02*
X04221D01*
X04261Y01571D02*
X04234D01*
X04261Y01598*
Y01604*
X04254Y01611*
X04241*
X04234Y01604*
X0286Y01526D02*
Y01553D01*
X02873Y01566*
X02886Y01553*
Y01526*
Y01546*
X0286*
X02899Y01566D02*
Y01526D01*
X02919*
X02926Y01533*
Y01559*
X02919Y01566*
X02899*
X02966Y01559D02*
X02959Y01566D01*
X02946*
X02939Y01559*
Y01533*
X02946Y01526*
X02959*
X02966Y01533*
X02979Y0152D02*
X03006D01*
X03019Y01566D02*
Y01526D01*
X03039*
X03046Y01533*
Y01539*
X03039Y01546*
X03019*
X03039*
X03046Y01553*
Y01559*
X03039Y01566*
X03019*
X03059Y01526D02*
Y01553D01*
X03073Y01566*
X03086Y01553*
Y01526*
Y01546*
X03059*
X03099Y01526D02*
Y01566D01*
X03126Y01526*
Y01566*
X03139D02*
Y01526D01*
Y01539*
X03166Y01566*
X03146Y01546*
X03166Y01526*
X03179Y0152D02*
X03206D01*
X03219Y01526D02*
X03233D01*
X03226*
Y01566*
X03219Y01559*
G54D13*
X03411Y00974D02*
Y01785D01*
X00985Y0278D02*
X01075Y0278D01*
X02125Y01735D02*
Y02775D01*
X0212Y02779D02*
X02125Y02775D01*
X01076Y02779D02*
X0212D01*
X01075Y0278D02*
X01076Y02779D01*
X0099Y0173D02*
X02125Y01735D01*
X03401Y01136D02*
X03402Y00985D01*
X03397Y0159D02*
X03398Y01438D01*
X0277Y0159D02*
X03397D01*
X0277D02*
Y018D01*
X0242Y0099D02*
Y018D01*
X0277*
X05455Y0166D02*
X0558Y0153D01*
X0432Y01665D02*
X05455Y0166D01*
X0432Y01645D02*
Y01665D01*
X03475Y0184D02*
X03815D01*
X03411Y01776D02*
X03475Y0184D01*
X03411Y01776D02*
Y01785D01*
X03815Y01645D02*
Y0184D01*
Y01645D02*
X0432D01*
Y01435D02*
Y01645D01*
Y01435D02*
X04405D01*
Y01425D02*
Y01435D01*
Y0141D02*
Y01425D01*
Y0141D02*
X0452D01*
X04515Y0098D02*
X0452Y0141D01*
X04485Y0098D02*
X04515D01*
X03411Y00974D02*
X04485Y0098D01*
X03398Y01438D02*
X03401Y01136D01*
X0242Y0099D02*
X03402Y00985D01*
X01348Y025D02*
X01334Y02513D01*
X01308*
X01295Y025*
Y02487*
X01308Y02473*
X01334*
X01348Y0246*
Y02447*
X01334Y02433*
X01308*
X01295Y02447*
X01374Y02513D02*
X01428D01*
X01401*
Y02433*
X01454D02*
Y02513D01*
X01481Y02487*
X01508Y02513*
Y02433*
X01534Y025D02*
X01548Y02513D01*
X01574*
X01588Y025*
Y02487*
X01574Y02473*
X01561*
X01574*
X01588Y0246*
Y02447*
X01574Y02433*
X01548*
X01534Y02447*
X01668Y02433D02*
X01614D01*
X01668Y02487*
Y025*
X01654Y02513*
X01628*
X01614Y025*
X01694Y02513D02*
Y02433D01*
X01721Y0246*
X01748Y02433*
Y02513*
X01774D02*
Y02433D01*
X01814*
X01828Y02447*
Y0246*
X01814Y02473*
X01774*
X01814*
X01828Y02487*
Y025*
X01814Y02513*
X01774*
X01295Y02369D02*
Y0229D01*
X01334*
X01348Y02303*
Y02356*
X01334Y02369*
X01295*
X01414D02*
X01388D01*
X01374Y02356*
Y02303*
X01388Y0229*
X01414*
X01428Y02303*
Y02356*
X01414Y02369*
X01454Y0229D02*
Y02369D01*
X01508Y0229*
Y02369*
X01588Y02356D02*
X01574Y02369D01*
X01548*
X01534Y02356*
Y02303*
X01548Y0229*
X01574*
X01588Y02303*
Y02329*
X01561*
X01614Y02369D02*
Y0229D01*
X01668*
X01748Y02369D02*
X01694D01*
Y0229*
X01748*
X01694Y02329D02*
X01721D01*
G54D14*
X03925Y0173D02*
X03975D01*
X0384D02*
X0389D01*
X0281Y02015D02*
X02859D01*
X029D02*
X02949D01*
G54D15*
X0364Y0199D02*
X0371D01*
Y0186D02*
Y0199D01*
X0364Y0186D02*
X0371D01*
X0364D02*
Y0199D01*
X03645Y02515D02*
X03715D01*
Y02385D02*
Y02515D01*
X03645Y02385D02*
X03715D01*
X03645D02*
Y02515D01*
X01042Y01598D02*
X01037Y01603D01*
X01028*
X01023Y01598*
Y01593*
X01028Y01588*
X01037*
X01042Y01583*
Y01578*
X01037Y01573*
X01028*
X01023Y01578*
X01052Y01603D02*
X01072D01*
X01062*
Y01573*
X01082D02*
Y01603D01*
X01092Y01593*
X01102Y01603*
Y01573*
X01112Y01598D02*
X01117Y01603D01*
X01127*
X01132Y01598*
Y01593*
X01127Y01588*
X01122*
X01127*
X01132Y01583*
Y01578*
X01127Y01573*
X01117*
X01112Y01578*
X01162Y01573D02*
X01142D01*
X01162Y01593*
Y01598*
X01157Y01603*
X01147*
X01142Y01598*
X01172Y01603D02*
Y01573D01*
X01182Y01583*
X01192Y01573*
Y01603*
X01202D02*
Y01573D01*
X01217*
X01222Y01578*
Y01583*
X01217Y01588*
X01202*
X01217*
X01222Y01593*
Y01598*
X01217Y01603*
X01202*
X01262D02*
Y01573D01*
X01277*
X01282Y01578*
Y01598*
X01277Y01603*
X01262*
X01307D02*
X01297D01*
X01292Y01598*
Y01578*
X01297Y01573*
X01307*
X01312Y01578*
Y01598*
X01307Y01603*
X01322Y01573D02*
Y01603D01*
X01342Y01573*
Y01603*
X01372Y01598D02*
X01367Y01603D01*
X01357*
X01352Y01598*
Y01578*
X01357Y01573*
X01367*
X01372Y01578*
Y01588*
X01362*
X01382Y01603D02*
Y01573D01*
X01402*
X01432Y01603D02*
X01412D01*
Y01573*
X01432*
X01412Y01588D02*
X01422D01*
X01472Y01603D02*
Y01573D01*
X01487*
X01492Y01578*
Y01583*
X01487Y01588*
X01472*
X01487*
X01492Y01593*
Y01598*
X01487Y01603*
X01472*
X01502Y01573D02*
Y01603D01*
X01517*
X01522Y01598*
Y01588*
X01517Y01583*
X01502*
X01512D02*
X01522Y01573D01*
X01552Y01603D02*
X01532D01*
Y01573*
X01552*
X01532Y01588D02*
X01542D01*
X01562Y01573D02*
Y01593D01*
X01572Y01603*
X01582Y01593*
Y01573*
Y01588*
X01562*
X01592Y01603D02*
Y01573D01*
Y01583*
X01612Y01603*
X01597Y01588*
X01612Y01573*
X01637Y01603D02*
X01627D01*
X01622Y01598*
Y01578*
X01627Y01573*
X01637*
X01642Y01578*
Y01598*
X01637Y01603*
X01652D02*
Y01578D01*
X01657Y01573*
X01667*
X01672Y01578*
Y01603*
X01682D02*
X01702D01*
X01692*
Y01573*
X01023Y01538D02*
X01033Y01518D01*
X01042Y01538*
X01052Y01518D02*
X01062D01*
X01057*
Y01548*
X01052Y01543*
X01077Y01518D02*
Y01523D01*
X01082*
Y01518*
X01077*
X01102Y01543D02*
X01107Y01548D01*
X01117*
X01122Y01543*
Y01523*
X01117Y01518*
X01107*
X01102Y01523*
Y01543*
X01023Y01463D02*
Y01492D01*
X01037*
X01042Y01487*
Y01478*
X01037Y01473*
X01023*
X01052Y01463D02*
Y01482D01*
X01062Y01492*
X01072Y01482*
Y01463*
Y01478*
X01052*
X01082Y01492D02*
X01102D01*
X01092*
Y01463*
X01112D02*
Y01492D01*
X01127*
X01132Y01487*
Y01478*
X01127Y01473*
X01112*
X01122D02*
X01132Y01463D01*
X01142Y01492D02*
X01152D01*
X01147*
Y01463*
X01142*
X01152*
X01187Y01487D02*
X01182Y01492D01*
X01172*
X01167Y01487*
Y01468*
X01172Y01463*
X01182*
X01187Y01468*
X01197Y01492D02*
Y01463D01*
Y01473*
X01217Y01492*
X01202Y01478*
X01217Y01463*
X01277Y01487D02*
X01272Y01492D01*
X01262*
X01257Y01487*
Y01468*
X01262Y01463*
X01272*
X01277Y01468*
X01287Y01492D02*
Y01463D01*
Y01478*
X01307*
Y01492*
Y01463*
X01317Y01492D02*
Y01463D01*
X01327Y01473*
X01337Y01463*
Y01492*
X01347Y01463D02*
Y01482D01*
X01357Y01492*
X01367Y01482*
Y01463*
Y01478*
X01347*
X01377Y01492D02*
Y01463D01*
X01397*
X01427Y01492D02*
X01407D01*
Y01463*
X01427*
X01407Y01478D02*
X01417D01*
X01437Y01492D02*
Y01463D01*
Y01473*
X01457Y01492*
X01442Y01478*
X01457Y01463*
G54D16*
X01999Y0135D02*
X01994Y01345D01*
Y01336*
X01999Y01331*
X02004*
X02009Y01336*
Y01345*
X02014Y0135*
X02019*
X02024Y01345*
Y01336*
X02019Y01331*
X01999Y0138D02*
X01994Y01375D01*
Y01365*
X01999Y0136*
X02019*
X02024Y01365*
Y01375*
X02019Y0138*
X01994Y0139D02*
X02024D01*
Y0141*
X05444Y02791D02*
X05414D01*
X05444Y0281*
X05414*
X05419Y0284D02*
X05414Y02835D01*
Y02825*
X05419Y0282*
X05439*
X05444Y02825*
Y02835*
X05439Y0284*
X05274Y02786D02*
X05244D01*
X05274Y02805*
X05244*
X05249Y02835D02*
X05244Y0283D01*
Y0282*
X05249Y02815*
X05269*
X05274Y0282*
Y0283*
X05269Y02835*
X01035Y02605D02*
Y02634D01*
X0105*
X01055Y0263*
Y0262*
X0105Y02615*
X01035*
X01084Y02605D02*
X01065D01*
X01084Y02625*
Y0263*
X01079Y02634*
X0107*
X01065Y0263*
X03865Y02635D02*
Y02605D01*
X03885*
X03915Y02635D02*
X03895D01*
Y02605*
X03915*
X03895Y0262D02*
X03905D01*
X03925Y02635D02*
Y02605D01*
X03939*
X03944Y0261*
Y0263*
X03939Y02635*
X03925*
X03974Y02605D02*
X03954D01*
X03974Y02625*
Y0263*
X03969Y02635*
X03959*
X03954Y0263*
X0387Y0209D02*
Y0206D01*
X0389*
X0392Y0209D02*
X039D01*
Y0206*
X0392*
X039Y02075D02*
X0391D01*
X0393Y0209D02*
Y0206D01*
X03944*
X03949Y02065*
Y02085*
X03944Y0209*
X0393*
X03959Y0206D02*
X03969D01*
X03964*
Y0209*
X03959Y02085*
X05354Y0278D02*
X05349Y02776D01*
Y02766*
X05354Y02761*
X05359*
X05364Y02766*
Y02776*
X05369Y0278*
X05374*
X05379Y02776*
Y02766*
X05374Y02761*
X05349Y0279D02*
X05379D01*
Y02805*
X05374Y0281*
X05354*
X05349Y02805*
Y0279*
X05379Y0282D02*
X05359D01*
X05349Y0283*
X05359Y0284*
X05379*
X05364*
Y0282*
X055Y02745D02*
X05496Y0275D01*
X05486*
X05481Y02745*
Y0274*
X05486Y02736*
X05496*
X055Y02731*
Y02726*
X05496Y02721*
X05486*
X05481Y02726*
X0551Y0275D02*
Y02721D01*
X05525*
X0553Y02726*
Y02745*
X05525Y0275*
X0551*
X0554Y02721D02*
Y0274D01*
X0555Y0275*
X0556Y0274*
Y02721*
Y02736*
X0554*
X05495Y02645D02*
X0549Y0265D01*
X05481*
X05476Y02645*
Y0264*
X05481Y02635*
X0549*
X05495Y02631*
Y02626*
X0549Y02621*
X05481*
X05476Y02626*
X05525Y02645D02*
X0552Y0265D01*
X0551*
X05505Y02645*
Y02626*
X0551Y02621*
X0552*
X05525Y02626*
X05535Y0265D02*
Y02621D01*
X05555*
X05154Y0278D02*
X05149Y02776D01*
Y02766*
X05154Y02761*
X05159*
X05164Y02766*
Y02776*
X05169Y0278*
X05174*
X05179Y02776*
Y02766*
X05174Y02761*
X05154Y0281D02*
X05149Y02805D01*
Y02795*
X05154Y0279*
X05174*
X05179Y02795*
Y02805*
X05174Y0281*
X05149Y0282D02*
X05179D01*
Y0284*
X01269Y03155D02*
Y03136D01*
X01284*
X01279Y03146*
Y03151*
X01284Y03155*
X01294*
X01299Y03151*
Y03141*
X01294Y03136*
X01269Y03165D02*
X01289D01*
X01299Y03175*
X01289Y03185*
X01269*
X01119Y03155D02*
Y03136D01*
X01134*
X01129Y03146*
Y03151*
X01134Y03155*
X01144*
X01149Y03151*
Y03141*
X01144Y03136*
X01119Y03165D02*
X01139D01*
X01149Y03175*
X01139Y03185*
X01119*
X05324Y01346D02*
X05294D01*
Y01361*
X05299Y01365*
X05309*
X05314Y01361*
Y01346*
X05324Y01375D02*
X05304D01*
X05294Y01385*
X05304Y01395*
X05324*
X05309*
Y01375*
X05319Y01405D02*
X05324Y0141D01*
Y0142*
X05319Y01425*
X05299*
X05294Y0142*
Y0141*
X05299Y01405*
X05304*
X05309Y0141*
Y01425*
X05324Y01435D02*
X05304Y01455D01*
X05324Y01465D02*
X05294D01*
Y0148*
X05299Y01485*
X05309*
X05314Y0148*
Y01465*
X05294Y01495D02*
X05324D01*
Y0151*
X05319Y01515*
X05314*
X05309Y0151*
Y01495*
Y0151*
X05304Y01515*
X05299*
X05294Y0151*
Y01495*
Y01525D02*
Y01545D01*
X05299*
X05319Y01525*
X05324*
X04909Y01351D02*
X04879D01*
Y01366*
X04884Y0137*
X04894*
X04899Y01366*
Y01351*
X04909Y0138D02*
X04889D01*
X04879Y0139*
X04889Y014*
X04909*
X04894*
Y0138*
X04879Y0143D02*
Y0141D01*
X04894*
X04889Y0142*
Y01425*
X04894Y0143*
X04904*
X04909Y01425*
Y01415*
X04904Y0141*
X04209Y01346D02*
X04179D01*
Y01361*
X04184Y01365*
X04194*
X04199Y01361*
Y01346*
X04209Y01375D02*
X04189D01*
X04179Y01385*
X04189Y01395*
X04209*
X04194*
Y01375*
X04184Y01405D02*
X04179Y0141D01*
Y0142*
X04184Y01425*
X04189*
X04194Y0142*
Y01415*
Y0142*
X04199Y01425*
X04204*
X04209Y0142*
Y0141*
X04204Y01405*
X03809Y01351D02*
X03779D01*
Y01366*
X03784Y0137*
X03794*
X03799Y01366*
Y01351*
X03809Y0138D02*
X03789D01*
X03779Y0139*
X03789Y014*
X03809*
X03794*
Y0138*
X03809Y0143D02*
Y0141D01*
X03789Y0143*
X03784*
X03779Y01425*
Y01415*
X03784Y0141*
X03119Y01351D02*
X03089D01*
Y01366*
X03094Y0137*
X03104*
X03109Y01366*
Y01351*
X03119Y0138D02*
X03099D01*
X03089Y0139*
X03099Y014*
X03119*
X03104*
Y0138*
X03119Y0141D02*
Y0142D01*
Y01415*
X03089*
X03094Y0141*
X02724Y01356D02*
X02694D01*
Y01371*
X02699Y01375*
X02709*
X02714Y01371*
Y01356*
X02724Y01385D02*
X02704D01*
X02694Y01395*
X02704Y01405*
X02724*
X02709*
Y01385*
X02699Y01415D02*
X02694Y0142D01*
Y0143*
X02699Y01435*
X02719*
X02724Y0143*
Y0142*
X02719Y01415*
X02699*
X01864Y01355D02*
X01859Y0135D01*
Y01341*
X01864Y01336*
X01869*
X01874Y01341*
Y0135*
X01879Y01355*
X01884*
X01889Y0135*
Y01341*
X01884Y01336*
X01859Y01365D02*
X01889D01*
Y0138*
X01884Y01385*
X01864*
X01859Y0138*
Y01365*
X01889Y01395D02*
X01869D01*
X01859Y01405*
X01869Y01415*
X01889*
X01874*
Y01395*
X04679Y03111D02*
X04649D01*
Y03125*
X04654Y0313*
X04664*
X04669Y03125*
Y03111*
X04649Y0314D02*
X04679D01*
X04669Y0315*
X04679Y0316*
X04649*
X04679Y0317D02*
X04649D01*
Y03185*
X04654Y0319*
X04664*
X04669Y03185*
Y0317*
Y0318D02*
X04679Y0319D01*
X04539Y03116D02*
X04509D01*
Y03131*
X04514Y03135*
X04524*
X04529Y03131*
Y03116*
X04539Y03145D02*
X04519D01*
X04509Y03155*
X04519Y03165*
X04539*
X04524*
Y03145*
X04514Y03175D02*
X04509Y0318D01*
Y0319*
X04514Y03195*
X04519*
X04524Y0319*
X04529Y03195*
X04534*
X04539Y0319*
Y0318*
X04534Y03175*
X04529*
X04524Y0318*
X04519Y03175*
X04514*
X04524Y0318D02*
Y0319D01*
X04129Y03116D02*
X04099D01*
Y03131*
X04104Y03135*
X04114*
X04119Y03131*
Y03116*
X04099Y03145D02*
X04129D01*
Y0316*
X04124Y03165*
X04119*
X04114Y0316*
Y03145*
Y0316*
X04109Y03165*
X04104*
X04099Y0316*
Y03145*
Y03195D02*
X04104Y03185D01*
X04114Y03175*
X04124*
X04129Y0318*
Y0319*
X04124Y03195*
X04119*
X04114Y0319*
Y03175*
X03714Y03116D02*
X03684D01*
Y03131*
X03689Y03135*
X03699*
X03704Y03131*
Y03116*
X03714Y03145D02*
X03694D01*
X03684Y03155*
X03694Y03165*
X03714*
X03699*
Y03145*
X03684Y03195D02*
X03689Y03185D01*
X03699Y03175*
X03709*
X03714Y0318*
Y0319*
X03709Y03195*
X03704*
X03699Y0319*
Y03175*
X03314Y03111D02*
X03284D01*
Y03125*
X03289Y0313*
X03299*
X03304Y03125*
Y03111*
X03314Y0314D02*
X03294D01*
X03284Y0315*
X03294Y0316*
X03314*
X03299*
Y0314*
X03284Y0317D02*
Y0319D01*
X03289*
X03309Y0317*
X03314*
X02889Y03106D02*
X02859D01*
Y03121*
X02864Y03125*
X02874*
X02879Y03121*
Y03106*
X02859Y03135D02*
X02889D01*
Y0315*
X02884Y03155*
X02879*
X02874Y0315*
Y03135*
Y0315*
X02869Y03155*
X02864*
X02859Y0315*
Y03135*
X02889Y03185D02*
Y03165D01*
X02869Y03185*
X02864*
X02859Y0318*
Y0317*
X02864Y03165*
X04269Y03111D02*
X04239D01*
Y03125*
X04244Y0313*
X04254*
X04259Y03125*
Y03111*
X04239Y0314D02*
X04269D01*
X04259Y0315*
X04269Y0316*
X04239*
X04269Y0317D02*
X04239D01*
Y03185*
X04244Y0319*
X04254*
X04259Y03185*
Y0317*
Y0318D02*
X04269Y0319D01*
X03854Y03116D02*
X03824D01*
Y03131*
X03829Y03135*
X03839*
X03844Y03131*
Y03116*
X03824Y03145D02*
X03854D01*
X03844Y03155*
X03854Y03165*
X03824*
X03854Y03175D02*
X03824D01*
Y0319*
X03829Y03195*
X03839*
X03844Y0319*
Y03175*
Y03185D02*
X03854Y03195D01*
X03439Y03116D02*
X03409D01*
Y03131*
X03414Y03135*
X03424*
X03429Y03131*
Y03116*
X03409Y03145D02*
X03439D01*
X03429Y03155*
X03439Y03165*
X03409*
X03439Y03175D02*
X03409D01*
Y0319*
X03414Y03195*
X03424*
X03429Y0319*
Y03175*
Y03185D02*
X03439Y03195D01*
X03024Y03116D02*
X02994D01*
Y03131*
X02999Y03135*
X03009*
X03014Y03131*
Y03116*
X02994Y03145D02*
X03024D01*
X03014Y03155*
X03024Y03165*
X02994*
X03024Y03175D02*
X02994D01*
Y0319*
X02999Y03195*
X03009*
X03014Y0319*
Y03175*
Y03185D02*
X03024Y03195D01*
X04634Y01545D02*
Y01526D01*
X04649*
X04644Y01536*
Y01541*
X04649Y01545*
X04659*
X04664Y01541*
Y01531*
X04659Y01526*
X04634Y01555D02*
X04654D01*
X04664Y01565*
X04654Y01575*
X04634*
X03749Y0168D02*
Y01661D01*
X03764*
X03759Y01671*
Y01675*
X03764Y0168*
X03774*
X03779Y01675*
Y01666*
X03774Y01661*
X03749Y0169D02*
X03769D01*
X03779Y017*
X03769Y0171*
X03749*
X02684Y0168D02*
Y01661D01*
X02699*
X02694Y01671*
Y01675*
X02699Y0168*
X02709*
X02714Y01675*
Y01666*
X02709Y01661*
X02684Y0169D02*
X02704D01*
X02714Y017*
X02704Y0171*
X02684*
X02984Y02995D02*
Y02976D01*
X02999*
X02994Y02986*
Y0299*
X02999Y02995*
X03009*
X03014Y0299*
Y02981*
X03009Y02976*
X02984Y03005D02*
X03004D01*
X03014Y03015*
X03004Y03025*
X02984*
X03229Y02951D02*
X03224Y02956D01*
Y02966*
X03229Y0297*
X03234*
X03239Y02966*
Y02961*
Y02966*
X03244Y0297*
X03249*
X03254Y02966*
Y02956*
X03249Y02951*
X03254Y0298D02*
X03249D01*
Y02985*
X03254*
Y0298*
X03229Y03005D02*
X03224Y0301D01*
Y0302*
X03229Y03025*
X03234*
X03239Y0302*
Y03015*
Y0302*
X03244Y03025*
X03249*
X03254Y0302*
Y0301*
X03249Y03005*
X03224Y03035D02*
X03244D01*
X03254Y03045*
X03244Y03055*
X03224*
X04429Y01491D02*
X04424Y01496D01*
Y01506*
X04429Y0151*
X04434*
X04439Y01506*
Y01501*
Y01506*
X04444Y0151*
X04449*
X04454Y01506*
Y01496*
X04449Y01491*
X04454Y0152D02*
X04449D01*
Y01525*
X04454*
Y0152*
X04429Y01545D02*
X04424Y0155D01*
Y0156*
X04429Y01565*
X04434*
X04439Y0156*
Y01555*
Y0156*
X04444Y01565*
X04449*
X04454Y0156*
Y0155*
X04449Y01545*
X04424Y01575D02*
X04444D01*
X04454Y01585*
X04444Y01595*
X04424*
X03539Y01626D02*
X03534Y01631D01*
Y01641*
X03539Y01646*
X03544*
X03549Y01641*
Y01636*
Y01641*
X03554Y01646*
X03559*
X03564Y01641*
Y01631*
X03559Y01626*
X03564Y01656D02*
X03559D01*
Y01661*
X03564*
Y01656*
X03539Y01681D02*
X03534Y01686D01*
Y01696*
X03539Y01701*
X03544*
X03549Y01696*
Y01691*
Y01696*
X03554Y01701*
X03559*
X03564Y01696*
Y01686*
X03559Y01681*
X03534Y01711D02*
X03554D01*
X03564Y01721*
X03554Y01731*
X03534*
X02479Y01626D02*
X02474Y01631D01*
Y01641*
X02479Y01645*
X02484*
X02489Y01641*
Y01636*
Y01641*
X02494Y01645*
X02499*
X02504Y01641*
Y01631*
X02499Y01626*
X02504Y01655D02*
X02499D01*
Y0166*
X02504*
Y01655*
X02479Y0168D02*
X02474Y01685D01*
Y01695*
X02479Y017*
X02484*
X02489Y01695*
Y0169*
Y01695*
X02494Y017*
X02499*
X02504Y01695*
Y01685*
X02499Y0168*
X02474Y0171D02*
X02494D01*
X02504Y0172*
X02494Y0173*
X02474*
X02564Y01356D02*
X02534D01*
Y01371*
X02539Y01375*
X02549*
X02554Y01371*
Y01356*
X02534Y01385D02*
X02564D01*
X02554Y01395*
X02564Y01405*
X02534*
X02564Y01415D02*
X02534D01*
Y0143*
X02539Y01435*
X02549*
X02554Y0143*
Y01415*
Y01425D02*
X02564Y01435D01*
X02984Y01356D02*
X02954D01*
Y01371*
X02959Y01375*
X02969*
X02974Y01371*
Y01356*
X02954Y01385D02*
X02984D01*
X02974Y01395*
X02984Y01405*
X02954*
X02984Y01415D02*
X02954D01*
Y0143*
X02959Y01435*
X02969*
X02974Y0143*
Y01415*
Y01425D02*
X02984Y01435D01*
X03669Y01351D02*
X03639D01*
Y01366*
X03644Y0137*
X03654*
X03659Y01366*
Y01351*
X03639Y0138D02*
X03669D01*
X03659Y0139*
X03669Y014*
X03639*
X03669Y0141D02*
X03639D01*
Y01425*
X03644Y0143*
X03654*
X03659Y01425*
Y0141*
Y0142D02*
X03669Y0143D01*
X04084Y01346D02*
X04054D01*
Y01361*
X04059Y01365*
X04069*
X04074Y01361*
Y01346*
X04054Y01375D02*
X04084D01*
X04074Y01385*
X04084Y01395*
X04054*
X04084Y01405D02*
X04054D01*
Y0142*
X04059Y01425*
X04069*
X04074Y0142*
Y01405*
Y01415D02*
X04084Y01425D01*
X04769Y01351D02*
X04739D01*
Y01366*
X04744Y0137*
X04754*
X04759Y01366*
Y01351*
X04739Y0138D02*
X04769D01*
X04759Y0139*
X04769Y014*
X04739*
X04769Y0141D02*
X04739D01*
Y01425*
X04744Y0143*
X04754*
X04759Y01425*
Y0141*
Y0142D02*
X04769Y0143D01*
X05439Y01355D02*
X05434Y0135D01*
Y01341*
X05439Y01336*
X05459*
X05464Y01341*
Y0135*
X05459Y01355*
X05449*
Y01346*
X05464Y01365D02*
X05434D01*
X05464Y01385*
X05434*
Y01395D02*
X05464D01*
Y0141*
X05459Y01415*
X05439*
X05434Y0141*
Y01395*
X05189Y01341D02*
X05159D01*
Y01356*
X05164Y0136*
X05174*
X05179Y01356*
Y01341*
X05159Y0137D02*
X05189D01*
X05179Y0138*
X05189Y0139*
X05159*
X05189Y014D02*
X05159D01*
Y01415*
X05164Y0142*
X05174*
X05179Y01415*
Y014*
Y0141D02*
X05189Y0142D01*
X05014Y0136D02*
X05009Y01356D01*
Y01346*
X05014Y01341*
X05034*
X05039Y01346*
Y01356*
X05034Y0136*
X05024*
Y01351*
X05039Y0137D02*
X05009D01*
X05039Y0139*
X05009*
Y014D02*
X05039D01*
Y01415*
X05034Y0142*
X05014*
X05009Y01415*
Y014*
X04349Y0136D02*
X04344Y01356D01*
Y01346*
X04349Y01341*
X04369*
X04374Y01346*
Y01356*
X04369Y0136*
X04359*
Y01351*
X04374Y0137D02*
X04344D01*
X04374Y0139*
X04344*
Y014D02*
X04374D01*
Y01415*
X04369Y0142*
X04349*
X04344Y01415*
Y014*
X03919Y0136D02*
X03914Y01356D01*
Y01346*
X03919Y01341*
X03939*
X03944Y01346*
Y01356*
X03939Y0136*
X03929*
Y01351*
X03944Y0137D02*
X03914D01*
X03944Y0139*
X03914*
Y014D02*
X03944D01*
Y01415*
X03939Y0142*
X03919*
X03914Y01415*
Y014*
X03244Y01365D02*
X03239Y01361D01*
Y01351*
X03244Y01346*
X03264*
X03269Y01351*
Y01361*
X03264Y01365*
X03254*
Y01356*
X03269Y01375D02*
X03239D01*
X03269Y01395*
X03239*
Y01405D02*
X03269D01*
Y0142*
X03264Y01425*
X03244*
X03239Y0142*
Y01405*
X02824Y01385D02*
X02819Y01381D01*
Y01371*
X02824Y01366*
X02844*
X02849Y01371*
Y01381*
X02844Y01385*
X02834*
Y01376*
X02849Y01395D02*
X02819D01*
X02849Y01415*
X02819*
Y01425D02*
X02849D01*
Y0144*
X02844Y01445*
X02824*
X02819Y0144*
Y01425*
X02139Y0136D02*
X02134Y01356D01*
Y01346*
X02139Y01341*
X02159*
X02164Y01346*
Y01356*
X02159Y0136*
X02149*
Y01351*
X02164Y0137D02*
X02134D01*
X02164Y0139*
X02134*
Y014D02*
X02164D01*
Y01415*
X02159Y0142*
X02139*
X02134Y01415*
Y014*
X02164Y0312D02*
X02159Y03115D01*
Y03106*
X02164Y03101*
X02184*
X02189Y03106*
Y03115*
X02184Y0312*
X02174*
Y03111*
X02189Y0313D02*
X02159D01*
X02189Y0315*
X02159*
Y0316D02*
X02189D01*
Y03175*
X02184Y0318*
X02164*
X02159Y03175*
Y0316*
X02009Y0312D02*
X02004Y03115D01*
Y03106*
X02009Y03101*
X02029*
X02034Y03106*
Y03115*
X02029Y0312*
X02019*
Y03111*
X02034Y0313D02*
X02004D01*
X02034Y0315*
X02004*
Y0316D02*
X02034D01*
Y03175*
X02029Y0318*
X02009*
X02004Y03175*
Y0316*
X02574Y0313D02*
X02569Y03125D01*
Y03116*
X02574Y03111*
X02594*
X02599Y03116*
Y03125*
X02594Y0313*
X02584*
Y03121*
X02599Y0314D02*
X02569D01*
X02599Y0316*
X02569*
Y0317D02*
X02599D01*
Y03185*
X02594Y0319*
X02574*
X02569Y03185*
Y0317*
X02719Y0313D02*
X02714Y03125D01*
Y03116*
X02719Y03111*
X02739*
X02744Y03116*
Y03125*
X02739Y0313*
X02729*
Y03121*
X02744Y0314D02*
X02714D01*
X02744Y0316*
X02714*
Y0317D02*
X02744D01*
Y03185*
X02739Y0319*
X02719*
X02714Y03185*
Y0317*
X03129Y0313D02*
X03124Y03125D01*
Y03116*
X03129Y03111*
X03149*
X03154Y03116*
Y03125*
X03149Y0313*
X03139*
Y03121*
X03154Y0314D02*
X03124D01*
X03154Y0316*
X03124*
Y0317D02*
X03154D01*
Y03185*
X03149Y0319*
X03129*
X03124Y03185*
Y0317*
X03549Y03135D02*
X03544Y03131D01*
Y03121*
X03549Y03116*
X03569*
X03574Y03121*
Y03131*
X03569Y03135*
X03559*
Y03126*
X03574Y03145D02*
X03544D01*
X03574Y03165*
X03544*
Y03175D02*
X03574D01*
Y0319*
X03569Y03195*
X03549*
X03544Y0319*
Y03175*
X04384Y0313D02*
X04379Y03125D01*
Y03116*
X04384Y03111*
X04404*
X04409Y03116*
Y03125*
X04404Y0313*
X04394*
Y03121*
X04409Y0314D02*
X04379D01*
X04409Y0316*
X04379*
Y0317D02*
X04409D01*
Y03185*
X04404Y0319*
X04384*
X04379Y03185*
Y0317*
X03949Y0313D02*
X03944Y03125D01*
Y03116*
X03949Y03111*
X03969*
X03974Y03116*
Y03125*
X03969Y0313*
X03959*
Y03121*
X03974Y0314D02*
X03944D01*
X03974Y0316*
X03944*
Y0317D02*
X03974D01*
Y03185*
X03969Y0319*
X03949*
X03944Y03185*
Y0317*
X05054Y02785D02*
X05049Y0278D01*
Y02771*
X05054Y02766*
X05074*
X05079Y02771*
Y0278*
X05074Y02785*
X05064*
Y02776*
X05079Y02795D02*
X05049D01*
X05079Y02815*
X05049*
Y02825D02*
X05079D01*
Y0284*
X05074Y02845*
X05054*
X05049Y0284*
Y02825*
X05539Y029D02*
X05534Y02895D01*
Y02886*
X05539Y02881*
X05559*
X05564Y02886*
Y02895*
X05559Y029*
X05549*
Y02891*
X05564Y0291D02*
X05534D01*
X05564Y0293*
X05534*
Y0294D02*
X05564D01*
Y02955*
X05559Y0296*
X05539*
X05534Y02955*
Y0294*
X05456Y0284D02*
X05461Y02845D01*
X0547*
X05475Y0284*
Y02835*
X0547Y02831*
X05466*
X0547*
X05475Y02826*
Y02821*
X0547Y02816*
X05461*
X05456Y02821*
X05485Y02816D02*
Y02821D01*
X0549*
Y02816*
X05485*
X0551Y0284D02*
X05515Y02845D01*
X05525*
X0553Y0284*
Y02835*
X05525Y02831*
X0552*
X05525*
X0553Y02826*
Y02821*
X05525Y02816*
X05515*
X0551Y02821*
X0554Y02845D02*
Y02826D01*
X0555Y02816*
X0556Y02826*
Y02845*
X04959Y02746D02*
X04954Y02751D01*
Y0276*
X04959Y02765*
X04964*
X04969Y0276*
Y02756*
Y0276*
X04974Y02765*
X04979*
X04984Y0276*
Y02751*
X04979Y02746*
X04984Y02775D02*
X04979D01*
Y0278*
X04984*
Y02775*
X04959Y028D02*
X04954Y02805D01*
Y02815*
X04959Y0282*
X04964*
X04969Y02815*
Y0281*
Y02815*
X04974Y0282*
X04979*
X04984Y02815*
Y02805*
X04979Y028*
X04954Y0283D02*
X04974D01*
X04984Y0284*
X04974Y0285*
X04954*
X04859Y02746D02*
X04854Y02751D01*
Y0276*
X04859Y02765*
X04864*
X04869Y0276*
Y02756*
Y0276*
X04874Y02765*
X04879*
X04884Y0276*
Y02751*
X04879Y02746*
X04884Y02775D02*
X04879D01*
Y0278*
X04884*
Y02775*
X04859Y028D02*
X04854Y02805D01*
Y02815*
X04859Y0282*
X04864*
X04869Y02815*
Y0281*
Y02815*
X04874Y0282*
X04879*
X04884Y02815*
Y02805*
X04879Y028*
X04854Y0283D02*
X04874D01*
X04884Y0284*
X04874Y0285*
X04854*
X01714Y03081D02*
X01709Y03086D01*
Y03095*
X01714Y031*
X01719*
X01724Y03095*
Y03091*
Y03095*
X01729Y031*
X01734*
X01739Y03095*
Y03086*
X01734Y03081*
X01739Y0311D02*
X01734D01*
Y03115*
X01739*
Y0311*
X01714Y03135D02*
X01709Y0314D01*
Y0315*
X01714Y03155*
X01719*
X01724Y0315*
Y03145*
Y0315*
X01729Y03155*
X01734*
X01739Y0315*
Y0314*
X01734Y03135*
X01709Y03165D02*
X01729D01*
X01739Y03175*
X01729Y03185*
X01709*
X01564Y03081D02*
X01559Y03086D01*
Y03095*
X01564Y031*
X01569*
X01574Y03095*
Y03091*
Y03095*
X01579Y031*
X01584*
X01589Y03095*
Y03086*
X01584Y03081*
X01589Y0311D02*
X01584D01*
Y03115*
X01589*
Y0311*
X01564Y03135D02*
X01559Y0314D01*
Y0315*
X01564Y03155*
X01569*
X01574Y0315*
Y03145*
Y0315*
X01579Y03155*
X01584*
X01589Y0315*
Y0314*
X01584Y03135*
X01559Y03165D02*
X01579D01*
X01589Y03175*
X01579Y03185*
X01559*
X01724Y01341D02*
X01719Y01346D01*
Y01356*
X01724Y0136*
X01729*
X01734Y01356*
Y01351*
Y01356*
X01739Y0136*
X01744*
X01749Y01356*
Y01346*
X01744Y01341*
X01749Y0137D02*
X01744D01*
Y01375*
X01749*
Y0137*
X01724Y01395D02*
X01719Y014D01*
Y0141*
X01724Y01415*
X01729*
X01734Y0141*
Y01405*
Y0141*
X01739Y01415*
X01744*
X01749Y0141*
Y014*
X01744Y01395*
X01719Y01425D02*
X01739D01*
X01749Y01435*
X01739Y01445*
X01719*
X04794Y02905D02*
X04765D01*
Y0292*
X0477Y02925*
X0478*
X04785Y0292*
Y02905*
X04794Y02949D02*
X04765D01*
X0478Y02935*
Y02954*
X05359Y0261D02*
X0533D01*
Y02625*
X05335Y0263*
X05345*
X0535Y02625*
Y0261*
X0533Y02659D02*
Y0264D01*
X05345*
X0534Y0265*
Y02654*
X05345Y02659*
X05355*
X05359Y02654*
Y02645*
X05355Y0264*
X04595Y03265D02*
X04585D01*
X0459*
Y0324*
X04585Y03235*
X0458*
X04575Y0324*
X04605D02*
X0461Y03235D01*
X04619*
X04624Y0324*
Y0326*
X04619Y03265*
X0461*
X04605Y0326*
Y03255*
X0461Y0325*
X04624*
X04302Y03265D02*
X04292D01*
X04297*
Y0324*
X04292Y03235*
X04287*
X04282Y0324*
X04312Y03235D02*
X04322D01*
X04317*
Y03265*
X04312Y0326*
X04337D02*
X04342Y03265D01*
X04352*
X04357Y0326*
Y0324*
X04352Y03235*
X04342*
X04337Y0324*
Y0326*
X04022Y03259D02*
X04012D01*
X04017*
Y03235*
X04012Y0323*
X04007*
X04002Y03235*
X04032Y0323D02*
X04042D01*
X04037*
Y03259*
X04032Y03255*
X04077Y0323D02*
X04057D01*
X04077Y0325*
Y03255*
X04072Y03259*
X04062*
X04057Y03255*
X03752Y03265D02*
X03742D01*
X03747*
Y0324*
X03742Y03235*
X03737*
X03732Y0324*
X03762Y03235D02*
X03772D01*
X03767*
Y03265*
X03762Y0326*
X03802Y03235D02*
Y03265D01*
X03787Y0325*
X03807*
X03477Y03269D02*
X03467D01*
X03472*
Y03245*
X03467Y0324*
X03462*
X03457Y03245*
X03487Y0324D02*
X03497D01*
X03492*
Y03269*
X03487Y03265*
X03532Y03269D02*
X03522Y03265D01*
X03512Y03255*
Y03245*
X03517Y0324*
X03527*
X03532Y03245*
Y0325*
X03527Y03255*
X03512*
X03197Y03265D02*
X03187D01*
X03192*
Y0324*
X03187Y03235*
X03182*
X03177Y0324*
X03207Y03235D02*
X03217D01*
X03212*
Y03265*
X03207Y0326*
X03232D02*
X03237Y03265D01*
X03247*
X03252Y0326*
Y03255*
X03247Y0325*
X03252Y03245*
Y0324*
X03247Y03235*
X03237*
X03232Y0324*
Y03245*
X03237Y0325*
X03232Y03255*
Y0326*
X03237Y0325D02*
X03247D01*
X02917Y03265D02*
X02907D01*
X02912*
Y0324*
X02907Y03235*
X02902*
X02897Y0324*
X02927Y03235D02*
X02937D01*
X02932*
Y03265*
X02927Y0326*
X02952Y0324D02*
X02957Y03235D01*
X02967*
X02972Y0324*
Y0326*
X02967Y03265*
X02957*
X02952Y0326*
Y03255*
X02957Y0325*
X02972*
X02385Y03374D02*
X02375D01*
X0238*
Y0335*
X02375Y03345*
X0237*
X02365Y0335*
X02415Y03345D02*
X02395D01*
X02415Y03365*
Y0337*
X0241Y03374*
X024*
X02395Y0337*
X02444Y03345D02*
X02424D01*
X02444Y03365*
Y0337*
X02439Y03374*
X02429*
X02424Y0337*
X0208Y03259D02*
X0207D01*
X02075*
Y03235*
X0207Y0323*
X02065*
X0206Y03235*
X0211Y0323D02*
X0209D01*
X0211Y0325*
Y03255*
X02105Y03259*
X02095*
X0209Y03255*
X02134Y0323D02*
Y03259D01*
X02119Y03245*
X02139*
X0163Y03265D02*
X0162D01*
X01625*
Y0324*
X0162Y03235*
X01615*
X0161Y0324*
X0166Y03235D02*
X0164D01*
X0166Y03255*
Y0326*
X01655Y03265*
X01645*
X0164Y0326*
X01669D02*
X01674Y03265D01*
X01684*
X01689Y0326*
Y0324*
X01684Y03235*
X01674*
X01669Y0324*
Y0326*
X01197Y03265D02*
X01187D01*
X01192*
Y0324*
X01187Y03235*
X01182*
X01177Y0324*
X01207Y03235D02*
X01217D01*
X01212*
Y03265*
X01207Y0326*
X01232Y03265D02*
X01252D01*
Y0326*
X01232Y0324*
Y03235*
X04607Y01284D02*
X04597D01*
X04602*
Y0126*
X04597Y01255*
X04592*
X04587Y0126*
X04617Y01255D02*
X04627D01*
X04622*
Y01284*
X04617Y0128*
X04642Y01255D02*
X04652D01*
X04647*
Y01284*
X04642Y0128*
X05352Y0108D02*
X05342D01*
X05347*
Y01055*
X05342Y0105*
X05337*
X05332Y01055*
X05362Y0105D02*
X05372D01*
X05367*
Y0108*
X05362Y01075*
X05407Y0108D02*
X05387D01*
Y01065*
X05397Y0107*
X05402*
X05407Y01065*
Y01055*
X05402Y0105*
X05392*
X05387Y01055*
X05083Y01075D02*
X05073D01*
X05078*
Y0105*
X05073Y01045*
X05068*
X05063Y0105*
X05093Y01045D02*
X05103D01*
X05098*
Y01075*
X05093Y0107*
X05118D02*
X05123Y01075D01*
X05133*
X05138Y0107*
Y01065*
X05133Y0106*
X05128*
X05133*
X05138Y01055*
Y0105*
X05133Y01045*
X05123*
X05118Y0105*
X0445Y01284D02*
X0444D01*
X04445*
Y0126*
X0444Y01255*
X04435*
X0443Y0126*
X0446Y0128D02*
X04465Y01284D01*
X04474*
X04479Y0128*
Y01275*
X04474Y0127*
X04479Y01265*
Y0126*
X04474Y01255*
X04465*
X0446Y0126*
Y01265*
X04465Y0127*
X0446Y01275*
Y0128*
X04465Y0127D02*
X04474D01*
X03995Y01085D02*
X03985D01*
X0399*
Y0106*
X03985Y01055*
X0398*
X03975Y0106*
X04005Y01085D02*
X04024D01*
Y0108*
X04005Y0106*
Y01055*
X0352Y01284D02*
X0351D01*
X03515*
Y0126*
X0351Y01255*
X03505*
X035Y0126*
X03549Y01284D02*
X03539Y0128D01*
X0353Y0127*
Y0126*
X03535Y01255*
X03544*
X03549Y0126*
Y01265*
X03544Y0127*
X0353*
X03345Y01284D02*
X03335D01*
X0334*
Y0126*
X03335Y01255*
X0333*
X03325Y0126*
X03369Y01255D02*
Y01284D01*
X03355Y0127*
X03374*
X02875Y01075D02*
X02865D01*
X0287*
Y0105*
X02865Y01045*
X0286*
X02855Y0105*
X02885Y0107D02*
X0289Y01075D01*
X02899*
X02904Y0107*
Y01065*
X02899Y0106*
X02894*
X02899*
X02904Y01055*
Y0105*
X02899Y01045*
X0289*
X02885Y0105*
X0236Y01179D02*
X0235D01*
X02355*
Y01155*
X0235Y0115*
X02345*
X0234Y01155*
X02389Y0115D02*
X0237D01*
X02389Y0117*
Y01175*
X02384Y01179*
X02375*
X0237Y01175*
X0225Y01274D02*
X0224D01*
X02245*
Y0125*
X0224Y01245*
X02235*
X0223Y0125*
X0228Y01245D02*
X0226D01*
X0228Y01265*
Y0127*
X02275Y01274*
X02265*
X0226Y0127*
X02289D02*
X02294Y01274D01*
X02304*
X02309Y0127*
Y01265*
X02304Y0126*
X02299*
X02304*
X02309Y01255*
Y0125*
X02304Y01245*
X02294*
X02289Y0125*
X0158Y01254D02*
X0157D01*
X01575*
Y0123*
X0157Y01225*
X01565*
X0156Y0123*
X0161Y01225D02*
X0159D01*
X0161Y01245*
Y0125*
X01605Y01254*
X01595*
X0159Y0125*
X01619Y01225D02*
X01629D01*
X01624*
Y01254*
X01619Y0125*
X01045Y01244D02*
X01035D01*
X0104*
Y0122*
X01035Y01215*
X0103*
X01025Y0122*
X01055Y01215D02*
X01064D01*
X0106*
Y01244*
X01055Y0124*
X0403Y0182D02*
X04025Y01825D01*
X04015*
X0401Y0182*
Y018*
X04015Y01795*
X04025*
X0403Y018*
X0404Y0182D02*
X04045Y01825D01*
X04055*
X0406Y0182*
Y01815*
X04055Y0181*
X0406Y01805*
Y018*
X04055Y01795*
X04045*
X0404Y018*
Y01805*
X04045Y0181*
X0404Y01815*
Y0182*
X04045Y0181D02*
X04055D01*
X03945Y0182D02*
X0394Y01825D01*
X0393*
X03925Y0182*
Y018*
X0393Y01795*
X0394*
X03945Y018*
X03955Y01825D02*
X03975D01*
Y0182*
X03955Y018*
Y01795*
X0386Y0182D02*
X03855Y01815D01*
Y01805*
X0386Y018*
X0388*
X03885Y01805*
Y01815*
X0388Y0182*
X03855Y01849D02*
X0386Y0184D01*
X0387Y0183*
X0388*
X03885Y01835*
Y01844*
X0388Y01849*
X03875*
X0387Y01844*
Y0183*
X03565Y0231D02*
X03561Y02315D01*
X03551*
X03546Y0231*
Y02305*
X03551Y02301*
X03561*
X03565Y02296*
Y02291*
X03561Y02286*
X03551*
X03546Y02291*
X03575Y02315D02*
Y02286D01*
X0359*
X03595Y02291*
Y02296*
X0359Y02301*
X03575*
X0359*
X03595Y02305*
Y0231*
X0359Y02315*
X03575*
X03605Y02286D02*
X03615D01*
X0361*
Y02315*
X03605Y0231*
X04197Y0181D02*
Y01839D01*
X04212*
X04216Y01834*
Y01825*
X04212Y0182*
X04197*
X04246Y01839D02*
X04236Y01834D01*
X04226Y01825*
Y01815*
X04231Y0181*
X04241*
X04246Y01815*
Y0182*
X04241Y01825*
X04226*
X0345Y0286D02*
X03445Y02855D01*
Y02845*
X0345Y0284*
X03455*
X0346Y02845*
Y02855*
X03465Y0286*
X0347*
X03474Y02855*
Y02845*
X0347Y0284*
X03445Y0287D02*
X03474D01*
Y02885*
X0347Y0289*
X03465*
X0346Y02885*
Y0287*
Y02885*
X03455Y0289*
X0345*
X03445Y02885*
Y0287*
Y02919D02*
Y02899D01*
X0346*
X03455Y02909*
Y02914*
X0346Y02919*
X0347*
X03474Y02914*
Y02904*
X0347Y02899*
X03575Y02865D02*
X0357Y0286D01*
Y0285*
X03575Y02845*
X0358*
X03585Y0285*
Y0286*
X0359Y02865*
X03595*
X03599Y0286*
Y0285*
X03595Y02845*
X0357Y02875D02*
X03599D01*
Y0289*
X03595Y02895*
X0359*
X03585Y0289*
Y02875*
Y0289*
X0358Y02895*
X03575*
X0357Y0289*
Y02875*
X03599Y02919D02*
X0357D01*
X03585Y02904*
Y02924*
X0369Y02865D02*
X03685Y0286D01*
Y0285*
X0369Y02845*
X03695*
X037Y0285*
Y0286*
X03705Y02865*
X0371*
X03714Y0286*
Y0285*
X0371Y02845*
X03685Y02875D02*
X03714D01*
Y0289*
X0371Y02895*
X03705*
X037Y0289*
Y02875*
Y0289*
X03695Y02895*
X0369*
X03685Y0289*
Y02875*
X0369Y02904D02*
X03685Y02909D01*
Y02919*
X0369Y02924*
X03695*
X037Y02919*
Y02914*
Y02919*
X03705Y02924*
X0371*
X03714Y02919*
Y02909*
X0371Y02904*
X0381Y02867D02*
X03805Y02862D01*
Y02852*
X0381Y02847*
X03815*
X0382Y02852*
Y02862*
X03825Y02867*
X0383*
X03835Y02862*
Y02852*
X0383Y02847*
X03805Y02877D02*
X03835D01*
Y02892*
X0383Y02897*
X03825*
X0382Y02892*
Y02877*
Y02892*
X03815Y02897*
X0381*
X03805Y02892*
Y02877*
X03835Y02927D02*
Y02907D01*
X03815Y02927*
X0381*
X03805Y02922*
Y02912*
X0381Y02907*
X0197Y01616D02*
X01999D01*
Y01602*
X01995Y01597*
X01985*
X0198Y01602*
Y01616*
Y01606D02*
X0197Y01597D01*
Y01572D02*
X01999D01*
X01985Y01587*
Y01567*
X01865Y01614D02*
X01894D01*
Y016*
X0189Y01595*
X0188*
X01875Y016*
Y01614*
Y01605D02*
X01865Y01595D01*
X0189Y01585D02*
X01894Y0158D01*
Y0157*
X0189Y01565*
X01885*
X0188Y0157*
Y01575*
Y0157*
X01875Y01565*
X0187*
X01865Y0157*
Y0158*
X0187Y01585*
X03647Y02545D02*
Y02574D01*
X03661*
X03666Y02569*
Y02559*
X03661Y02555*
X03647*
X03657D02*
X03666Y02545D01*
X03696D02*
X03676D01*
X03696Y02564*
Y02569*
X03691Y02574*
X03681*
X03676Y02569*
X03642Y0202D02*
Y02049D01*
X03657*
X03661Y02044*
Y02035*
X03657Y0203*
X03642*
X03652D02*
X03661Y0202D01*
X03671D02*
X03681D01*
X03676*
Y02049*
X03671Y02044*
X02912Y01895D02*
Y01924D01*
X02927*
X02931Y01919*
Y01909*
X02927Y01905*
X02912*
X02941Y01919D02*
X02946Y01924D01*
X02956*
X02961Y01919*
Y01914*
X02956Y01909*
X02951*
X02956*
X02961Y01905*
Y019*
X02956Y01895*
X02946*
X02941Y019*
X01037Y01885D02*
Y01914D01*
X01052*
X01056Y01909*
Y01899*
X01052Y01895*
X01037*
X01066Y01885D02*
X01076D01*
X01071*
Y01914*
X01066Y01909*
X03161Y02566D02*
X03152D01*
X03157*
Y02542*
X03152Y02537*
X03147*
X03142Y02542*
X03191Y02566D02*
X03171D01*
Y02552*
X03181Y02556*
X03186*
X03191Y02552*
Y02542*
X03186Y02537*
X03176*
X03171Y02542*
X0265Y02197D02*
X0266D01*
X02655*
Y02168*
X0265*
X0266*
X02694Y02192D02*
X02689Y02197D01*
X02679*
X02674Y02192*
Y02173*
X02679Y02168*
X02689*
X02694Y02173*
X02704Y02168D02*
X02714D01*
X02709*
Y02197*
X02704Y02192*
X03105Y0212D02*
X031Y02115D01*
Y02105*
X03105Y021*
X03125*
X0313Y02105*
Y02115*
X03125Y0212*
X031Y02149D02*
Y0213D01*
X03115*
X0311Y0214*
Y02144*
X03115Y02149*
X03125*
X0313Y02144*
Y02135*
X03125Y0213*
X03045Y0212D02*
X0304Y02115D01*
Y02105*
X03045Y021*
X03065*
X03069Y02105*
Y02115*
X03065Y0212*
X03069Y02144D02*
X0304D01*
X03055Y0213*
Y02149*
X02985Y0212D02*
X0298Y02115D01*
Y02105*
X02985Y021*
X03005*
X03009Y02105*
Y02115*
X03005Y0212*
X02985Y0213D02*
X0298Y02135D01*
Y02144*
X02985Y02149*
X0299*
X02995Y02144*
Y0214*
Y02144*
X03Y02149*
X03005*
X03009Y02144*
Y02135*
X03005Y0213*
X02915D02*
X0291Y02125D01*
Y02115*
X02915Y0211*
X02935*
X0294Y02115*
Y02125*
X02935Y0213*
X0294Y02159D02*
Y0214D01*
X0292Y02159*
X02915*
X0291Y02154*
Y02145*
X02915Y0214*
X02825Y02135D02*
X0282Y0213D01*
Y0212*
X02825Y02115*
X02845*
X02849Y0212*
Y0213*
X02845Y02135*
X02849Y02145D02*
Y02154D01*
Y0215*
X0282*
X02825Y02145*
M02*