%FSTAX23Y23*%
%MOIN*%
%SFA1B1*%

%IPPOS*%
%ADD12C,0.010000*%
%ADD13C,0.020000*%
%ADD40C,0.016000*%
%ADD41C,0.040000*%
%ADD43C,0.079530*%
%ADD44R,0.059060X0.059060*%
%ADD45C,0.059060*%
%ADD46R,0.047240X0.047240*%
%ADD47R,0.059060X0.059060*%
%ADD48C,0.078740*%
%ADD49C,0.050000*%
%LNlayout-1*%
%LPD*%
G36*
X04749Y02995D02*
X0475Y02991D01*
X04752Y02987*
X04757Y02982*
X04761Y0298*
X04765Y02979*
X04796*
X04827Y02957*
Y02939*
Y02882*
X04897*
X04902*
X04941Y02889*
X0495Y02885*
X0496Y02882*
X04969*
X04979Y02885*
X04988Y02889*
X0499Y02892*
X04995Y02894*
X05016Y02895*
X05033Y02893*
X05036Y02892*
X0504Y02888*
X05049Y02883*
X05059Y0288*
X0506*
Y0292*
X0507*
Y0288*
X0507*
X0508Y02883*
X05089Y02888*
X05093Y02892*
X05096Y02893*
X05113Y02895*
X05134Y02894*
X05139Y02892*
X05141Y02889*
X0515Y02885*
X0516Y02882*
X05169*
X05179Y02885*
X05188Y02889*
X05192Y02894*
X05198Y02896*
X05215Y02896*
X05231Y02896*
X05237Y02894*
X05241Y02889*
X0525Y02885*
X0526Y02882*
X05269*
X05279Y02885*
X05288Y02889*
X05292Y02894*
X05298Y02896*
X05315Y02896*
X05331Y02896*
X05337Y02894*
X05341Y02889*
X0535Y02885*
X0536Y02882*
X05369*
X05379Y02885*
X05388Y02889*
X05392Y02894*
X05398Y02896*
X05415Y02896*
X05431Y02896*
X05437Y02894*
X05441Y02889*
X0545Y02885*
X0546Y02882*
X05469*
X05479Y02885*
X05488Y02889*
X05495Y02896*
X05499Y02905*
X05502Y02915*
Y02924*
X05499Y02934*
X05496Y02939*
X05501Y02956*
X05512Y02979*
X05547*
X05585Y02974*
Y0294*
X05625*
Y0293*
X05585*
Y02901*
Y02895*
X05593Y02855*
X0559Y02849*
X05587Y02839*
Y02837*
X05423Y02673*
X05363*
X05354Y02681*
X05335Y02711*
Y02724*
X05332Y02736*
X05326Y02747*
X05317Y02756*
X05306Y02762*
X05294Y02765*
X05281*
X05269Y02762*
X05258Y02756*
X05249Y02747*
X05243Y02736*
X0524Y02724*
Y02711*
X05222Y02681*
X05212Y02673*
X04897*
X04844Y02726*
X04843Y0273*
X04838Y02738*
X04832Y02744*
X04825Y02748*
X04816Y02751*
X04808*
X04799Y02748*
X04792Y02744*
X04785Y02738*
X04781Y0273*
X04779Y02722*
Y02713*
X04781Y02705*
X04785Y02697*
X04792Y02691*
X04799Y02687*
X04804Y02686*
X0486Y0263*
X04856Y02609*
X04845Y0259*
X04165*
X04161Y02589*
X04157Y02587*
X04155Y02583*
X04154Y0258*
Y01976*
X04141Y01967*
X04115Y01961*
X04107Y01965*
X04099Y01968*
X0409*
X04082Y01965*
X04074Y01961*
X04068Y01955*
X04064Y01947*
X04062Y01939*
X04058Y01933*
X04006*
X04004Y01934*
X04Y01943*
X03999Y01943*
X03993Y0195*
X03984Y01954*
X03974Y01957*
X03965*
X03964Y01957*
X03955Y01954*
X03946Y0195*
X03941Y01944*
X03938Y01944*
X03901Y01951*
X03838*
Y01888*
X03901*
X03929Y01894*
X03941Y01895*
X03946Y01889*
X03955Y01885*
X03964Y01882*
X03965Y01882*
X03974*
X03984Y01885*
X03993Y01889*
X03998Y01895*
X04Y01896*
X04004Y01905*
X04006Y01906*
X04055*
X04069*
X04074Y01907*
X04075Y01908*
X04082Y01904*
X04084Y01903*
X0409Y01902*
X04099*
X04107Y01904*
X04115Y01908*
X04141Y01902*
X04154Y01893*
Y01785*
X04155Y01781*
X04157Y01777*
X04161Y01775*
X04165Y01774*
X0417*
X04207Y01767*
Y01734*
Y01692*
X04274*
X04282*
X0432Y01698*
X04329Y01693*
X04339Y0169*
X0434*
Y0173*
X0435*
Y0169*
X0435*
X0436Y01693*
X04369Y01698*
X04373Y01702*
X04376Y01703*
X04393Y01705*
X04414Y01704*
X04419Y01702*
X04421Y01699*
X0443Y01695*
X0444Y01692*
X04449*
X04459Y01695*
X04468Y01699*
X04472Y01704*
X04478Y01706*
X04495Y01706*
X04511Y01706*
X04517Y01704*
X04521Y01699*
X0453Y01695*
X0454Y01692*
X04549*
X04559Y01695*
X04568Y01699*
X04572Y01704*
X04578Y01706*
X04595Y01706*
X04611Y01706*
X04617Y01704*
X04621Y01699*
X0463Y01695*
X0464Y01692*
X04649*
X04659Y01695*
X04668Y01699*
X04672Y01704*
X04678Y01706*
X04695Y01706*
X04711Y01706*
X04717Y01704*
X04721Y01699*
X0473Y01695*
X0474Y01692*
X04749*
X04759Y01695*
X04768Y01699*
X0477Y01702*
X04775Y01704*
X04796Y01705*
X04813Y01703*
X04816Y01702*
X0482Y01698*
X04829Y01693*
X04839Y0169*
X0484*
Y0173*
X04845*
Y01735*
X04884*
Y01735*
X04899Y01763*
X0491Y01774*
X05382*
X05391Y01761*
X05397Y01734*
X05394Y01732*
X05388Y01721*
X05385Y01709*
Y01696*
X05388Y01684*
X05394Y01673*
X05403Y01664*
X05414Y01658*
X05426Y01655*
X05439*
X05451Y01658*
X05462Y01664*
X05471Y01673*
X05477Y01684*
X0548Y01696*
Y01709*
X05477Y01721*
X05471Y01732*
X05468Y01734*
X05475Y01761*
X05483Y01774*
X05529*
Y01199*
X05524Y01196*
X05485Y01185*
X05476Y01194*
X05464Y01201*
X05452Y01204*
X0545*
Y01155*
Y01105*
X05452*
X05464Y01108*
X05476Y01115*
X05485Y01124*
X05524Y01113*
X05529Y0111*
Y0101*
X05108*
X05091Y0105*
X0511Y01068*
X05138Y01097*
X05152Y0111*
X05155Y0111*
X05164Y01107*
X05176*
X05188Y0111*
X05199Y01117*
X05208Y01125*
X05214Y01136*
X05217Y01148*
Y01161*
X05214Y01173*
X05208Y01184*
X05199Y01192*
X05188Y01199*
X05176Y01202*
X05164*
X05152Y01199*
X05141Y01192*
X05132Y01184*
X05126Y01173*
X05125Y0117*
X05119Y01166*
X05105Y01169*
X05074Y01181*
X05072Y01185*
X05062Y01194*
X05051Y01201*
X05039Y01204*
X05037*
Y01155*
X05032*
Y0115*
X04983*
Y01148*
X04986Y01135*
X04993Y01124*
X05002Y01115*
X05017Y01079*
X05019Y01067*
X05016Y01063*
X04855*
X04815Y01065*
X04801Y01079*
X04798Y01087*
X04798Y01087*
X04794Y01125*
X04801Y01136*
X04804Y01148*
Y01161*
X04801Y01173*
X04794Y01184*
X04786Y01192*
X04777Y01197*
X04775Y01199*
Y01277*
X04775Y01277*
X04781Y01283*
X04785Y01291*
X04788Y01299*
Y01308*
X04785Y01316*
X04781Y01324*
X04775Y0133*
X04767Y01334*
X04759Y01337*
X0475*
X04742Y01334*
X04734Y0133*
X04728Y01324*
X04724Y01316*
X04722Y01308*
Y01299*
X04724Y01291*
X04728Y01283*
X04734Y01277*
X04738Y01275*
Y01199*
X04735Y01197*
X04727Y01192*
X04719Y01184*
X04712Y01173*
X04709Y01161*
Y01148*
X04712Y01136*
X04719Y01125*
X04726Y01117*
X0474Y01092*
X0474Y0109*
X04744Y01085*
X04744Y01084*
X04764Y01064*
X04778Y0105*
X04777Y01046*
X04762Y0101*
X0101*
Y01346*
X01021Y01356*
X01045Y01368*
X0105Y01368*
X01055Y01367*
X01064*
X01072Y01369*
X0108Y01373*
X01086Y01379*
X0109Y01387*
X01093Y01395*
Y01404*
X0109Y01412*
X01086Y0142*
X0108Y01426*
X01072Y0143*
X01067Y0144*
X01072Y01477*
X0108Y01481*
X01086Y01488*
X0109Y01495*
X01093Y01503*
Y01512*
X0109Y01521*
X01086Y01528*
X0108Y01534*
X01079Y01534*
X01078Y01574*
X01092Y01597*
X01097Y01599*
X01105Y01603*
X01111Y01609*
X01115Y01617*
X01118Y01625*
Y01634*
X01115Y01642*
X01144Y0167*
X01147Y01674*
X01148Y0168*
Y01734*
X01153Y01742*
X01179Y01765*
X0118*
Y01805*
Y01844*
X01179*
X01153Y01865*
X01147Y01875*
Y01875*
X01144Y01879*
X01104Y01918*
Y01924*
Y02125*
Y02131*
X01108Y02134*
X01296Y02323*
X013Y02326*
X01305*
X01509*
X0152*
X01525Y02327*
X01529Y0233*
X01537Y02338*
X01866Y02668*
X01868Y0267*
X0187Y0267*
X0188Y02667*
X01881*
X01889*
X01899Y0267*
X01908Y02674*
X0191Y02677*
X01915Y02679*
X01936Y0268*
X01953Y02678*
X01956Y02677*
X0196Y02673*
X01969Y02668*
X01979Y02665*
X0198*
Y02705*
Y02744*
X01979*
X01969Y02741*
X0196Y02736*
X01956Y02732*
X01953Y02731*
X01936Y02729*
X01915Y0273*
X0191Y02732*
X01908Y02735*
X01899Y02739*
X01889Y02742*
X0188*
X0187Y02739*
X01861Y02735*
X01857Y0273*
X01851Y02728*
X01835Y02728*
X01818Y02728*
X01812Y0273*
X01808Y02735*
X01799Y02739*
X01789Y02742*
X0178*
X0177Y02739*
X01761Y02735*
X01757Y0273*
X01751Y02728*
X01735Y02728*
X01718Y02728*
X01712Y0273*
X01708Y02735*
X01699Y02739*
X01689Y02742*
X0168*
X0167Y02739*
X01661Y02735*
X01657Y0273*
X01651Y02728*
X01635Y02728*
X01618Y02728*
X01612Y0273*
X01608Y02735*
X01599Y02739*
X01589Y02742*
X0158*
X0157Y02739*
X01561Y02735*
X01557Y0273*
X01551Y02728*
X01535Y02728*
X01518Y02728*
X01512Y0273*
X01508Y02735*
X01499Y02739*
X01489Y02742*
X0148*
X0147Y02739*
X01461Y02735*
X01457Y0273*
X01451Y02728*
X01435Y02728*
X01418Y02728*
X01412Y0273*
X01408Y02735*
X01399Y02739*
X01389Y02742*
X01389Y0278*
X01397Y02782*
X01405Y02786*
X01411Y02792*
X01415Y028*
X01417Y02808*
Y02816*
Y02817*
X01433Y02847*
X01441Y02856*
X01441Y02856*
X01991*
X02141Y02706*
Y01693*
X02116Y01668*
X01225*
X01221Y01667*
X01219Y01665*
X01217Y01663*
X01216Y0166*
Y0155*
Y01525*
X01216Y01525*
X01216Y01525*
X01217Y01524*
X01217Y01522*
X01217*
Y01522*
Y01522*
X01218Y01521*
X01219Y01519*
X01219*
X01219Y01519*
X01222Y01516*
X01222*
X01222Y01516*
X01224Y01515*
X01225Y01514*
X01225*
X01225*
X01227Y01514*
X01228Y01513*
X01228*
X01228*
X01252Y01514*
X01278Y01514*
X01306Y01485*
Y01313*
X01175*
X01171Y01312*
X01169Y0131*
X01134Y01275*
X01132Y01273*
X01131Y0127*
Y0123*
X01132Y01226*
X01134Y01224*
X01174Y01184*
X01176Y01182*
X0118Y01181*
X0145*
X01453Y01182*
X01455Y01184*
X01457Y01186*
X01458Y0119*
Y0125*
X01466Y01256*
X01495Y01271*
X0245*
X02453Y01272*
X02455Y01274*
X02496Y01315*
X02533Y013*
Y01199*
X02531Y01197*
X02523Y01192*
X02514Y01184*
X02508Y01173*
X02504Y01161*
Y01148*
X02508Y01136*
X02514Y01125*
X02523Y01117*
X02533Y0111*
X02545Y01107*
X02558*
X02567Y0111*
X0257Y0111*
X02586Y01095*
X02604Y01077*
X0261Y01073*
X02616Y01071*
X02617Y01071*
X0265*
X0265*
X02656*
X02689*
X02729*
X02796*
X02836*
X02859*
X02895*
X0292*
X0292*
X02935*
X02935Y01071*
X02942Y01073*
Y01073*
X02947Y01077*
X02957Y01086*
X02967Y01096*
X02967Y01096*
X02983Y01108*
X02994Y01117*
X02997Y0112*
X03003Y01125*
X03009Y01136*
X03012Y01148*
Y01161*
X03009Y01173*
X03003Y01184*
X02994Y01192*
X02983Y01199*
X02971Y01202*
X02959*
X02947Y01199*
X02936Y01192*
X02927Y01184*
X02921Y01173*
X02921Y01172*
X02898Y01161*
X02873Y01173*
X02873Y01174*
X02867Y01185*
X02858Y01194*
X02846Y01201*
X02834Y01204*
X02832*
Y01155*
X02822*
Y01204*
X02821*
X02808Y01201*
X02797Y01194*
X02788Y01185*
X02781Y01174*
X02781Y01173*
X02757Y01161*
X02746Y01167*
X02735Y0118*
X0274Y01213*
X02746Y01219*
X0275Y01227*
X02753Y01235*
Y01244*
Y01244*
X02751Y01251*
X028Y01301*
X02807Y01308*
X0281Y01312*
X02811Y01317*
Y01338*
X02818Y01342*
X02824Y01348*
X02829Y01355*
X02831Y01364*
Y01372*
X02854Y01408*
X02867Y01409*
X02897Y01382*
Y01375*
X02899Y01367*
X02903Y01359*
X02909Y01353*
X02905Y01346*
X02887Y01314*
X02886Y01314*
X02886Y01313*
X02871Y01285*
X02869Y01276*
Y01273*
Y01268*
X02871Y01259*
X02876Y01252*
X02882Y01246*
X02889Y01241*
X02898Y01239*
X02906*
X02915Y01241*
X02922Y01246*
X02928Y01252*
X02933Y01259*
X02935Y01268*
Y01276*
X02933Y01285*
X02928Y01292*
X02924Y01297*
X02922Y01298*
X02941Y01334*
X02942Y01334*
X02943Y01339*
Y01349*
X0295Y01353*
X02956Y01359*
X0296Y01367*
X02963Y01375*
Y01381*
Y01384*
X02978Y01411*
X02988Y01421*
X03545*
X03582Y01404*
Y01395*
X03584Y01387*
X03588Y01379*
X03594Y01374*
X03594Y01373*
X03596Y01372*
Y01242*
Y01223*
Y01208*
Y01208*
Y01196*
X03596Y01195*
X03598Y01189*
X03599Y01187*
X03607Y01159*
Y01148*
X0361Y01136*
X03616Y01125*
X03625Y01117*
X03636Y0111*
X03648Y01107*
X0366*
X03669Y0111*
X03672Y0111*
X03688Y01095*
X03711Y01072*
X03712Y01071*
X03712*
X03717Y01068*
X03723Y01066*
X03724Y01066*
X03738*
X03738*
X03763*
X03813*
X03855*
X03905*
X03939*
X03974*
X04*
X04013*
X04014Y01066*
X0402Y01068*
X04026Y01071*
X04026Y01072*
X04036Y01081*
X04054Y01099*
X04061Y01106*
X04067Y01107*
X04074Y01107*
X04086Y0111*
X04097Y01117*
X04105Y01125*
X04112Y01136*
X04115Y01148*
Y01161*
X04112Y01173*
X04105Y01184*
X04097Y01192*
X04086Y01199*
X04074Y01202*
X04061*
X04049Y01199*
X04038Y01192*
X0403Y01184*
X04023Y01173*
X0402Y01161*
X04002Y01151*
X04001Y01152*
X03977Y01167*
X03976Y01174*
X03969Y01185*
X0396Y01194*
X03949Y01201*
X03936Y01204*
X03935*
Y01155*
X03925*
Y01204*
X03923*
X03911Y01201*
X03899Y01194*
X0389Y01185*
X03884Y01174*
X0388Y01161*
X03843Y01143*
X03839Y01148*
Y01161*
X03836Y01173*
X0383Y01184*
X03821Y01192*
X03816Y01195*
X0381Y01199*
X03804Y01203*
Y01277*
X0381Y01281*
X0381Y01281*
X03816Y01287*
X0382Y01295*
X03823Y01303*
Y01312*
X0382Y0132*
X03816Y01328*
X0381Y01334*
X03802Y01338*
X03794Y01341*
X03785*
X03777Y01338*
X03769Y01334*
X03763Y01328*
X03759Y0132*
X03757Y01312*
Y01303*
X03759Y01295*
X03763Y01287*
X03766Y01284*
X03769Y01281*
X03777Y01277*
X03777Y01276*
Y01202*
X03774Y01199*
X03763Y01192*
X03754Y01184*
X03748Y01173*
X03729Y01164*
X03717Y01161*
X03705Y01161*
X037Y01165*
X03698Y01173*
X03692Y01184*
X03683Y01192*
X03672Y01199*
X03662Y01202*
X03636Y01231*
X03633Y01239*
Y01372*
X03635Y01373*
X03641Y01379*
X03645Y01387*
X03648Y01395*
Y01404*
X03684Y01421*
X03888*
X03896*
X03909Y01408*
X03912Y01407*
X03915Y01406*
X03918Y01407*
X03923Y01409*
X03925Y0141*
X03926Y01412*
X03927Y01413*
X03928Y01416*
Y01458*
X04278*
X04305Y01429*
X04303Y01415*
X04292Y0139*
X04284Y01386*
X04278Y0138*
X04274Y01372*
X04272Y01364*
Y01355*
X04274Y01347*
X04278Y01339*
X04284Y01333*
X04292Y01329*
X043Y01327*
X04304*
X04315Y01321*
X04335Y01305*
X04342Y01297*
X04343Y01293*
X04347Y01285*
X04354Y01279*
X04361Y01275*
X0437Y01272*
X04378*
X04387Y01275*
X04394Y01279*
X044Y01285*
X04405Y01293*
X04406Y01298*
X04407Y01301*
X0441Y01311*
X04458*
X04483*
X0452*
X04525Y01312*
X04529Y01315*
X04547Y01334*
X04664Y0145*
X04672Y01448*
X04681*
X04689Y0145*
X04696Y01455*
X04703Y01461*
X04707Y01468*
X04709Y01477*
Y01486*
X04707Y01494*
X04703Y01501*
X04696Y01508*
X04689Y01512*
X04681Y01514*
X04672*
X04663Y01512*
X04656Y01508*
X0465Y01501*
X04645Y01494*
X04643Y01486*
Y01477*
X04645Y01469*
X04529Y01353*
X04514Y01338*
X04491*
X0447Y01351*
X0447Y01351*
X04458Y01386*
Y01407*
Y0145*
X04457Y01455*
X04454Y0146*
X04447Y01467*
X04374Y01539*
X04376Y01547*
Y01556*
X04374Y01564*
X0437Y01572*
X04364Y01578*
X04356Y01582*
X04348Y01584*
X04339*
X04331Y01582*
X04323Y01578*
X04317Y01572*
X04295Y01554*
X04285Y01553*
X04273*
X04051*
X04012Y01556*
X04011Y01556*
X04007Y01563*
X04001Y01569*
X03994Y01574*
X03985Y01576*
X03977*
X03968Y01574*
X03968Y01573*
X03944Y01582*
X03928Y01593*
Y0163*
X03927Y01633*
X03925Y01635*
X03923Y01637*
X0392Y01638*
X03158*
X03058Y01738*
X03073Y01775*
X03099*
Y0181*
X0306*
Y01815*
X03055*
Y01854*
X0302*
X0298Y01846*
X02974Y01849*
X02964Y01852*
X02955*
X02943Y01852*
X02942Y01853*
X02942Y01854*
X02941Y01854*
X02833Y01963*
Y02431*
X0371*
X03713Y02432*
X03715Y02434*
X03767Y02485*
X03775Y02484*
X03805Y02467*
Y0235*
X03806Y02345*
X03808Y02343*
X03809Y02341*
X03828Y0231*
X03824Y02302*
X03822Y02294*
Y02285*
X03824Y02277*
X03828Y02269*
X03834Y02263*
X03842Y02259*
X0385Y02257*
X03859*
X03867Y02259*
X03875Y02263*
X03907Y02269*
X03915Y02267*
X03924*
X03932Y02269*
X0394Y02273*
X03946Y02279*
X0395Y02287*
X03953Y02295*
Y02304*
X0395Y02312*
X03946Y0232*
X0394Y02326*
X03933Y0233*
Y02396*
X03939Y02405*
X03965Y02427*
X03974*
X03984Y0243*
X03993Y02434*
X04Y02441*
X04004Y0245*
X04007Y0246*
Y02469*
X04004Y02479*
X04Y02488*
X03993Y02495*
X03984Y02499*
X03974Y02502*
X03965*
X03962Y02504*
X03957Y02553*
X04048Y02644*
X04051Y02649*
X04052Y02654*
Y02664*
X04054Y02666*
X04062*
X0407Y02668*
X04078Y02672*
X04084Y02678*
X04088Y02686*
X04091Y02694*
Y02703*
X04088Y02711*
X04084Y02719*
X04078Y02725*
X04075Y02727*
X04068Y02733*
X04057Y0275*
X04053Y0277*
Y02779*
X0405Y02787*
X04046Y02795*
X0404Y02801*
X04032Y02805*
X04024Y02808*
X04015*
X04007Y02805*
X03999Y02801*
X03993Y02795*
X03989Y02787*
X03987Y02779*
Y0277*
X03989Y02762*
X03993Y02754*
X03999Y02748*
X04003Y02746*
X04006Y02743*
Y02686*
X03911Y02591*
X0391Y02591*
X03873Y02609*
Y02737*
Y0276*
X03872Y02763*
X03872*
X0387Y02765*
X03865Y0277*
X03863Y02772*
X0386Y02773*
X03837*
X03233*
X03229Y02777*
Y02786*
X03227Y02794*
X03223Y02802*
X03216Y02808*
X03209Y02812*
X032Y02815*
X03192*
X03183Y02812*
X03176Y02808*
X0317Y02802*
X03165Y02794*
X03165Y02793*
X03048*
X03044Y028*
X03038Y02806*
X0303Y0281*
X03022Y02813*
X03013*
X03005Y0281*
X02997Y02806*
X02991Y028*
X02987Y02792*
X02985Y02784*
Y02775*
X02983Y02773*
X02708*
X02285Y03195*
X02283Y03197*
X0228Y03198*
X01913*
Y03425*
X01912Y03428*
X0191Y0343*
X01875Y03465*
X01873Y03467*
X0187Y03468*
X01485*
X01481Y03467*
X01479Y03465*
X01477Y03463*
X01476Y0346*
X01438*
X01437Y03463*
X01435Y03465*
X01433Y03467*
X0143Y03468*
X01072*
X01045Y03503*
X01044Y03508*
X01047Y03514*
X01047Y03514*
X03054*
X03071Y03474*
X03013Y03417*
X03012Y03417*
X03*
X02988Y03414*
X02977Y03407*
X02968Y03399*
X02962Y03388*
X02959Y03376*
Y03363*
X02962Y03351*
X02968Y0334*
X02977Y03332*
X02978Y03331*
Y0314*
X02979Y03133*
X02982Y03126*
X02986Y0312*
X03023Y03083*
X03024Y03079*
X03029Y03071*
X03035Y03065*
X03042Y03061*
X03051Y03058*
X03059*
X03068Y03061*
X03075Y03065*
X03081Y03071*
X03086Y03079*
X03088Y03087*
Y03096*
X03086Y03104*
X03081Y03112*
X03075Y03118*
X03068Y03122*
X03063Y03123*
X03034Y03152*
Y03331*
X03035Y03332*
X03044Y0334*
X0305Y03351*
X03056Y03353*
X03098Y0335*
X03104Y03339*
X03113Y0333*
X03125Y03323*
X03137Y0332*
X03139*
Y0337*
X03144*
Y03375*
X03193*
Y03376*
X0319Y03389*
X03183Y034*
X03182Y03401*
X03191Y03434*
X03195Y0344*
X03233Y03439*
X03241Y03427*
X03246Y03401*
X03244Y03399*
X03237Y03388*
X03234Y03376*
Y03363*
X03237Y03351*
X03244Y0334*
X03252Y03332*
X03263Y03325*
X03275Y03322*
X03288*
X033Y03325*
X03311Y03332*
X03319Y0334*
X03326Y03351*
X03329Y03363*
Y03376*
X03326Y03388*
X03344Y0342*
X03349Y03425*
X03352Y03424*
X03356Y03421*
X03375Y03389*
X03375Y03387*
X03372Y03376*
Y03363*
X03375Y03351*
X03381Y0334*
X0339Y03332*
X03401Y03325*
X03413Y03322*
X03426*
X03438Y03325*
X03448Y03332*
X03457Y0334*
X03463Y03351*
X03467Y03363*
Y03376*
X03463Y03388*
X03457Y03399*
X03455Y03401*
X03456Y03408*
X03496Y03434*
X03499Y03433*
X03501Y0343*
X03513Y03392*
X03511Y03389*
X03508Y03376*
Y03375*
X03557*
X03607*
Y03376*
X03603Y03389*
X03597Y034*
X03595Y03401*
X03604Y03434*
X03608Y0344*
X03647Y03439*
X03654Y03427*
X0366Y03401*
X03657Y03399*
X03651Y03388*
X03648Y03376*
Y03363*
X03651Y03351*
X03657Y0334*
X03666Y03332*
X03677Y03325*
X03689Y03322*
X03701*
X03713Y03325*
X03724Y03332*
X03733Y0334*
X03739Y03351*
X03781Y03354*
X03789Y03351*
X03795Y0334*
X03804Y03332*
X03814Y03325*
X03826Y03322*
X03839*
X03851Y03325*
X03862Y03332*
X03871Y0334*
X03877Y03351*
X0388Y03363*
Y03376*
X03877Y03388*
X03871Y03399*
X03868Y03401*
X03873Y03427*
X03881Y03439*
X0392Y0344*
X03924Y03434*
X03932Y03401*
X03931Y034*
X03925Y03389*
X03921Y03376*
Y03375*
X03971*
X0402*
Y03376*
X04017Y03389*
X0401Y034*
X04009Y03401*
X04017Y03434*
X04022Y0344*
X0406Y03439*
X04068Y03427*
X04073Y03401*
X0407Y03399*
X04064Y03388*
X04061Y03376*
Y03363*
X04064Y03351*
X0407Y0334*
X04079Y03332*
X0409Y03325*
X04102Y03322*
X04115*
X04127Y03325*
X04137Y03332*
X04146Y0334*
X04152Y03351*
X04194Y03354*
X04202Y03351*
X04208Y0334*
X04217Y03332*
X04228Y03325*
X0424Y03322*
X04252*
X04264Y03325*
X04275Y03332*
X04284Y0334*
X0429Y03351*
X04293Y03363*
Y03376*
X0429Y03388*
X04284Y03399*
X04281Y03401*
X04287Y03427*
X04294Y03439*
X04333Y0344*
X04337Y03434*
X04346Y03401*
X04344Y034*
X04338Y03389*
X04335Y03376*
Y03375*
X04384*
Y0337*
Y03375*
X04433*
Y03376*
X0443Y03389*
X04423Y034*
X04422Y03401*
X04431Y03434*
X04435Y0344*
X04473Y03439*
X04481Y03427*
X04486Y03401*
X04484Y03399*
X04478Y03388*
X04474Y03376*
Y03363*
X04478Y03351*
X04484Y0334*
X04493Y03332*
X04503Y03325*
X04515Y03322*
X04528*
X0454Y03325*
X04551Y03332*
X0456Y0334*
X04566Y03351*
X04608Y03354*
X04615Y03351*
X04622Y0334*
X0463Y03332*
X04641Y03325*
X04653Y03322*
X04666*
X04678Y03325*
X04689Y03332*
X04697Y0334*
X04704Y03351*
X04707Y03363*
Y03376*
X04704Y03388*
X04697Y03399*
X04689Y03407*
X04678Y03414*
X04666Y03417*
X04653*
X04652Y03417*
X04595Y03474*
X04611Y03514*
X04749*
Y02995*
G37*
G36*
X0143Y0303D02*
X0216D01*
X0255Y0264*
Y01695*
X02382Y01527*
X02318Y01527*
X02317Y01531*
X02311Y01542*
X02302Y01551*
X02291Y01557*
X02279Y0156*
X02266*
X02254Y01557*
X02243Y01551*
X02234Y01542*
X02228Y01531*
X02227Y01526*
X0145Y01523*
Y0119*
X0118*
X0114Y0123*
Y0127*
X01175Y01305*
X01315*
Y01522*
X01228Y01522*
X01225Y01525*
Y0166*
X0212*
X0215Y0169*
Y0271*
X01995Y02865*
X01095*
X0104Y0292*
Y03015*
X01045Y03017*
X01049Y03008*
X01058Y02999*
X01069Y02993*
X01081Y0299*
X01094*
X01106Y02993*
X01117Y02999*
X01126Y03008*
X01132Y03019*
X01135Y03031*
Y03044*
X01132Y03056*
X01126Y03067*
X01117Y03076*
X01106Y03082*
X01094Y03085*
X01081*
X01069Y03082*
X01058Y03076*
X01049Y03067*
X01045Y03058*
X0104Y0306*
Y0346*
X0143*
Y0303*
G37*
G36*
X01905Y03425D02*
Y0319D01*
X0228*
X02705Y02765*
X02988*
X02991Y02759*
X02997Y02753*
X03005Y02749*
X03009Y02748*
X03009Y02743*
X02987*
X02986Y02745*
X0298Y02751*
X02972Y02755*
X02964Y02758*
X02955*
X02947Y02755*
X02939Y02751*
X02933Y02745*
X02929Y02737*
X02927Y02729*
Y0272*
X02929Y02712*
X02933Y02704*
X02939Y02698*
X02947Y02694*
X02955Y02692*
X02964*
X02972Y02694*
X0298Y02698*
X02986Y02704*
X0299Y02712*
X02991Y02716*
X03109*
X03113Y02709*
X03119Y02703*
X03127Y02699*
X03135Y02697*
X03144*
X03152Y02699*
X0316Y02703*
X03166Y02709*
X0317Y02717*
X03173Y02725*
Y02734*
X0317Y02742*
X03166Y0275*
X0316Y02756*
X03154Y0276*
X03155Y02765*
X03168*
X0317Y02761*
X03176Y02755*
X03183Y02751*
X03192Y02749*
X032*
X03209Y02751*
X03216Y02755*
X03223Y02761*
X03224Y02765*
X0386*
X03865Y0276*
Y02595*
X0371Y0244*
X02825*
Y0196*
X02936Y01848*
X02935Y01846*
X02928Y01839*
X02923Y0183*
X0292Y0182*
Y0182*
X0296*
Y01815*
X02965*
Y01775*
X02965*
X02975Y01778*
X02984Y01783*
X02991Y0179*
X02993Y01791*
X03155Y0163*
X0392*
Y01416*
X03915Y01414*
X039Y0143*
X03629*
X03627Y0143*
X03619Y01433*
X0361*
X03602Y0143*
X036Y0143*
X026*
X02578Y01408*
X02573Y01412*
X02566Y01417*
X02557Y01419*
X02549*
X0254Y01417*
X02533Y01412*
X02527Y01406*
X02522Y01399*
X0252Y0139*
Y01382*
X02522Y01373*
X02527Y01366*
X02531Y01361*
X0245Y0128*
X01495*
Y0149*
X02231*
X02234Y01483*
X02243Y01474*
X02254Y01468*
X02266Y01465*
X02279*
X02291Y01468*
X02302Y01474*
X02311Y01483*
X02314Y0149*
X024*
X02635Y01725*
X02625Y01735*
Y02423*
X02627Y02424*
X02636Y02433*
X02642Y02444*
X02645Y02456*
Y02469*
X02642Y02481*
X02636Y02492*
X02627Y02501*
X02625Y02502*
Y02675*
X02235Y03065*
X01485*
Y0346*
X0187*
X01905Y03425*
G37*
%LNlayout-2*%
%LPC*%
G36*
X02725Y03419D02*
X02724D01*
X02711Y03416*
X027Y03409*
X02691Y034*
X02686Y03391*
X02661Y03385*
X02637Y03391*
X02632Y034*
X02623Y03409*
X02612Y03416*
X02599Y03419*
X02598*
Y0337*
Y0332*
X02599*
X02612Y03323*
X02623Y0333*
X02632Y03339*
X02637Y03348*
X02661Y03354*
X02686Y03348*
X02691Y03339*
X027Y0333*
X02711Y03323*
X02724Y0332*
X02725*
Y0337*
Y03419*
G37*
G36*
X02165D02*
X02163D01*
X0215Y03416*
X02139Y03409*
X0213Y034*
X02125Y03391*
X02101Y03385*
X02076Y03391*
X02071Y034*
X02062Y03409*
X02051Y03416*
X02038Y03419*
X02037*
Y0337*
Y0332*
X02038*
X02051Y03323*
X02062Y0333*
X02071Y03339*
X02076Y03348*
X02101Y03354*
X02125Y03348*
X0213Y03339*
X02139Y0333*
X0215Y03323*
X02163Y0332*
X02165*
Y0337*
Y03419*
G37*
G36*
X02176D02*
X02175D01*
Y03375*
X02219*
Y03376*
X02216Y03389*
X02209Y034*
X022Y03409*
X02189Y03416*
X02176Y03419*
G37*
G36*
X02737D02*
X02735D01*
Y03375*
X0278*
Y03376*
X02776Y03389*
X0277Y034*
X02761Y03409*
X02749Y03416*
X02737Y03419*
G37*
G36*
X02588D02*
X02586D01*
X02574Y03416*
X02562Y03409*
X02553Y034*
X02547Y03389*
X02543Y03376*
Y03375*
X02588*
Y03419*
G37*
G36*
X02027D02*
X02025D01*
X02013Y03416*
X02001Y03409*
X01992Y034*
X01986Y03389*
X01982Y03376*
Y03375*
X02027*
Y03419*
G37*
G36*
X04433Y03365D02*
X04389D01*
Y0332*
X0439*
X04403Y03323*
X04414Y0333*
X04423Y03339*
X0443Y0335*
X04433Y03363*
Y03365*
G37*
G36*
X04379D02*
X04335D01*
Y03363*
X04338Y0335*
X04344Y03339*
X04354Y0333*
X04365Y03323*
X04377Y0332*
X04379*
Y03365*
G37*
G36*
X0402D02*
X03976D01*
Y0332*
X03977*
X0399Y03323*
X04001Y0333*
X0401Y03339*
X04017Y0335*
X0402Y03363*
Y03365*
G37*
G36*
X03966D02*
X03921D01*
Y03363*
X03925Y0335*
X03931Y03339*
X0394Y0333*
X03951Y03323*
X03964Y0332*
X03966*
Y03365*
G37*
G36*
X03607D02*
X03562D01*
Y0332*
X03564*
X03576Y03323*
X03587Y0333*
X03597Y03339*
X03603Y0335*
X03607Y03363*
Y03365*
G37*
G36*
X03552D02*
X03508D01*
Y03363*
X03511Y0335*
X03518Y03339*
X03527Y0333*
X03538Y03323*
X03551Y0332*
X03552*
Y03365*
G37*
G36*
X03193D02*
X03149D01*
Y0332*
X0315*
X03163Y03323*
X03174Y0333*
X03183Y03339*
X0319Y0335*
X03193Y03363*
Y03365*
G37*
G36*
X0278D02*
X02735D01*
Y0332*
X02737*
X02749Y03323*
X02761Y0333*
X0277Y03339*
X02776Y0335*
X0278Y03363*
Y03365*
G37*
G36*
X02588D02*
X02543D01*
Y03363*
X02547Y0335*
X02553Y03339*
X02562Y0333*
X02574Y03323*
X02586Y0332*
X02588*
Y03365*
G37*
G36*
X02219D02*
X02175D01*
Y0332*
X02176*
X02189Y03323*
X022Y0333*
X02209Y03339*
X02216Y0335*
X02219Y03363*
Y03365*
G37*
G36*
X02027D02*
X01982D01*
Y03363*
X01986Y0335*
X01992Y03339*
X02001Y0333*
X02013Y03323*
X02025Y0332*
X02027*
Y03365*
G37*
G36*
X02874Y03417D02*
X02862D01*
X0285Y03414*
X02839Y03407*
X0283Y03399*
X02824Y03388*
X02821Y03376*
Y03363*
X02824Y03351*
X0283Y0334*
X02839Y03332*
X0285Y03325*
X0285Y03325*
X02862Y03322*
X02876Y03318*
X02889Y03285*
Y0327*
Y03215*
X02882Y03211*
X02876Y03205*
X02872Y03198*
X0287Y03189*
Y0318*
X02872Y03172*
X02876Y03165*
X02882Y03158*
X0289Y03154*
X02898Y03152*
X02907*
X02915Y03154*
X02923Y03158*
X02929Y03165*
X02933Y03172*
X02936Y0318*
Y03189*
X02933Y03198*
X02929Y03205*
X02923Y03211*
X02916Y03215*
Y03276*
Y03326*
Y03326*
Y03335*
X02916Y03335*
X02916Y03366*
Y03376*
X02912Y03388*
X02906Y03399*
X02897Y03407*
X02886Y03414*
X02874Y03417*
G37*
G36*
X04499Y03025D02*
X04486D01*
X04474Y03022*
X04463Y03016*
X04454Y03007*
X04448Y02996*
X04445Y02984*
Y02971*
X04448Y02959*
X04454Y02948*
X04463Y02939*
X04474Y02933*
X04486Y0293*
X04499*
X04511Y02933*
X04522Y02939*
X04531Y02948*
X04537Y02959*
X0454Y02971*
Y02984*
X04537Y02996*
X04531Y03007*
X04522Y03016*
X04511Y03022*
X04499Y03025*
G37*
G36*
X03929Y03057D02*
X0392D01*
X03912Y03055*
X03904Y03051*
X03898Y03044*
X03894Y03037*
X03892Y03028*
Y0302*
X03894Y03011*
X03894Y03011*
X039Y02998*
X03909Y02978*
X0391Y02962*
X03907Y02953*
X03905Y02946*
X03903Y02938*
X03903Y02938*
Y02929*
X03905Y02921*
X03909Y02913*
X03915Y02907*
X03923Y02903*
X03931Y02901*
X0394*
X03948Y02903*
X03956Y02907*
X03962Y02913*
X03966Y02921*
X03969Y02929*
Y02937*
Y02938*
X03966Y02946*
X03966*
X03962Y02954*
X03956Y0296*
X03949Y02969*
X03951Y0299*
X03957Y03017*
X03958Y0302*
Y03028*
X03955Y03037*
X03951Y03044*
X03945Y03051*
X03937Y03055*
X03929Y03057*
G37*
G36*
X0199Y02744D02*
X0199D01*
Y0271*
X02024*
Y0271*
X02021Y0272*
X02016Y02729*
X02009Y02736*
X02Y02741*
X0199Y02744*
G37*
G36*
X02024Y027D02*
X0199D01*
Y02665*
X0199*
X02Y02668*
X02009Y02673*
X02016Y0268*
X02021Y02689*
X02024Y02699*
Y027*
G37*
G36*
X03394Y02048D02*
X03385D01*
X03377Y02045*
X03369Y02041*
X03363Y02035*
X03359Y02027*
X03357Y02019*
Y0201*
X03357Y02008*
X03246Y01897*
X03232Y01882*
X03231Y01882*
X03228Y01877*
X03226Y0187*
X03226Y0187*
Y01805*
Y01792*
X03224Y01791*
X03218Y01785*
X03214Y01777*
X03212Y01769*
Y0176*
X03214Y01752*
X03218Y01744*
X03224Y01738*
X03232Y01734*
X0324Y01732*
X03249*
X03257Y01734*
X03265Y01738*
X03268Y01741*
X03268Y01741*
X03289*
X03302*
X03447*
X03448Y01739*
X03454Y01733*
X03462Y01729*
X0347Y01727*
X03479*
X03479*
X03487Y01729*
X03495Y01733*
X03501Y01739*
X03505Y01747*
X03508Y01755*
Y01764*
X03505Y01772*
X03501Y0178*
X03495Y01786*
X03487Y0179*
X03479Y01793*
X03479*
X0347*
X03462Y0179*
X03454Y01786*
X03449Y0178*
X03448Y0178*
X03447Y01778*
X03297*
X03294Y01781*
X03266Y01809*
X03263Y01813*
Y01862*
X03274Y01873*
X03383Y01982*
X03385Y01982*
X03386*
X03394*
X03402Y01984*
X0341Y01988*
X03416Y01994*
X0342Y02002*
X03423Y0201*
Y02019*
X0342Y02027*
X03416Y02035*
X0341Y02041*
X03402Y02045*
X03394Y02048*
G37*
G36*
X01597Y02033D02*
X01588D01*
X0158Y0203*
X01572Y02026*
X01566Y0202*
X01562Y02012*
X01559Y02004*
Y01995*
X01562Y01987*
X01565Y01982*
X01562Y01963*
X01557Y0195*
X01551Y0194*
X01551Y0194*
X01543Y01935*
X01537Y01929*
X01533Y01922*
X0153Y01913*
Y01905*
X01533Y01896*
X01537Y01889*
X01543Y01883*
X01543Y0188*
X01545Y01853*
X01541Y01838*
X01527Y01828*
X01518Y01828*
X01512Y0183*
X01508Y01835*
X01499Y01839*
X01489Y01842*
X0148*
X0147Y01839*
X01461Y01835*
X01457Y0183*
X01451Y01828*
X01435Y01828*
X01418Y01828*
X01412Y0183*
X01408Y01835*
X01399Y01839*
X01389Y01842*
X0138*
X0137Y01839*
X01361Y01835*
X01357Y0183*
X01351Y01828*
X01335Y01828*
X01318Y01828*
X01312Y0183*
X01308Y01835*
X01299Y01839*
X01289Y01842*
X0128*
X0127Y01839*
X01261Y01835*
X01259Y01832*
X01254Y0183*
X01233Y01829*
X01216Y01831*
X01213Y01832*
X01209Y01836*
X012Y01841*
X0119Y01844*
X0119*
Y01805*
Y01765*
X0119*
X012Y01768*
X01209Y01773*
X01213Y01777*
X01216Y01778*
X01233Y0178*
X01254Y01779*
X01259Y01777*
X01261Y01774*
X0127Y0177*
X0128Y01767*
X01289*
X01299Y0177*
X01308Y01774*
X01312Y01779*
X01318Y01781*
X01335Y01781*
X01351Y01781*
X01357Y01779*
X01361Y01774*
X0137Y0177*
X0138Y01767*
X01389*
X01399Y0177*
X01408Y01774*
X01412Y01779*
X01418Y01781*
X01435Y01781*
X01451Y01781*
X01457Y01779*
X01461Y01774*
X0147Y0177*
X0148Y01767*
X01489*
X01499Y0177*
X01508Y01774*
X01512Y01779*
X01518Y01781*
X01535Y01781*
X01551Y01781*
X01557Y01779*
X01561Y01774*
X0157Y0177*
X0158Y01767*
X01589*
X01599Y0177*
X01608Y01774*
X01612Y01779*
X01618Y01781*
X01635Y01781*
X01651Y01781*
X01657Y01779*
X01661Y01774*
X0167Y0177*
X0168Y01767*
X01689*
X01699Y0177*
X01708Y01774*
X01712Y01779*
X01718Y01781*
X01735Y01781*
X01751Y01781*
X01757Y01779*
X01761Y01774*
X0177Y0177*
X0178Y01767*
X01789*
X01799Y0177*
X01808Y01774*
X01812Y01779*
X01818Y01781*
X01835Y01781*
X01851Y01781*
X01857Y01779*
X01861Y01774*
X0187Y0177*
X0188Y01767*
X01889*
X01899Y0177*
X01908Y01774*
X01912Y01779*
X01918Y01781*
X01935Y01781*
X01951Y01781*
X01957Y01779*
X01961Y01774*
X0197Y0177*
X0198Y01767*
X01989*
X01999Y0177*
X02008Y01774*
X02015Y01781*
X02019Y0179*
X02022Y018*
Y01809*
X02019Y01819*
X02015Y01828*
X02008Y01835*
X01999Y01839*
X01989Y01842*
X0198*
X0197Y01839*
X01961Y01835*
X01957Y0183*
X01951Y01828*
X01935Y01828*
X01918Y01828*
X01912Y0183*
X01908Y01835*
X01899Y01839*
X01889Y01842*
X0188*
X0187Y01839*
X01861Y01835*
X01857Y0183*
X01851Y01828*
X01835Y01828*
X01818Y01828*
X01812Y0183*
X01808Y01835*
X01799Y01839*
X01789Y01842*
X0178*
X0177Y01839*
X01761Y01835*
X01757Y0183*
X01751Y01828*
X01735Y01828*
X01718Y01828*
X01712Y0183*
X01708Y01835*
X01699Y01839*
X01689Y01842*
X0168*
X0167Y01839*
X01661Y01835*
X01657Y0183*
X01651Y01828*
X01635Y01828*
X01618Y01828*
X01612Y0183*
X01608Y01835*
X01599Y01839*
X01595Y01841*
X01594Y01842*
X0159Y01844*
X01585Y01883*
X0159Y01889*
X01594Y01896*
X01596Y01905*
Y01913*
X01594Y01921*
X01604Y01931*
X01607Y01935*
X01608Y0194*
Y0197*
X0161Y01971*
X01613Y01973*
X01619Y01979*
X01623Y01987*
X01625Y01995*
Y02004*
X01623Y02012*
X01619Y0202*
X01613Y02026*
X01605Y0203*
X01597Y02033*
G37*
G36*
X03099Y01854D02*
X03065D01*
Y0182*
X03099*
Y01854*
G37*
G36*
X04884Y01725D02*
X0485D01*
Y0169*
X0485*
X0486Y01693*
X04869Y01698*
X04876Y01705*
X04881Y01714*
X04884Y01724*
Y01725*
G37*
G36*
X0544Y01204D02*
X05439D01*
X05426Y01201*
X05415Y01194*
X05406Y01185*
X05399Y01174*
X05396Y01161*
Y0116*
X0544*
Y01204*
G37*
G36*
X05027D02*
X05026D01*
X05013Y01201*
X05002Y01194*
X04993Y01185*
X04986Y01174*
X04983Y01161*
Y0116*
X05027*
Y01204*
G37*
G36*
X0435D02*
X04348D01*
Y0116*
X04392*
Y01161*
X04389Y01174*
X04383Y01185*
X04373Y01194*
X04362Y01201*
X0435Y01204*
G37*
G36*
X04338D02*
X04337D01*
X04324Y01201*
X04313Y01194*
X04304Y01185*
X04297Y01174*
X04294Y01161*
Y0116*
X04338*
Y01204*
G37*
G36*
X03247D02*
X03246D01*
Y0116*
X0329*
Y01161*
X03287Y01174*
X0328Y01185*
X03271Y01194*
X0326Y01201*
X03247Y01204*
G37*
G36*
X03236D02*
X03234D01*
X03222Y01201*
X0321Y01194*
X03201Y01185*
X03195Y01174*
X03191Y01161*
Y0116*
X03236*
Y01204*
G37*
G36*
X02152D02*
X0215D01*
Y0116*
X02194*
Y01161*
X02191Y01174*
X02185Y01185*
X02175Y01194*
X02164Y01201*
X02152Y01204*
G37*
G36*
X0214D02*
X02139D01*
X02126Y01201*
X02115Y01194*
X02106Y01185*
X02099Y01174*
X02096Y01161*
Y0116*
X0214*
Y01204*
G37*
G36*
X05314Y01202D02*
X05301D01*
X05289Y01199*
X05279Y01192*
X0527Y01184*
X05263Y01173*
X0526Y01161*
Y01148*
X05263Y01136*
X0527Y01125*
X05279Y01117*
X05289Y0111*
X05301Y01107*
X05314*
X05326Y0111*
X05337Y01117*
X05346Y01125*
X05352Y01136*
X05355Y01148*
Y01161*
X05352Y01173*
X05346Y01184*
X05337Y01192*
X05326Y01199*
X05314Y01202*
G37*
G36*
X04895Y01301D02*
X04886D01*
X04878Y01299*
X0487Y01295*
X04864Y01288*
X0486Y01281*
X04857Y01272*
Y01264*
X0486Y01255*
X04864Y01248*
X04869Y01243*
X0487Y01242*
X0487Y01242*
X04877Y01238*
X04878Y01232*
X04876Y012*
X04876Y01199*
X04871Y01196*
X04865Y01192*
X04856Y01184*
X0485Y01173*
X04847Y01161*
Y01148*
X0485Y01136*
X04856Y01125*
X04865Y01117*
X04876Y0111*
X04888Y01107*
X049*
X04913Y0111*
X04923Y01117*
X04932Y01125*
X04938Y01136*
X04942Y01148*
Y01161*
X04938Y01173*
X04932Y01184*
X04923Y01192*
X04913Y01199*
X04909Y01201*
X04909Y0124*
X04911Y01242*
X04917Y01248*
X04921Y01255*
X04923Y01264*
Y01272*
X04921Y01281*
X04917Y01288*
X04911Y01295*
X04903Y01299*
X04895Y01301*
G37*
G36*
X04211Y01202D02*
X04199D01*
X04187Y01199*
X04176Y01192*
X04167Y01184*
X04161Y01173*
X04158Y01161*
Y01148*
X04161Y01136*
X04167Y01125*
X04176Y01117*
X04187Y0111*
X04199Y01107*
X04211*
X04224Y0111*
X04234Y01117*
X04243Y01125*
X04249Y01136*
X04253Y01148*
Y01161*
X04249Y01173*
X04243Y01184*
X04234Y01192*
X04224Y01199*
X04211Y01202*
G37*
G36*
X03109D02*
X03097D01*
X03085Y01199*
X03074Y01192*
X03065Y01184*
X03059Y01173*
X03056Y01161*
Y01148*
X03059Y01136*
X03065Y01125*
X03074Y01117*
X03085Y0111*
X03097Y01107*
X03109*
X03121Y0111*
X03132Y01117*
X03141Y01125*
X03147Y01136*
X0315Y01148*
Y01161*
X03147Y01173*
X03141Y01184*
X03132Y01192*
X03121Y01199*
X03109Y01202*
G37*
G36*
X02014D02*
X02001D01*
X01989Y01199*
X01978Y01192*
X01969Y01184*
X01963Y01173*
X0196Y01161*
Y01148*
X01963Y01136*
X01969Y01125*
X01978Y01117*
X01989Y0111*
X02001Y01107*
X02014*
X02026Y0111*
X02036Y01117*
X02045Y01125*
X02051Y01136*
X02055Y01148*
Y01161*
X02051Y01173*
X02045Y01184*
X02036Y01192*
X02026Y01199*
X02014Y01202*
G37*
G36*
X01876D02*
X01863D01*
X01851Y01199*
X0184Y01192*
X01832Y01184*
X01825Y01173*
X01822Y01161*
Y01148*
X01825Y01136*
X01832Y01125*
X0184Y01117*
X01851Y0111*
X01863Y01107*
X01876*
X01888Y0111*
X01899Y01117*
X01907Y01125*
X01914Y01136*
X01917Y01148*
Y01161*
X01914Y01173*
X01907Y01184*
X01899Y01192*
X01888Y01199*
X01876Y01202*
G37*
G36*
X01738D02*
X01725D01*
X01713Y01199*
X01703Y01192*
X01694Y01184*
X01688Y01173*
X01684Y01161*
Y01148*
X01688Y01136*
X01694Y01125*
X01703Y01117*
X01713Y0111*
X01725Y01107*
X01738*
X0175Y0111*
X01761Y01117*
X0177Y01125*
X01776Y01136*
X01779Y01148*
Y01161*
X01776Y01173*
X0177Y01184*
X01761Y01192*
X0175Y01199*
X01738Y01202*
G37*
G36*
X0544Y0115D02*
X05396D01*
Y01148*
X05399Y01135*
X05406Y01124*
X05415Y01115*
X05426Y01108*
X05439Y01105*
X0544*
Y0115*
G37*
G36*
X04392D02*
X04348D01*
Y01105*
X0435*
X04362Y01108*
X04373Y01115*
X04383Y01124*
X04389Y01135*
X04392Y01148*
Y0115*
G37*
G36*
X04338D02*
X04294D01*
Y01148*
X04297Y01135*
X04304Y01124*
X04313Y01115*
X04324Y01108*
X04337Y01105*
X04338*
Y0115*
G37*
G36*
X0329D02*
X03246D01*
Y01105*
X03247*
X0326Y01108*
X03271Y01115*
X0328Y01124*
X03287Y01135*
X0329Y01148*
Y0115*
G37*
G36*
X03236D02*
X03191D01*
Y01148*
X03195Y01135*
X03201Y01124*
X0321Y01115*
X03222Y01108*
X03234Y01105*
X03236*
Y0115*
G37*
G36*
X02194D02*
X0215D01*
Y01105*
X02152*
X02164Y01108*
X02175Y01115*
X02185Y01124*
X02191Y01135*
X02194Y01148*
Y0115*
G37*
G36*
X0214D02*
X02096D01*
Y01148*
X02099Y01135*
X02106Y01124*
X02115Y01115*
X02126Y01108*
X02139Y01105*
X0214*
Y0115*
G37*
G36*
X01286Y03419D02*
X01285D01*
Y03375*
X01329*
Y03376*
X01326Y03389*
X01319Y034*
X0131Y03409*
X01299Y03416*
X01286Y03419*
G37*
G36*
X01148D02*
X01147D01*
Y03375*
X01191*
Y03376*
X01188Y03389*
X01181Y034*
X01172Y03409*
X01161Y03416*
X01148Y03419*
G37*
G36*
X01275D02*
X01273D01*
X0126Y03416*
X01249Y03409*
X0124Y034*
X01233Y03389*
X0123Y03376*
Y03375*
X01275*
Y03419*
G37*
G36*
X01137D02*
X01135D01*
X01123Y03416*
X01111Y03409*
X01102Y034*
X01096Y03389*
X01092Y03376*
Y03375*
X01137*
Y03419*
G37*
G36*
X01329Y03365D02*
X01285D01*
Y0332*
X01286*
X01299Y03323*
X0131Y0333*
X01319Y03339*
X01326Y0335*
X01329Y03363*
Y03365*
G37*
G36*
X01275D02*
X0123D01*
Y03363*
X01233Y0335*
X0124Y03339*
X01249Y0333*
X0126Y03323*
X01273Y0332*
X01275*
Y03365*
G37*
G36*
X01191D02*
X01147D01*
Y0332*
X01148*
X01161Y03323*
X01172Y0333*
X01181Y03339*
X01188Y0335*
X01191Y03363*
Y03365*
G37*
G36*
X01137D02*
X01092D01*
Y03363*
X01096Y0335*
X01102Y03339*
X01111Y0333*
X01123Y03323*
X01135Y0332*
X01137*
Y03365*
G37*
G36*
X01721Y03419D02*
X0172D01*
Y03375*
X01764*
Y03376*
X01761Y03389*
X01754Y034*
X01745Y03409*
X01734Y03416*
X01721Y03419*
G37*
G36*
X01583D02*
X01582D01*
Y03375*
X01626*
Y03376*
X01623Y03389*
X01616Y034*
X01607Y03409*
X01596Y03416*
X01583Y03419*
G37*
G36*
X0171D02*
X01708D01*
X01695Y03416*
X01684Y03409*
X01675Y034*
X01668Y03389*
X01665Y03376*
Y03375*
X0171*
Y03419*
G37*
G36*
X01572D02*
X0157D01*
X01558Y03416*
X01546Y03409*
X01537Y034*
X01531Y03389*
X01527Y03376*
Y03375*
X01572*
Y03419*
G37*
G36*
X01764Y03365D02*
X0172D01*
Y0332*
X01721*
X01734Y03323*
X01745Y0333*
X01754Y03339*
X01761Y0335*
X01764Y03363*
Y03365*
G37*
G36*
X0171D02*
X01665D01*
Y03363*
X01668Y0335*
X01675Y03339*
X01684Y0333*
X01695Y03323*
X01708Y0332*
X0171*
Y03365*
G37*
G36*
X01626D02*
X01582D01*
Y0332*
X01583*
X01596Y03323*
X01607Y0333*
X01616Y03339*
X01623Y0335*
X01626Y03363*
Y03365*
G37*
G36*
X01572D02*
X01527D01*
Y03363*
X01531Y0335*
X01537Y03339*
X01546Y0333*
X01558Y03323*
X0157Y0332*
X01572*
Y03365*
G37*
G36*
X03099Y02698D02*
X0309D01*
X03082Y02696*
X03074Y02692*
X03068Y02686*
X03064Y02678*
X03064Y02677*
X02915*
X02911Y02684*
X02905Y0269*
X02897Y02694*
X02889Y02696*
X0288*
X02872Y02694*
X02864Y0269*
X02858Y02684*
X02854Y02676*
X02851Y02668*
Y02659*
X02854Y02651*
X02858Y02643*
X02864Y02637*
X02872Y02633*
X0288Y0263*
X02889*
X02897Y02633*
X02905Y02637*
X02911Y02643*
X02915Y0265*
X03066*
X03068Y02645*
X03074Y02639*
X03082Y02635*
X0309Y02632*
X03099*
X03107Y02635*
X03115Y02639*
X03121Y02645*
X03126Y02653*
X03128Y02661*
Y0267*
X03126Y02678*
X03121Y02686*
X03115Y02692*
X03107Y02696*
X03099Y02698*
G37*
G36*
X03259Y02643D02*
X0325D01*
X03242Y0264*
X03234Y02636*
X03233Y02634*
X03232Y02634*
X03195*
X0319Y02633*
X03186Y0263*
X03178Y02623*
X03005*
X02999Y02622*
X02995Y02619*
X02994Y02618*
X0285*
X02846Y02625*
X0284Y02631*
X02832Y02635*
X02824Y02638*
X02815*
X02807Y02635*
X02799Y02631*
X02793Y02625*
X02789Y02617*
X02787Y02609*
Y026*
X02789Y02592*
X02793Y02584*
X02799Y02578*
X02807Y02574*
X02815Y02572*
X02824*
X02832Y02574*
X0284Y02578*
X02846Y02584*
X0285Y02591*
X03*
X03005Y02592*
X03009Y02595*
X0301Y02596*
X03184*
X03189Y02597*
X03193Y026*
X03201Y02608*
X03222*
Y02605*
X03224Y02597*
X03228Y02589*
X03234Y02583*
X03242Y02579*
X0325Y02577*
X03259*
X03267Y02579*
X03275Y02583*
X03281Y02589*
X03285Y02597*
X03288Y02605*
Y02614*
X03285Y02622*
X03281Y0263*
X03275Y02636*
X03267Y0264*
X03259Y02643*
G37*
G36*
X02955Y0181D02*
X0292D01*
Y01809*
X02923Y01799*
X02928Y0179*
X02935Y01783*
X02944Y01778*
X02954Y01775*
X02955*
Y0181*
G37*
G36*
X02934Y01753D02*
X02925D01*
X02917Y0175*
X02909Y01746*
X02903Y0174*
X02899Y01732*
X02897Y01724*
Y01715*
X02899Y01707*
X02903Y01699*
X02909Y01693*
X02916Y01689*
Y01635*
X02909Y01631*
X02903Y01625*
X02899Y01617*
X02897Y01609*
Y016*
X02899Y01592*
X02903Y01584*
X02909Y01578*
X02917Y01574*
X02925Y01572*
X02934*
X02942Y01574*
X0295Y01578*
X02956Y01584*
X0296Y01592*
X02963Y016*
Y01609*
X0296Y01617*
X02956Y01625*
X0295Y01631*
X02943Y01635*
Y01689*
X0295Y01693*
X02956Y01699*
X0296Y01707*
X02963Y01715*
Y01724*
X0296Y01732*
X02956Y0174*
X0295Y01746*
X02942Y0175*
X02934Y01753*
G37*
%LNlayout-3*%
%LPD*%
G54D12*
X02899Y01275D02*
X02902Y01272D01*
X02899Y01275D02*
Y01308D01*
X0293Y01339*
X02798Y01368D02*
X02798Y01368D01*
Y01317D02*
Y01368D01*
X0293Y01339D02*
Y0138D01*
X0272Y0124D02*
X02798Y01317D01*
X0272Y0124D02*
X0272D01*
X02682Y01341D02*
X0271Y01369D01*
X02682Y01163D02*
Y01341D01*
Y01163D02*
X0269Y01155D01*
X0271Y01369D02*
Y0137D01*
X0379Y01308D02*
X03791Y01306D01*
Y01156D02*
Y01306D01*
X0452Y01325D02*
X04676Y01481D01*
X044Y01325D02*
X0452D01*
X04381Y01305D02*
X044Y01325D01*
X04374Y01305D02*
X04381D01*
X04305Y0136D02*
X04445D01*
Y0145*
X04343Y01551D02*
X04445Y0145D01*
X03791Y01156D02*
X03792Y01155D01*
X04039Y02654D02*
Y02669D01*
X04058Y02688D02*
Y02699D01*
X0392Y02535D02*
X04039Y02654D01*
Y02669D02*
X04058Y02688D01*
X0392Y023D02*
Y02535D01*
X0402Y0268D02*
Y02775D01*
X03871Y02532D02*
X0402Y0268D01*
X03871Y02532D02*
D01*
X03819Y02479D02*
X03871Y02532D01*
X03819Y0235D02*
X03849Y0232D01*
X03819Y0235D02*
Y02479D01*
X03849Y02295D02*
X03855Y0229D01*
X03849Y02295D02*
Y0232D01*
X01099Y02719D02*
Y02743D01*
X01165Y0281*
X01085Y02705D02*
X01099Y02719D01*
X01022Y01438D02*
Y02267D01*
Y01438D02*
X0106Y014D01*
X01085Y0163D02*
X01135Y0168D01*
Y0187*
X01091Y01913D02*
X01135Y0187D01*
X01091Y01913D02*
Y02136D01*
X01061Y0151D02*
Y01553D01*
X0106Y01508D02*
X01061Y0151D01*
X01042Y01572D02*
X01061Y01553D01*
X01042Y01572D02*
Y01839D01*
X01022Y02267D02*
X01165Y0241D01*
X01091Y02136D02*
X01295Y0234D01*
X01165Y0241D02*
X0139D01*
X0293Y01605D02*
Y0172D01*
X02965Y0273D02*
X0314D01*
X0296Y02725D02*
X02965Y0273D01*
X03193Y0278D02*
X03195Y02782D01*
X03196*
X03018Y0278D02*
X03193D01*
X03244Y0261D02*
X03255D01*
X03232Y02621D02*
X03244Y0261D01*
X03195Y02621D02*
X03232D01*
X03184Y0261D02*
X03195Y02621D01*
X03005Y0261D02*
X03184D01*
X04894Y01155D02*
Y01264D01*
X0489Y01268D02*
X04894Y01264D01*
X03925Y03013D02*
X03936Y03002D01*
Y02934D02*
Y03002D01*
X03925Y03013D02*
Y03024D01*
X03093Y02663D02*
X03095Y02665D01*
X02884Y02663D02*
X03093D01*
X01595Y0194D02*
Y02D01*
X01592Y02D02*
X01593Y02D01*
X01595*
X01563Y01909D02*
X01595Y0194D01*
X0282Y02605D02*
X03D01*
X03005Y0261*
X01585Y02705D02*
X01595D01*
X04069Y0192D02*
X04084Y01935D01*
X04095*
X0397Y0192D02*
X04069D01*
X02903Y03185D02*
Y03335D01*
X02868Y0337D02*
X02903Y03335D01*
X01375Y0281D02*
X0138Y02805D01*
X01384Y02809D02*
Y02813D01*
X0138Y02805D02*
X01384Y02809D01*
X01165Y0281D02*
X01375D01*
X01042Y01839D02*
X01055Y01852D01*
Y02214*
X01215Y02375*
X0152Y0234D02*
X01885Y02705D01*
X01295Y0234D02*
X0152D01*
X01455Y02375D02*
X01785Y02705D01*
X01215Y02375D02*
X01455D01*
X01785Y02705D02*
D01*
X0139Y0241D02*
X01685Y02705D01*
G54D13*
X02552Y01155D02*
Y01385D01*
X02553Y01386*
X03615Y01196D02*
Y014D01*
Y01196D02*
X03654Y01156D01*
X04008Y01535D02*
X04285D01*
X04355Y01465*
X03987Y01537D02*
X04005D01*
X03981Y01543D02*
X03987Y01537D01*
X04005D02*
X04008Y01535D01*
X03245Y01765D02*
Y0187D01*
X0339Y02015*
X0325Y0176D02*
X03475D01*
X03245Y01765D02*
X0325Y0176D01*
X03724Y01085D02*
X04013D01*
X04067Y01139*
X03654Y01155D02*
X03724Y01085D01*
X02552Y01155D02*
X02617Y0109D01*
X02935D02*
X02954Y01109D01*
X02617Y0109D02*
X02935D01*
X0341Y03378D02*
X03419Y0337D01*
X02954Y01143D02*
X02965Y01155D01*
X02954Y01109D02*
Y01143D01*
X04755Y013D02*
X04756Y01298D01*
X04755Y01304D02*
X04755Y01304D01*
X04755Y013D02*
Y01304D01*
X04756Y01155D02*
Y01298D01*
X04757Y01097D02*
X0481Y01045D01*
X04756Y01155D02*
X04757Y01154D01*
Y01097D02*
Y01154D01*
X0481Y01045D02*
X0506D01*
X0517Y01155*
X04067Y01139D02*
Y01155D01*
X03654D02*
Y01156D01*
G54D40*
X04352Y0141D02*
X04405D01*
X04287Y01475D02*
X04352Y0141D01*
X03885Y01475D02*
X04287D01*
X03813Y01546D02*
X03885Y01475D01*
X03818Y02728D02*
Y02728D01*
X0382Y0273*
G54D41*
X0456Y0347D02*
X0466Y0337D01*
X04146Y0347D02*
X0456D01*
X05435Y02645D02*
X05625Y02835D01*
X04885Y02645D02*
X05435D01*
X04812Y02718D02*
X04885Y02645D01*
X03733Y0347D02*
X04146D01*
X04246Y0337*
X0336Y0347D02*
X03733D01*
X03833Y0337*
X0341Y03378D02*
Y03419D01*
X0336Y0347D02*
X0341Y03419D01*
X03006Y0337D02*
X03106Y0347D01*
X0336*
X03006Y0314D02*
X03055Y03091D01*
X03006Y0314D02*
Y0337D01*
G54D43*
X05288Y02718D03*
X02598Y02463D03*
X05433Y01703D03*
X04493Y02978D03*
X02273Y01513D03*
X01088Y03038D03*
G54D44*
X01085Y02705D03*
X04865Y0292D03*
X04245Y0173D03*
X01085Y01805D03*
X0306Y01815D03*
G54D45*
X01185Y02705D03*
X01385D03*
X01485D03*
X01585D03*
X01685D03*
X01785D03*
X01885D03*
X01985D03*
X01285D03*
X0397Y02465D03*
Y0192D03*
X05065Y0292D03*
X04965D03*
X05165D03*
X05265D03*
X05365D03*
X05465D03*
X05625Y02835D03*
Y02735D03*
Y02635D03*
X04845Y0173D03*
X04745D03*
X04645D03*
X04545D03*
X04345D03*
X04445D03*
X01285Y01805D03*
X01985D03*
X01885D03*
X01785D03*
X01685D03*
X01585D03*
X01485D03*
X01385D03*
X01185D03*
X0296Y01815D03*
G54D46*
X0387Y02465D03*
Y0192D03*
G54D47*
X05625Y02935D03*
G54D48*
X04522Y0337D03*
X0466D03*
X04246D03*
X04384D03*
X03971D03*
X04108D03*
X03695D03*
X03833D03*
X03419D03*
X03557D03*
X03144D03*
X03282D03*
X02868D03*
X03006D03*
X02593D03*
X0273D03*
X02032D03*
X0217D03*
X01577D03*
X01715D03*
X01142D03*
X0128D03*
X04894Y01155D03*
X04756D03*
X05445D03*
X05308D03*
X0517D03*
X05032D03*
X04343D03*
X04205D03*
X04067D03*
X0393D03*
X03792D03*
X03654D03*
X03241D03*
X03103D03*
X02965D03*
X02827D03*
X0269D03*
X02552D03*
X02145D03*
X02007D03*
X0187D03*
X01732D03*
G54D49*
X02902Y01272D03*
X02798Y01368D03*
X02553Y01386D03*
X0293Y0138D03*
X0272Y0124D03*
X0379Y01308D03*
X04374Y01305D03*
X04305Y0136D03*
X04676Y01481D03*
X04343Y01551D03*
X03615Y014D03*
X04355Y01465D03*
X04405Y0141D03*
X03981Y01543D03*
X03829Y01809D03*
X0339Y02015D03*
X03453Y02221D03*
X02872Y02112D03*
X01478Y01054D03*
X01054Y01067D03*
X04812Y02718D03*
X04058Y02699D03*
X03818Y02728D03*
X0247Y0176D03*
X02475Y0153D03*
X02773Y01972D03*
X03505Y01605D03*
X03245Y01765D03*
X03475Y0176D03*
X01731Y0132D03*
X02103Y01465D03*
X0402Y02775D03*
X0392Y023D03*
X03855Y0229D03*
X0106Y014D03*
X01085Y0163D03*
X0106Y01508D03*
X02635Y02105D03*
X02531Y02021D03*
X02239Y02895D03*
X02575Y02835D03*
X01867Y03077D03*
X0119Y0125D03*
X0293Y0172D03*
Y01605D03*
X03055Y03091D03*
X04755Y01304D03*
X0314Y0273D03*
X03196Y02782D03*
X03255Y0261D03*
X0271Y0137D03*
X0489Y01268D03*
X03925Y03024D03*
X03936Y02934D03*
X03018Y0278D03*
X0296Y02725D03*
X03095Y02665D03*
X01592Y02D03*
X01563Y01909D03*
X0282Y02605D03*
X02884Y02663D03*
X04095Y01935D03*
X02903Y03185D03*
X01384Y02813D03*
M02*