%FSTAX23Y23*%
%MOIN*%
%SFA1B1*%

%IPPOS*%
%ADD17O,0.040000X0.020000*%
%ADD18R,0.023750X0.061150*%
%ADD19R,0.094610X0.070990*%
%ADD20R,0.078870X0.082800*%
%ADD21R,0.082800X0.082800*%
%ADD22R,0.029650X0.029650*%
%ADD23R,0.068000X0.048000*%
%ADD24R,0.102490X0.037920*%
%ADD25R,0.033590X0.057210*%
%ADD26C,0.099530*%
%ADD27R,0.067060X0.067060*%
%ADD28C,0.067060*%
%ADD29R,0.055240X0.055240*%
%ADD30R,0.067060X0.067060*%
%ADD31C,0.086740*%
%LNlayout-1*%
%LPD*%
G36*
X0321Y03048D02*
X03211Y03048D01*
X03211Y03048*
X03212Y03048*
X03212Y03048*
X03212Y03047*
X03213Y03047*
X03213Y03047*
X03213Y03046*
X03213Y03046*
X03213Y03045*
X03214Y03045*
Y0302*
X03213Y03019*
X03213Y03018*
X03213Y03018*
X03213Y03018*
X03213Y03017*
X03212Y03017*
X03209Y03013*
X0321Y03014*
X0321Y03013*
X03211Y03013*
X03211Y03013*
X03212Y03013*
X03212Y03013*
X03212Y03012*
X03213Y03012*
X03213Y03012*
X03213Y03011*
X03213Y03011*
X03213Y0301*
X03214Y0301*
Y02955*
X03213Y02954*
X03213Y02953*
X03213Y02953*
X03213Y02953*
X03213Y02952*
X03212Y02952*
X03212Y02951*
X03212Y02951*
X03211Y02951*
X03211Y02951*
X0321Y02951*
X0321Y0295*
X0315*
X03149Y02951*
X03148Y02951*
X03148Y02951*
X03148Y02951*
X03147Y02951*
X03147Y02952*
X03146Y02952*
X03146Y02953*
X03146Y02953*
X03146Y02953*
X03146Y02954*
X03145Y02955*
Y0301*
X03146Y0301*
X03146Y03011*
X03146Y03011*
X03146Y03012*
X03146Y03012*
X03147Y03012*
X03147Y03013*
X03148Y03013*
X03148Y03013*
X03148Y03013*
X03149Y03013*
X0315Y03014*
X0315Y03013*
X03147Y03017*
X03146Y03017*
X03146Y03018*
X03146Y03018*
X03146Y03018*
X03146Y03019*
X03145Y0302*
Y03045*
X03146Y03045*
X03146Y03046*
X03146Y03046*
X03146Y03047*
X03146Y03047*
X03147Y03047*
X03147Y03048*
X03148Y03048*
X03148Y03048*
X03148Y03048*
X03149Y03048*
X0315Y03049*
X0321*
X0321Y03048*
G37*
G36*
X0309D02*
X03091Y03048D01*
X03091Y03048*
X03092Y03048*
X03092Y03048*
X03092Y03047*
X03093Y03047*
X03093Y03047*
X03093Y03046*
X03093Y03046*
X03093Y03045*
X03094Y03045*
Y0302*
X03093Y03019*
X03093Y03018*
X03093Y03018*
X03093Y03018*
X03093Y03017*
X03092Y03017*
X03089Y03013*
X0309Y03014*
X0309Y03013*
X03091Y03013*
X03091Y03013*
X03092Y03013*
X03092Y03013*
X03092Y03012*
X03093Y03012*
X03093Y03012*
X03093Y03011*
X03093Y03011*
X03093Y0301*
X03094Y0301*
Y02955*
X03093Y02954*
X03093Y02953*
X03093Y02953*
X03093Y02953*
X03093Y02952*
X03092Y02952*
X03092Y02951*
X03092Y02951*
X03091Y02951*
X03091Y02951*
X0309Y02951*
X0309Y0295*
X0303*
X03029Y02951*
X03028Y02951*
X03028Y02951*
X03028Y02951*
X03027Y02951*
X03027Y02952*
X03026Y02952*
X03026Y02953*
X03026Y02953*
X03026Y02953*
X03026Y02954*
X03025Y02955*
Y0301*
X03026Y0301*
X03026Y03011*
X03026Y03011*
X03026Y03012*
X03026Y03012*
X03027Y03012*
X03027Y03013*
X03028Y03013*
X03028Y03013*
X03028Y03013*
X03029Y03013*
X0303Y03014*
X0303Y03013*
X03027Y03017*
X03026Y03017*
X03026Y03018*
X03026Y03018*
X03026Y03018*
X03026Y03019*
X03025Y0302*
Y03045*
X03026Y03045*
X03026Y03046*
X03026Y03046*
X03026Y03047*
X03026Y03047*
X03027Y03047*
X03027Y03048*
X03028Y03048*
X03028Y03048*
X03028Y03048*
X03029Y03048*
X0303Y03049*
X0309*
X0309Y03048*
G37*
G36*
X0385Y03046D02*
X03851Y03046D01*
X03851Y03046*
X03852Y03045*
X03852Y03045*
X03852Y03045*
X03853Y03044*
X03853Y03044*
X03853Y03044*
X03853Y03043*
X03853Y03043*
X03854Y03042*
Y02987*
X03853Y02986*
X03853Y02986*
X03853Y02985*
X03853Y02985*
X03853Y02985*
X03852Y02984*
X03852Y02984*
X03852Y02984*
X03851Y02983*
X03851Y02983*
X0385Y02983*
X0385Y02983*
X03849Y02983*
X03852Y0298*
X03853Y02979*
X03853Y02979*
X03853Y02979*
X03853Y02978*
X03853Y02978*
X03854Y02977*
Y02952*
X03853Y02951*
X03853Y02951*
X03853Y0295*
X03853Y0295*
X03853Y0295*
X03852Y02949*
X03852Y02949*
X03852Y02949*
X03851Y02948*
X03851Y02948*
X0385Y02948*
X0385Y02948*
X0379*
X03789Y02948*
X03788Y02948*
X03788Y02948*
X03788Y02949*
X03787Y02949*
X03787Y02949*
X03786Y0295*
X03786Y0295*
X03786Y0295*
X03786Y02951*
X03786Y02951*
X03785Y02952*
Y02977*
X03786Y02978*
X03786Y02978*
X03786Y02979*
X03786Y02979*
X03786Y02979*
X03787Y0298*
X0379Y02983*
X0379Y02983*
X03789Y02983*
X03788Y02983*
X03788Y02983*
X03788Y02984*
X03787Y02984*
X03787Y02984*
X03786Y02985*
X03786Y02985*
X03786Y02985*
X03786Y02986*
X03786Y02986*
X03785Y02987*
Y03042*
X03786Y03043*
X03786Y03043*
X03786Y03044*
X03786Y03044*
X03786Y03044*
X03787Y03045*
X03787Y03045*
X03788Y03045*
X03788Y03046*
X03788Y03046*
X03789Y03046*
X0379Y03046*
X0385*
X0385Y03046*
G37*
G36*
X0373D02*
X03731Y03046D01*
X03731Y03046*
X03732Y03045*
X03732Y03045*
X03732Y03045*
X03733Y03044*
X03733Y03044*
X03733Y03044*
X03733Y03043*
X03733Y03043*
X03734Y03042*
Y02987*
X03733Y02986*
X03733Y02986*
X03733Y02985*
X03733Y02985*
X03733Y02985*
X03732Y02984*
X03732Y02984*
X03732Y02984*
X03731Y02983*
X03731Y02983*
X0373Y02983*
X0373Y02983*
X03729Y02983*
X03732Y0298*
X03733Y02979*
X03733Y02979*
X03733Y02979*
X03733Y02978*
X03733Y02978*
X03734Y02977*
Y02952*
X03733Y02951*
X03733Y02951*
X03733Y0295*
X03733Y0295*
X03733Y0295*
X03732Y02949*
X03732Y02949*
X03732Y02949*
X03731Y02948*
X03731Y02948*
X0373Y02948*
X0373Y02948*
X0367*
X03669Y02948*
X03668Y02948*
X03668Y02948*
X03668Y02949*
X03667Y02949*
X03667Y02949*
X03666Y0295*
X03666Y0295*
X03666Y0295*
X03666Y02951*
X03666Y02951*
X03665Y02952*
Y02977*
X03666Y02978*
X03666Y02978*
X03666Y02979*
X03666Y02979*
X03666Y02979*
X03667Y0298*
X0367Y02983*
X0367Y02983*
X03669Y02983*
X03668Y02983*
X03668Y02983*
X03668Y02984*
X03667Y02984*
X03667Y02984*
X03666Y02985*
X03666Y02985*
X03666Y02985*
X03666Y02986*
X03666Y02986*
X03665Y02987*
Y03042*
X03666Y03043*
X03666Y03043*
X03666Y03044*
X03666Y03044*
X03666Y03044*
X03667Y03045*
X03667Y03045*
X03668Y03045*
X03668Y03046*
X03668Y03046*
X03669Y03046*
X0367Y03046*
X0373*
X0373Y03046*
G37*
G36*
X0361D02*
X03611Y03046D01*
X03611Y03046*
X03612Y03045*
X03612Y03045*
X03612Y03045*
X03613Y03044*
X03613Y03044*
X03613Y03044*
X03613Y03043*
X03613Y03043*
X03614Y03042*
Y02987*
X03613Y02986*
X03613Y02986*
X03613Y02985*
X03613Y02985*
X03613Y02985*
X03612Y02984*
X03612Y02984*
X03612Y02984*
X03611Y02983*
X03611Y02983*
X0361Y02983*
X0361Y02983*
X03609Y02983*
X03612Y0298*
X03613Y02979*
X03613Y02979*
X03613Y02979*
X03613Y02978*
X03613Y02978*
X03614Y02977*
Y02952*
X03613Y02951*
X03613Y02951*
X03613Y0295*
X03613Y0295*
X03613Y0295*
X03612Y02949*
X03612Y02949*
X03612Y02949*
X03611Y02948*
X03611Y02948*
X0361Y02948*
X0361Y02948*
X0355*
X03549Y02948*
X03548Y02948*
X03548Y02948*
X03548Y02949*
X03547Y02949*
X03547Y02949*
X03546Y0295*
X03546Y0295*
X03546Y0295*
X03546Y02951*
X03546Y02951*
X03545Y02952*
Y02977*
X03546Y02978*
X03546Y02978*
X03546Y02979*
X03546Y02979*
X03546Y02979*
X03547Y0298*
X0355Y02983*
X0355Y02983*
X03549Y02983*
X03548Y02983*
X03548Y02983*
X03548Y02984*
X03547Y02984*
X03547Y02984*
X03546Y02985*
X03546Y02985*
X03546Y02985*
X03546Y02986*
X03546Y02986*
X03545Y02987*
Y03042*
X03546Y03043*
X03546Y03043*
X03546Y03044*
X03546Y03044*
X03546Y03044*
X03547Y03045*
X03547Y03045*
X03548Y03045*
X03548Y03046*
X03548Y03046*
X03549Y03046*
X0355Y03046*
X0361*
X0361Y03046*
G37*
G36*
X0349D02*
X03491Y03046D01*
X03491Y03046*
X03492Y03045*
X03492Y03045*
X03492Y03045*
X03493Y03044*
X03493Y03044*
X03493Y03044*
X03493Y03043*
X03493Y03043*
X03494Y03042*
Y02987*
X03493Y02986*
X03493Y02986*
X03493Y02985*
X03493Y02985*
X03493Y02985*
X03492Y02984*
X03492Y02984*
X03492Y02984*
X03491Y02983*
X03491Y02983*
X0349Y02983*
X0349Y02983*
X03489Y02983*
X03492Y0298*
X03493Y02979*
X03493Y02979*
X03493Y02979*
X03493Y02978*
X03493Y02978*
X03494Y02977*
Y02952*
X03493Y02951*
X03493Y02951*
X03493Y0295*
X03493Y0295*
X03493Y0295*
X03492Y02949*
X03492Y02949*
X03492Y02949*
X03491Y02948*
X03491Y02948*
X0349Y02948*
X0349Y02948*
X0343*
X03429Y02948*
X03428Y02948*
X03428Y02948*
X03428Y02949*
X03427Y02949*
X03427Y02949*
X03426Y0295*
X03426Y0295*
X03426Y0295*
X03426Y02951*
X03426Y02951*
X03425Y02952*
Y02977*
X03426Y02978*
X03426Y02978*
X03426Y02979*
X03426Y02979*
X03426Y02979*
X03427Y0298*
X0343Y02983*
X0343Y02983*
X03429Y02983*
X03428Y02983*
X03428Y02983*
X03428Y02984*
X03427Y02984*
X03427Y02984*
X03426Y02985*
X03426Y02985*
X03426Y02985*
X03426Y02986*
X03426Y02986*
X03425Y02987*
Y03042*
X03426Y03043*
X03426Y03043*
X03426Y03044*
X03426Y03044*
X03426Y03044*
X03427Y03045*
X03427Y03045*
X03428Y03045*
X03428Y03046*
X03428Y03046*
X03429Y03046*
X0343Y03046*
X0349*
X0349Y03046*
G37*
G36*
X036Y02263D02*
X03601Y02263D01*
X03601Y02263*
X03602Y02263*
X03602Y02263*
X03602Y02262*
X03603Y02262*
X03603Y02262*
X03603Y02261*
X03603Y02261*
X03603Y0226*
X03604Y0226*
Y02205*
X03603Y02204*
X03603Y02203*
X03603Y02203*
X03603Y02203*
X03603Y02202*
X03602Y02202*
X03602Y02201*
X03602Y02201*
X03601Y02201*
X03601Y02201*
X036Y02201*
X036Y022*
X03599Y02201*
X03602Y02197*
X03603Y02197*
X03603Y02197*
X03603Y02196*
X03603Y02196*
X03603Y02195*
X03604Y02195*
Y0217*
X03603Y02169*
X03603Y02168*
X03603Y02168*
X03603Y02168*
X03603Y02167*
X03602Y02167*
X03602Y02166*
X03602Y02166*
X03601Y02166*
X03601Y02166*
X036Y02166*
X036Y02165*
X0354*
X03539Y02166*
X03538Y02166*
X03538Y02166*
X03538Y02166*
X03537Y02166*
X03537Y02167*
X03536Y02167*
X03536Y02168*
X03536Y02168*
X03536Y02168*
X03536Y02169*
X03535Y0217*
Y02195*
X03536Y02195*
X03536Y02196*
X03536Y02196*
X03536Y02197*
X03536Y02197*
X03537Y02197*
X0354Y02201*
X0354Y022*
X03539Y02201*
X03538Y02201*
X03538Y02201*
X03538Y02201*
X03537Y02201*
X03537Y02202*
X03536Y02202*
X03536Y02203*
X03536Y02203*
X03536Y02203*
X03536Y02204*
X03535Y02205*
Y0226*
X03536Y0226*
X03536Y02261*
X03536Y02261*
X03536Y02262*
X03536Y02262*
X03537Y02262*
X03537Y02263*
X03538Y02263*
X03538Y02263*
X03538Y02263*
X03539Y02263*
X0354Y02264*
X036*
X036Y02263*
G37*
G36*
X03735Y01728D02*
X03736Y01728D01*
X03736Y01728*
X03737Y01728*
X03737Y01728*
X03737Y01727*
X03738Y01727*
X03738Y01727*
X03738Y01726*
X03738Y01726*
X03738Y01725*
X03739Y01725*
Y0167*
X03738Y01669*
X03738Y01668*
X03738Y01668*
X03738Y01668*
X03738Y01667*
X03737Y01667*
X03737Y01666*
X03737Y01666*
X03736Y01666*
X03736Y01666*
X03735Y01666*
X03735Y01665*
X03734Y01666*
X03737Y01662*
X03738Y01662*
X03738Y01662*
X03738Y01661*
X03738Y01661*
X03738Y0166*
X03739Y0166*
Y01635*
X03738Y01634*
X03738Y01633*
X03738Y01633*
X03738Y01633*
X03738Y01632*
X03737Y01632*
X03737Y01631*
X03737Y01631*
X03736Y01631*
X03736Y01631*
X03735Y01631*
X03735Y0163*
X03675*
X03674Y01631*
X03673Y01631*
X03673Y01631*
X03673Y01631*
X03672Y01631*
X03672Y01632*
X03671Y01632*
X03671Y01633*
X03671Y01633*
X03671Y01633*
X03671Y01634*
X0367Y01635*
Y0166*
X03671Y0166*
X03671Y01661*
X03671Y01661*
X03671Y01662*
X03671Y01662*
X03672Y01662*
X03675Y01666*
X03675Y01665*
X03674Y01666*
X03673Y01666*
X03673Y01666*
X03673Y01666*
X03672Y01666*
X03672Y01667*
X03671Y01667*
X03671Y01668*
X03671Y01668*
X03671Y01668*
X03671Y01669*
X0367Y0167*
Y01725*
X03671Y01725*
X03671Y01726*
X03671Y01726*
X03671Y01727*
X03671Y01727*
X03672Y01727*
X03672Y01728*
X03673Y01728*
X03673Y01728*
X03673Y01728*
X03674Y01728*
X03675Y01729*
X03735*
X03735Y01728*
G37*
G36*
X03645D02*
X03646Y01728D01*
X03646Y01728*
X03647Y01728*
X03647Y01728*
X03647Y01727*
X03648Y01727*
X03648Y01727*
X03648Y01726*
X03648Y01726*
X03648Y01725*
X03649Y01725*
Y0167*
X03648Y01669*
X03648Y01668*
X03648Y01668*
X03648Y01668*
X03648Y01667*
X03647Y01667*
X03647Y01666*
X03647Y01666*
X03646Y01666*
X03646Y01666*
X03645Y01666*
X03645Y01665*
X03644Y01666*
X03647Y01662*
X03648Y01662*
X03648Y01662*
X03648Y01661*
X03648Y01661*
X03648Y0166*
X03649Y0166*
Y01635*
X03648Y01634*
X03648Y01633*
X03648Y01633*
X03648Y01633*
X03648Y01632*
X03647Y01632*
X03647Y01631*
X03647Y01631*
X03646Y01631*
X03646Y01631*
X03645Y01631*
X03645Y0163*
X03585*
X03584Y01631*
X03583Y01631*
X03583Y01631*
X03583Y01631*
X03582Y01631*
X03582Y01632*
X03581Y01632*
X03581Y01633*
X03581Y01633*
X03581Y01633*
X03581Y01634*
X0358Y01635*
Y0166*
X03581Y0166*
X03581Y01661*
X03581Y01661*
X03581Y01662*
X03581Y01662*
X03582Y01662*
X03585Y01666*
X03585Y01665*
X03584Y01666*
X03583Y01666*
X03583Y01666*
X03583Y01666*
X03582Y01666*
X03582Y01667*
X03581Y01667*
X03581Y01668*
X03581Y01668*
X03581Y01668*
X03581Y01669*
X0358Y0167*
Y01725*
X03581Y01725*
X03581Y01726*
X03581Y01726*
X03581Y01727*
X03581Y01727*
X03582Y01727*
X03582Y01728*
X03583Y01728*
X03583Y01728*
X03583Y01728*
X03584Y01728*
X03585Y01729*
X03645*
X03645Y01728*
G37*
G36*
X02665D02*
X02666Y01728D01*
X02666Y01728*
X02667Y01728*
X02667Y01728*
X02667Y01727*
X02668Y01727*
X02668Y01727*
X02668Y01726*
X02668Y01726*
X02668Y01725*
X02669Y01725*
Y0167*
X02668Y01669*
X02668Y01668*
X02668Y01668*
X02668Y01668*
X02668Y01667*
X02667Y01667*
X02667Y01666*
X02667Y01666*
X02666Y01666*
X02666Y01666*
X02665Y01666*
X02665Y01665*
X02664Y01666*
X02667Y01662*
X02668Y01662*
X02668Y01662*
X02668Y01661*
X02668Y01661*
X02668Y0166*
X02669Y0166*
Y01635*
X02668Y01634*
X02668Y01633*
X02668Y01633*
X02668Y01633*
X02668Y01632*
X02667Y01632*
X02667Y01631*
X02667Y01631*
X02666Y01631*
X02666Y01631*
X02665Y01631*
X02665Y0163*
X02605*
X02604Y01631*
X02603Y01631*
X02603Y01631*
X02603Y01631*
X02602Y01631*
X02602Y01632*
X02601Y01632*
X02601Y01633*
X02601Y01633*
X02601Y01633*
X02601Y01634*
X026Y01635*
Y0166*
X02601Y0166*
X02601Y01661*
X02601Y01661*
X02601Y01662*
X02601Y01662*
X02602Y01662*
X02605Y01666*
X02605Y01665*
X02604Y01666*
X02603Y01666*
X02603Y01666*
X02603Y01666*
X02602Y01666*
X02602Y01667*
X02601Y01667*
X02601Y01668*
X02601Y01668*
X02601Y01668*
X02601Y01669*
X026Y0167*
Y01725*
X02601Y01725*
X02601Y01726*
X02601Y01726*
X02601Y01727*
X02601Y01727*
X02602Y01727*
X02602Y01728*
X02603Y01728*
X02603Y01728*
X02603Y01728*
X02604Y01728*
X02605Y01729*
X02665*
X02665Y01728*
G37*
G36*
X02575D02*
X02576Y01728D01*
X02576Y01728*
X02577Y01728*
X02577Y01728*
X02577Y01727*
X02578Y01727*
X02578Y01727*
X02578Y01726*
X02578Y01726*
X02578Y01725*
X02579Y01725*
Y0167*
X02578Y01669*
X02578Y01668*
X02578Y01668*
X02578Y01668*
X02578Y01667*
X02577Y01667*
X02577Y01666*
X02577Y01666*
X02576Y01666*
X02576Y01666*
X02575Y01666*
X02575Y01665*
X02574Y01666*
X02577Y01662*
X02578Y01662*
X02578Y01662*
X02578Y01661*
X02578Y01661*
X02578Y0166*
X02579Y0166*
Y01635*
X02578Y01634*
X02578Y01633*
X02578Y01633*
X02578Y01633*
X02578Y01632*
X02577Y01632*
X02577Y01631*
X02577Y01631*
X02576Y01631*
X02576Y01631*
X02575Y01631*
X02575Y0163*
X02515*
X02514Y01631*
X02513Y01631*
X02513Y01631*
X02513Y01631*
X02512Y01631*
X02512Y01632*
X02511Y01632*
X02511Y01633*
X02511Y01633*
X02511Y01633*
X02511Y01634*
X0251Y01635*
Y0166*
X02511Y0166*
X02511Y01661*
X02511Y01661*
X02511Y01662*
X02511Y01662*
X02512Y01662*
X02515Y01666*
X02515Y01665*
X02514Y01666*
X02513Y01666*
X02513Y01666*
X02513Y01666*
X02512Y01666*
X02512Y01667*
X02511Y01667*
X02511Y01668*
X02511Y01668*
X02511Y01668*
X02511Y01669*
X0251Y0167*
Y01725*
X02511Y01725*
X02511Y01726*
X02511Y01726*
X02511Y01727*
X02511Y01727*
X02512Y01727*
X02512Y01728*
X02513Y01728*
X02513Y01728*
X02513Y01728*
X02514Y01728*
X02515Y01729*
X02575*
X02575Y01728*
G37*
G36*
X04615Y01593D02*
X04616Y01593D01*
X04616Y01593*
X04617Y01593*
X04617Y01593*
X04617Y01592*
X04618Y01592*
X04618Y01592*
X04618Y01591*
X04618Y01591*
X04618Y0159*
X04619Y0159*
Y01535*
X04618Y01534*
X04618Y01533*
X04618Y01533*
X04618Y01533*
X04618Y01532*
X04617Y01532*
X04617Y01531*
X04617Y01531*
X04616Y01531*
X04616Y01531*
X04615Y01531*
X04615Y0153*
X04614Y01531*
X04617Y01527*
X04618Y01527*
X04618Y01527*
X04618Y01526*
X04618Y01526*
X04618Y01525*
X04619Y01525*
Y015*
X04618Y01499*
X04618Y01498*
X04618Y01498*
X04618Y01498*
X04618Y01497*
X04617Y01497*
X04617Y01496*
X04617Y01496*
X04616Y01496*
X04616Y01496*
X04615Y01496*
X04615Y01495*
X04555*
X04554Y01496*
X04553Y01496*
X04553Y01496*
X04553Y01496*
X04552Y01496*
X04552Y01497*
X04551Y01497*
X04551Y01498*
X04551Y01498*
X04551Y01498*
X04551Y01499*
X0455Y015*
Y01525*
X04551Y01525*
X04551Y01526*
X04551Y01526*
X04551Y01527*
X04551Y01527*
X04552Y01527*
X04555Y01531*
X04555Y0153*
X04554Y01531*
X04553Y01531*
X04553Y01531*
X04553Y01531*
X04552Y01531*
X04552Y01532*
X04551Y01532*
X04551Y01533*
X04551Y01533*
X04551Y01533*
X04551Y01534*
X0455Y01535*
Y0159*
X04551Y0159*
X04551Y01591*
X04551Y01591*
X04551Y01592*
X04551Y01592*
X04552Y01592*
X04552Y01593*
X04553Y01593*
X04553Y01593*
X04553Y01593*
X04554Y01593*
X04555Y01594*
X04615*
X04615Y01593*
G37*
G36*
X0453D02*
X04531Y01593D01*
X04531Y01593*
X04532Y01593*
X04532Y01593*
X04532Y01592*
X04533Y01592*
X04533Y01592*
X04533Y01591*
X04533Y01591*
X04533Y0159*
X04534Y0159*
Y01535*
X04533Y01534*
X04533Y01533*
X04533Y01533*
X04533Y01533*
X04533Y01532*
X04532Y01532*
X04532Y01531*
X04532Y01531*
X04531Y01531*
X04531Y01531*
X0453Y01531*
X0453Y0153*
X04529Y01531*
X04532Y01527*
X04533Y01527*
X04533Y01527*
X04533Y01526*
X04533Y01526*
X04533Y01525*
X04534Y01525*
Y015*
X04533Y01499*
X04533Y01498*
X04533Y01498*
X04533Y01498*
X04533Y01497*
X04532Y01497*
X04532Y01496*
X04532Y01496*
X04531Y01496*
X04531Y01496*
X0453Y01496*
X0453Y01495*
X0447*
X04469Y01496*
X04468Y01496*
X04468Y01496*
X04468Y01496*
X04467Y01496*
X04467Y01497*
X04466Y01497*
X04466Y01498*
X04466Y01498*
X04466Y01498*
X04466Y01499*
X04465Y015*
Y01525*
X04466Y01525*
X04466Y01526*
X04466Y01526*
X04466Y01527*
X04466Y01527*
X04467Y01527*
X0447Y01531*
X0447Y0153*
X04469Y01531*
X04468Y01531*
X04468Y01531*
X04468Y01531*
X04467Y01531*
X04467Y01532*
X04466Y01532*
X04466Y01533*
X04466Y01533*
X04466Y01533*
X04466Y01534*
X04465Y01535*
Y0159*
X04466Y0159*
X04466Y01591*
X04466Y01591*
X04466Y01592*
X04466Y01592*
X04467Y01592*
X04467Y01593*
X04468Y01593*
X04468Y01593*
X04468Y01593*
X04469Y01593*
X0447Y01594*
X0453*
X0453Y01593*
G37*
%LNlayout-2*%
%LPC*%
G36*
X0318Y02986D02*
X0318Y02985D01*
X03179Y02986*
X0318Y02985*
X0318Y02986*
G37*
G36*
X0306D02*
X0306Y02985D01*
X03059Y02986*
X0306Y02985*
X0306Y02986*
G37*
G36*
X0382Y03011D02*
X03819Y03011D01*
X0382Y03011*
X0382Y03011*
X0382Y03011*
G37*
G36*
X037D02*
X03699Y03011D01*
X037Y03011*
X037Y03011*
X037Y03011*
G37*
G36*
X0358D02*
X03579Y03011D01*
X0358Y03011*
X0358Y03011*
X0358Y03011*
G37*
G36*
X0346D02*
X03459Y03011D01*
X0346Y03011*
X0346Y03011*
X0346Y03011*
G37*
G36*
X0357Y02229D02*
X03569Y02228D01*
X0357Y02229*
X0357Y02228*
X0357Y02229*
G37*
G36*
X03705Y01694D02*
X03704Y01693D01*
X03705Y01694*
X03705Y01693*
X03705Y01694*
G37*
G36*
X03615D02*
X03614Y01693D01*
X03615Y01694*
X03615Y01693*
X03615Y01694*
G37*
G36*
X02635D02*
X02634Y01693D01*
X02635Y01694*
X02635Y01693*
X02635Y01694*
G37*
G36*
X02545D02*
X02544Y01693D01*
X02545Y01694*
X02545Y01693*
X02545Y01694*
G37*
G36*
X04585Y01559D02*
X04584Y01558D01*
X04585Y01559*
X04585Y01558*
X04585Y01559*
G37*
G36*
X045D02*
X04499Y01558D01*
X045Y01559*
X045Y01558*
X045Y01559*
G37*
%LNlayout-3*%
%LPD*%
G54D17*
X04585Y01577D03*
Y01512D03*
X045Y01577D03*
Y01512D03*
X02545Y01712D03*
Y01647D03*
X02635Y01712D03*
Y01647D03*
X03615D03*
Y01712D03*
X03705Y01647D03*
Y01712D03*
X0357Y02182D03*
Y02247D03*
X0318Y03032D03*
Y02967D03*
X0306Y03032D03*
Y02967D03*
X0346Y02965D03*
Y0303D03*
X0358Y02965D03*
Y0303D03*
X0382Y02965D03*
Y0303D03*
X037Y02965D03*
Y0303D03*
G54D18*
X01211Y0118D03*
X01236D03*
X01262D03*
X01288D03*
X01313D03*
G54D19*
X01138Y01175D03*
X01386D03*
G54D20*
X01105Y01075D03*
X01419D03*
G54D21*
X01215Y01075D03*
X01309D03*
G54D22*
X0402Y01773D03*
Y01727D03*
X0311Y02063D03*
Y02017D03*
X03055Y02063D03*
Y02017D03*
X03Y02063D03*
Y02017D03*
X0188Y01657D03*
Y01703D03*
X01985Y01657D03*
Y01703D03*
G54D23*
X0395Y01689D03*
Y01769D03*
X03865Y01689D03*
Y01769D03*
X02835Y01975D03*
Y02055D03*
X02925Y01975D03*
Y02055D03*
X03675Y01885D03*
Y01965D03*
X0368Y0241D03*
Y0249D03*
G54D24*
X03378Y0212D03*
X03225D03*
X03378Y0217D03*
X03225D03*
X03378Y0222D03*
X03225D03*
X03378Y0227D03*
X03225D03*
X03378Y0232D03*
X03225D03*
G54D25*
X02752Y02106D03*
X02677D03*
X02715Y02023D03*
G54D26*
X05288Y02718D03*
X02598Y02463D03*
X05433Y01703D03*
X04493Y02978D03*
X02273Y01513D03*
X01088Y03038D03*
G54D27*
X01085Y02705D03*
X04865Y0292D03*
X04245Y0173D03*
X01085Y01805D03*
X0306Y01815D03*
G54D28*
X01185Y02705D03*
X01385D03*
X01485D03*
X01585D03*
X01685D03*
X01785D03*
X01885D03*
X01985D03*
X01285D03*
X0397Y02465D03*
Y0192D03*
X05065Y0292D03*
X04965D03*
X05165D03*
X05265D03*
X05365D03*
X05465D03*
X05625Y02835D03*
Y02735D03*
Y02635D03*
X04845Y0173D03*
X04745D03*
X04645D03*
X04545D03*
X04345D03*
X04445D03*
X01285Y01805D03*
X01985D03*
X01885D03*
X01785D03*
X01685D03*
X01585D03*
X01485D03*
X01385D03*
X01185D03*
X0296Y01815D03*
G54D29*
X0387Y02465D03*
Y0192D03*
G54D30*
X05625Y02935D03*
G54D31*
X04522Y0337D03*
X0466D03*
X04246D03*
X04384D03*
X03971D03*
X04108D03*
X03695D03*
X03833D03*
X03419D03*
X03557D03*
X03144D03*
X03282D03*
X02868D03*
X03006D03*
X02593D03*
X0273D03*
X02032D03*
X0217D03*
X01577D03*
X01715D03*
X01142D03*
X0128D03*
X04894Y01155D03*
X04756D03*
X05445D03*
X05308D03*
X0517D03*
X05032D03*
X04343D03*
X04205D03*
X04067D03*
X0393D03*
X03792D03*
X03654D03*
X03241D03*
X03103D03*
X02965D03*
X02827D03*
X0269D03*
X02552D03*
X02145D03*
X02007D03*
X0187D03*
X01732D03*
M02*