G04*
G04 #@! TF.GenerationSoftware,Altium Limited,Altium Designer,21.0.9 (235)*
G04*
G04 Layer_Physical_Order=1*
G04 Layer_Color=255*
%FSLAX25Y25*%
%MOIN*%
G70*
G04*
G04 #@! TF.SameCoordinates,A275BC4C-76E1-47BA-AFC5-B931A1449514*
G04*
G04*
G04 #@! TF.FilePolarity,Positive*
G04*
G01*
G75*
%ADD12C,0.01000*%
%ADD13C,0.02000*%
%ADD17O,0.04000X0.02000*%
%ADD32R,0.01575X0.05315*%
%ADD33R,0.08661X0.06299*%
%ADD34R,0.07087X0.07480*%
%ADD35R,0.07480X0.07480*%
%ADD36R,0.02165X0.02165*%
%ADD37R,0.06000X0.04000*%
%ADD38R,0.09449X0.02992*%
%ADD39R,0.02559X0.04921*%
%ADD40C,0.01600*%
%ADD41C,0.04000*%
%ADD42C,0.01400*%
%ADD43C,0.07953*%
%ADD44R,0.05906X0.05906*%
%ADD45C,0.05906*%
%ADD46R,0.04724X0.04724*%
%ADD47R,0.05906X0.05906*%
%ADD48C,0.07874*%
%ADD49C,0.05000*%
G36*
X321000Y302000D02*
X318000Y299000D01*
X315000Y302000D01*
Y304500D01*
X321000D01*
Y302000D01*
D02*
G37*
G36*
X309000D02*
X306000Y299000D01*
X303000Y302000D01*
Y304500D01*
X309000D01*
Y302000D01*
D02*
G37*
G36*
X385000Y298750D02*
X382000Y301750D01*
X379000Y298750D01*
Y304250D01*
X385000D01*
Y298750D01*
D02*
G37*
G36*
X373000D02*
X370000Y301750D01*
X367000Y298750D01*
Y304250D01*
X373000D01*
Y298750D01*
D02*
G37*
G36*
X361000D02*
X358000Y301750D01*
X355000Y298750D01*
Y304250D01*
X361000D01*
Y298750D01*
D02*
G37*
G36*
X349000D02*
X346000Y301750D01*
X343000Y298750D01*
Y304250D01*
X349000D01*
Y298750D01*
D02*
G37*
G36*
X321000Y295500D02*
X315000D01*
Y301000D01*
X318000Y298000D01*
X321000Y301000D01*
Y295500D01*
D02*
G37*
G36*
X309000D02*
X303000D01*
Y301000D01*
X306000Y298000D01*
X309000Y301000D01*
Y295500D01*
D02*
G37*
G36*
X385000Y297750D02*
Y295250D01*
X379000D01*
Y297750D01*
X382000Y300750D01*
X385000Y297750D01*
D02*
G37*
G36*
X373000D02*
Y295250D01*
X367000D01*
Y297750D01*
X370000Y300750D01*
X373000Y297750D01*
D02*
G37*
G36*
X361000D02*
Y295250D01*
X355000D01*
Y297750D01*
X358000Y300750D01*
X361000Y297750D01*
D02*
G37*
G36*
X349000D02*
Y295250D01*
X343000D01*
Y297750D01*
X346000Y300750D01*
X349000Y297750D01*
D02*
G37*
G36*
X360000Y220500D02*
X357000Y223500D01*
X354000Y220500D01*
Y226000D01*
X360000D01*
Y220500D01*
D02*
G37*
G36*
Y219500D02*
Y217000D01*
X354000D01*
Y219500D01*
X357000Y222500D01*
X360000Y219500D01*
D02*
G37*
G36*
X373500Y167000D02*
X370500Y170000D01*
X367500Y167000D01*
Y172500D01*
X373500D01*
Y167000D01*
D02*
G37*
G36*
X364500D02*
X361500Y170000D01*
X358500Y167000D01*
Y172500D01*
X364500D01*
Y167000D01*
D02*
G37*
G36*
X266500D02*
X263500Y170000D01*
X260500Y167000D01*
Y172500D01*
X266500D01*
Y167000D01*
D02*
G37*
G36*
X257500D02*
X254500Y170000D01*
X251500Y167000D01*
Y172500D01*
X257500D01*
Y167000D01*
D02*
G37*
G36*
X373500Y166000D02*
Y163500D01*
X367500D01*
Y166000D01*
X370500Y169000D01*
X373500Y166000D01*
D02*
G37*
G36*
X364500D02*
Y163500D01*
X358500D01*
Y166000D01*
X361500Y169000D01*
X364500Y166000D01*
D02*
G37*
G36*
X266500D02*
Y163500D01*
X260500D01*
Y166000D01*
X263500Y169000D01*
X266500Y166000D01*
D02*
G37*
G36*
X257500D02*
Y163500D01*
X251500D01*
Y166000D01*
X254500Y169000D01*
X257500Y166000D01*
D02*
G37*
G36*
X461500Y153500D02*
X458500Y156500D01*
X455500Y153500D01*
Y159000D01*
X461500D01*
Y153500D01*
D02*
G37*
G36*
X453000D02*
X450000Y156500D01*
X447000Y153500D01*
Y159000D01*
X453000D01*
Y153500D01*
D02*
G37*
G36*
X461500Y152500D02*
Y150000D01*
X455500D01*
Y152500D01*
X458500Y155500D01*
X461500Y152500D01*
D02*
G37*
G36*
X453000D02*
Y150000D01*
X447000D01*
Y152500D01*
X450000Y155500D01*
X453000Y152500D01*
D02*
G37*
D12*
X361500Y164750D02*
X370500D01*
X289960Y127540D02*
X290247Y127253D01*
X281540Y127540D02*
X289960D01*
X282275Y135482D02*
X282957D01*
X214152Y134848D02*
X256935D01*
X311746Y130800D02*
X379000D01*
X280909Y136848D02*
X282275Y135482D01*
X309498Y133048D02*
X311746Y130800D01*
X279827Y136848D02*
X280909D01*
X308752Y131248D02*
X313000Y127000D01*
X211452Y133048D02*
X309498D01*
X208752Y131248D02*
X308752D01*
X256935Y134848D02*
X259087Y137000D01*
X159500Y180500D02*
X208752Y131248D01*
X180250Y168750D02*
X214152Y134848D01*
X169439Y175061D02*
X211452Y133048D01*
X259087Y137000D02*
X271000D01*
X283254Y135185D02*
X283414D01*
X282957Y135482D02*
X283254Y135185D01*
X293000Y138000D02*
Y160500D01*
X275890Y121890D02*
X281540Y127540D01*
X275890Y113890D02*
Y121890D01*
X284000Y135771D02*
Y164500D01*
X283414Y135185D02*
X284000Y135771D01*
X209279Y124000D02*
X272000D01*
X200780Y115500D02*
X209279Y124000D01*
X313000Y127000D02*
X413000D01*
X271000Y109000D02*
X275890Y113890D01*
X193500Y109000D02*
X271000D01*
X329500Y160500D02*
X355600Y134400D01*
X424900Y134600D02*
X428911Y130589D01*
X328500Y164500D02*
X356800Y136200D01*
X376480D02*
X376680Y136400D01*
X430100D01*
X355600Y134400D02*
X377226D01*
X413000Y127000D02*
X419693Y120307D01*
X356800Y136200D02*
X376480D01*
X377426Y134600D02*
X424900D01*
X377226Y134400D02*
X377426Y134600D01*
X430100Y136400D02*
X430500Y136000D01*
X131366Y117827D02*
X131653Y117539D01*
X131366Y117827D02*
Y118032D01*
X131653Y117539D02*
X138650D01*
X428911Y130589D02*
X437439D01*
X464500Y150000D02*
X466586Y147914D01*
X467414D01*
X467665Y148166D01*
X464500Y150000D02*
Y163000D01*
X454500Y173000D02*
X464500Y163000D01*
X434396Y155185D02*
X444500Y165289D01*
Y173000D01*
X293000Y160500D02*
X329500D01*
X363200Y201200D02*
X392000Y230000D01*
X378888Y193862D02*
X385138D01*
X387000Y192000D01*
X376250Y196500D02*
X378888Y193862D01*
X367500Y196500D02*
X376250D01*
X449626Y126500D02*
X489098D01*
X404500Y169080D02*
X451080Y122500D01*
X409500Y166626D02*
X449626Y126500D01*
X451080Y122500D02*
X523811D01*
X409500Y166626D02*
Y193500D01*
X404500Y169080D02*
Y232000D01*
X363200Y199200D02*
Y201200D01*
X284000Y164500D02*
X328500D01*
X363200Y199200D01*
X266000Y187000D02*
X285000Y168000D01*
X195000Y187000D02*
X266000D01*
X198500Y180500D02*
X268000D01*
X284000Y164500D01*
X285000Y168000D02*
X293000D01*
X395000Y169000D02*
X395019Y169019D01*
X396040Y168999D02*
X398041Y171000D01*
X401417Y171503D02*
Y172117D01*
X400914Y171000D02*
X401417Y171503D01*
X398041Y171000D02*
X400914D01*
X401417Y172117D02*
X402000Y172700D01*
X395040Y168999D02*
X396040D01*
X397000Y239500D02*
X404500Y232000D01*
X300000Y206300D02*
X305500D01*
X293300D02*
X300000D01*
X347500Y197000D02*
X397000Y246500D01*
X326000Y197000D02*
X347500D01*
X305500Y206300D02*
X311000D01*
X309525Y229975D02*
Y266592D01*
Y229975D02*
X316861Y222639D01*
X321861D01*
X322500Y222000D01*
X511500Y272000D02*
Y296414D01*
X414086Y267000D02*
X506500D01*
X511500Y272000D01*
X405800Y269912D02*
X412212Y263500D01*
X404351Y276735D02*
X414086Y267000D01*
X412212Y263500D02*
X516000D01*
X516086Y263586D02*
Y284914D01*
X516000Y263500D02*
X562500D01*
X516000Y285000D02*
Y293500D01*
Y263500D02*
X516086Y263586D01*
X402000Y277500D02*
X402765Y276735D01*
X404351D01*
X316672Y282000D02*
X382204D01*
X393609Y293405D01*
X277350Y197298D02*
X277552Y197500D01*
X305500Y201700D02*
X311000D01*
X300000D02*
X305500D01*
X293114Y198114D02*
X296414D01*
X300000Y201700D01*
X292500Y197500D02*
X293114Y198114D01*
X489098Y126500D02*
X489638D01*
X490000D01*
X173194Y132085D02*
X173221Y132058D01*
Y115500D02*
Y132058D01*
X110953Y178047D02*
X144750Y144250D01*
Y127750D02*
Y144250D01*
Y127750D02*
X167500Y105000D01*
X198500Y158000D02*
X210000Y146500D01*
X190800Y165700D02*
X198500Y158000D01*
Y165700D01*
X210047Y146547D02*
X210377D01*
X210000Y146500D02*
X210047Y146547D01*
X188000Y165700D02*
X190800D01*
X545700Y273800D02*
X562200D01*
X536000Y283500D02*
X545700Y273800D01*
X562200D02*
X562500Y273500D01*
X327454Y168000D02*
X356095Y196640D01*
Y199594D02*
X385500Y229000D01*
X293000Y168000D02*
X327454D01*
X356095Y196640D02*
Y199594D01*
X109940Y145027D02*
X109940D01*
X106765Y148202D02*
Y150061D01*
Y148202D02*
X109940Y145027D01*
X109940D02*
X126248Y128720D01*
X106000Y140000D02*
X114500Y131500D01*
X120000D01*
X382000Y296500D02*
X386000D01*
X108500Y153700D02*
X128807Y133393D01*
X108500Y153700D02*
Y163000D01*
X106000Y150826D02*
X106765Y150061D01*
X128807Y118032D02*
Y133393D01*
X108500Y180500D02*
X110953Y178047D01*
X167500Y105000D02*
X299839D01*
X185500Y217000D02*
X306000D01*
X326000Y197000D01*
X397000Y239500D02*
Y246500D01*
X120000Y131500D02*
X123500Y128000D01*
Y118220D02*
Y128000D01*
X126248Y118032D02*
Y128720D01*
X293000Y168000D02*
Y172000D01*
X187000Y115500D02*
X193500Y109000D01*
X299839Y105000D02*
X310339Y115500D01*
X319662Y249838D02*
Y278200D01*
X331000Y215000D02*
Y238500D01*
X319662Y249838D02*
X331000Y238500D01*
X221500Y278000D02*
X302000D01*
X314000Y240500D02*
Y273000D01*
X325500Y261000D02*
X326582D01*
X327882Y262300D02*
X395200D01*
X326582Y261000D02*
X327882Y262300D01*
X328500Y217000D02*
X329200Y217700D01*
X328614Y232000D02*
X329200Y231414D01*
Y217700D02*
Y231414D01*
X321086Y232000D02*
X328614D01*
X322639Y212139D02*
X328139D01*
X331000Y215000D01*
X322500Y212000D02*
X322639Y212139D01*
X322500Y217000D02*
X328500D01*
X419693Y116382D02*
Y120307D01*
Y116382D02*
X420575Y115500D01*
X489098Y126862D02*
X489638D01*
X490000Y126500D01*
X523811Y122500D02*
X530811Y115500D01*
X379000Y115736D02*
X379236Y115500D01*
X269000D02*
X269364Y115864D01*
X180250Y168750D02*
Y177461D01*
X178500Y179211D02*
Y180500D01*
Y179211D02*
X180250Y177461D01*
X169439Y175061D02*
Y179561D01*
X168500Y180500D02*
X169439Y179561D01*
X387500Y298000D02*
X413221D01*
X370000Y296500D02*
X382000D01*
X386000D02*
X387500Y298000D01*
X413221D02*
X452220Y337000D01*
X391735Y303224D02*
X392500Y302459D01*
X389914Y303500D02*
X390190Y303224D01*
X391735D01*
X385000Y303500D02*
X389914D01*
X384500Y303000D02*
X385000Y303500D01*
X159290Y200011D02*
X179480Y220200D01*
X254872D01*
X316672Y282000D01*
X301978Y278022D02*
X302000Y278000D01*
X301809Y278022D02*
X301978D01*
X221000Y272500D02*
X296000D01*
X320090Y232996D02*
Y234410D01*
Y232996D02*
X321086Y232000D01*
X314000Y240500D02*
X320090Y234410D01*
X395200Y262300D02*
X408500Y249000D01*
X227696Y266381D02*
X288493D01*
X166353Y262647D02*
X223962D01*
X227696Y266381D01*
X316626Y284500D02*
X344914D01*
X300140Y268014D02*
X316626Y284500D01*
X300140Y268014D02*
Y268014D01*
X209747Y266247D02*
X221500Y278000D01*
X254126Y222000D02*
X300140Y268014D01*
X212947Y264447D02*
X221000Y272500D01*
X170000Y222000D02*
X254126D01*
X128500Y180500D02*
X170000Y222000D01*
X156392Y188391D02*
Y190940D01*
X148500Y180500D02*
X156392Y188391D01*
X516000Y285000D02*
X516086Y284914D01*
X532000Y297000D02*
X535500Y293500D01*
X512086Y297000D02*
X532000D01*
X535500Y293500D02*
X536000D01*
X511500Y296414D02*
X512086Y297000D01*
X409086Y193500D02*
X409500D01*
X408500Y194086D02*
X409086Y193500D01*
X408500Y194086D02*
Y249000D01*
X188500Y180500D02*
X195000Y187000D01*
X536000Y283500D02*
Y293500D01*
X345500Y285086D02*
Y296500D01*
X344914Y284500D02*
X345500Y285086D01*
X178500Y270500D02*
X182753Y266247D01*
X209747D01*
X174553Y264447D02*
X212947D01*
X168500Y270500D02*
X174553Y264447D01*
X158500Y270500D02*
X166353Y262647D01*
X137086Y260000D02*
X281000D01*
X282000Y260500D02*
Y261000D01*
X136500Y260586D02*
Y260586D01*
X281000Y260000D02*
X282000Y261000D01*
X136500Y260586D02*
X137086Y260000D01*
X129439Y267647D02*
X136500Y260586D01*
X345500Y296500D02*
Y297414D01*
X128500Y270500D02*
X129439Y269561D01*
Y267647D02*
Y269561D01*
X328851Y332149D02*
X356809Y304191D01*
Y303462D02*
Y304191D01*
X357271Y303000D02*
X358000D01*
X328205Y337000D02*
X328851Y336353D01*
Y332149D02*
Y336353D01*
X356809Y303462D02*
X357271Y303000D01*
X317247Y326042D02*
X328205Y337000D01*
X286042Y326042D02*
X317247D01*
X277500Y317500D02*
X286042Y326042D01*
X292500Y313500D02*
Y316342D01*
X290312Y318530D02*
X292500Y316342D01*
X181500Y313500D02*
X292500D01*
X174671Y317500D02*
X277500D01*
X228300Y319300D02*
X253037Y344037D01*
X118500Y270500D02*
X167300Y319300D01*
X228300D01*
X138486Y281314D02*
X174671Y317500D01*
X138500Y270500D02*
X181500Y313500D01*
X369543Y337000D02*
X370000Y336543D01*
X362506Y344037D02*
X369543Y337000D01*
X253037Y344037D02*
X362506D01*
X344809Y303462D02*
Y304191D01*
X292500Y313500D02*
X335500D01*
X345271Y303000D02*
X346000D01*
X344809Y303462D02*
X345271Y303000D01*
X335500Y313500D02*
X344809Y304191D01*
X382000Y303000D02*
Y308118D01*
X410882Y337000D01*
X370000Y303000D02*
Y336543D01*
X123500Y118220D02*
X123689Y118032D01*
X158500Y180500D02*
X159500D01*
X384552Y248500D02*
X384690Y248362D01*
X368000Y249000D02*
X368500Y248500D01*
X385138Y248362D02*
X387000Y246500D01*
X384690Y248362D02*
X385138D01*
X368500Y248500D02*
X384552D01*
X164000Y195500D02*
X185500Y217000D01*
X153500Y195500D02*
X164000D01*
X138500Y180500D02*
X153500Y195500D01*
X359412Y298500D02*
X360461Y297450D01*
X358500Y298500D02*
X359412D01*
X360461Y297450D02*
X367914D01*
X368864Y296500D01*
X370000D01*
X357450Y297450D02*
X358500Y298500D01*
X348462Y297450D02*
X357450D01*
X347912Y298000D02*
X348462Y297450D01*
X345500Y297414D02*
X346086Y298000D01*
X347912D01*
X198500Y170300D02*
Y180500D01*
X188000Y170300D02*
X188500Y170800D01*
Y180500D01*
D13*
X361184Y164750D02*
Y165949D01*
X254930Y139078D02*
Y164750D01*
Y139078D02*
X255361Y138648D01*
X254930Y164750D02*
X255361D01*
X459500Y150250D02*
X475509Y134241D01*
X361500Y140000D02*
Y164750D01*
X361184D02*
X361500D01*
X398009Y154491D02*
Y157991D01*
Y154491D02*
X398148Y154352D01*
X389500Y166500D02*
X398009Y157991D01*
X375546Y166500D02*
X389500D01*
X393499Y167499D02*
X395000Y169000D01*
X391000Y166499D02*
X392000Y167499D01*
X393499D01*
X371246Y170800D02*
X375546Y166500D01*
X339000Y201500D02*
X347046D01*
X362672Y217126D02*
Y221828D01*
X347046Y201500D02*
X362672Y217126D01*
X349750Y212000D02*
X356000Y218250D01*
X361500Y223000D02*
X362672Y221828D01*
X337854Y212000D02*
X349750D01*
X356000Y218250D02*
X357000D01*
X358500Y223000D02*
X361500D01*
X283500Y197500D02*
X292500D01*
X350639Y160639D02*
Y164139D01*
X350500Y160500D02*
X350639Y160639D01*
Y164139D02*
X357750Y171250D01*
X361500D01*
X264512Y202366D02*
X271500D01*
X253366D02*
X264512D01*
X369500Y171250D02*
Y172250D01*
X264512Y202366D02*
X275878Y191000D01*
X310000D01*
X324500Y176500D01*
X365750Y176000D02*
X369500Y172250D01*
X347500Y176000D02*
X365750D01*
X369500Y171250D02*
X370500D01*
X263500Y210500D02*
X263567Y210567D01*
X267693D01*
X267760Y210634D01*
X253183Y202183D02*
X253366Y202366D01*
X224000Y289500D02*
X231250Y296750D01*
X223953Y289547D02*
Y289555D01*
Y289547D02*
X224000Y289500D01*
X231250Y296750D02*
X306000D01*
X317000Y295750D02*
Y296750D01*
X257500Y283500D02*
X304750D01*
X317000Y296750D02*
X318000D01*
X304750Y283500D02*
X317000Y295750D01*
X148500Y270500D02*
X186500Y308500D01*
Y308044D02*
Y308500D01*
Y308044D02*
X186774Y307770D01*
X121130Y118032D02*
Y122870D01*
X119000Y125000D02*
X121130Y122870D01*
X306500Y302000D02*
Y303250D01*
X318000D01*
X306000D02*
X306500D01*
X305552Y309176D02*
X306500Y308228D01*
X255361Y164750D02*
X262250D01*
X254500D02*
X255361D01*
X457500Y151250D02*
X459500D01*
X451000D02*
X451750Y150500D01*
X456750D02*
X457500Y151250D01*
X451750Y150500D02*
X456750D01*
X459500Y150250D02*
Y151250D01*
X450000D02*
X451000D01*
X475509Y130412D02*
Y134241D01*
X366000Y239000D02*
Y240000D01*
X367000Y241000D01*
X368000D01*
X357000Y224750D02*
Y230000D01*
X366000Y239000D01*
D17*
X458500Y157750D02*
D03*
Y151250D02*
D03*
X450000Y157750D02*
D03*
Y151250D02*
D03*
X254500Y171250D02*
D03*
Y164750D02*
D03*
X263500Y171250D02*
D03*
Y164750D02*
D03*
X361500D02*
D03*
Y171250D02*
D03*
X370500Y164750D02*
D03*
Y171250D02*
D03*
X357000Y218250D02*
D03*
Y224750D02*
D03*
X318000Y303250D02*
D03*
Y296750D02*
D03*
X306000Y303250D02*
D03*
Y296750D02*
D03*
X346000Y296500D02*
D03*
Y303000D02*
D03*
X358000Y296500D02*
D03*
Y303000D02*
D03*
X382000Y296500D02*
D03*
Y303000D02*
D03*
X370000Y296500D02*
D03*
Y303000D02*
D03*
D32*
X121130Y118032D02*
D03*
X123689D02*
D03*
X126248D02*
D03*
X128807D02*
D03*
X131366D02*
D03*
D33*
X113847Y117539D02*
D03*
X138650D02*
D03*
D34*
X110500Y107500D02*
D03*
X141996D02*
D03*
D35*
X121524D02*
D03*
X130972D02*
D03*
D36*
X402000Y177300D02*
D03*
Y172700D02*
D03*
X311000Y206300D02*
D03*
Y201700D02*
D03*
X305500Y206300D02*
D03*
Y201700D02*
D03*
X300000Y206300D02*
D03*
Y201700D02*
D03*
X188000Y165700D02*
D03*
Y170300D02*
D03*
X198500Y165700D02*
D03*
Y170300D02*
D03*
D37*
X395040Y168999D02*
D03*
Y176999D02*
D03*
X386540Y168999D02*
D03*
Y176999D02*
D03*
X283500Y197500D02*
D03*
Y205500D02*
D03*
X292500Y197500D02*
D03*
Y205500D02*
D03*
X367500Y188500D02*
D03*
Y196500D02*
D03*
X368000Y241000D02*
D03*
Y249000D02*
D03*
D38*
X337854Y212000D02*
D03*
X322500D02*
D03*
X337854Y217000D02*
D03*
X322500D02*
D03*
X337854Y222000D02*
D03*
X322500D02*
D03*
X337854Y227000D02*
D03*
X322500D02*
D03*
X337854Y232000D02*
D03*
X322500D02*
D03*
D39*
X275240Y210634D02*
D03*
X267760D02*
D03*
X271500Y202366D02*
D03*
D40*
X454600Y158687D02*
X455537Y157750D01*
X454600Y158687D02*
Y159663D01*
X443787Y160600D02*
X453663D01*
X455537Y157750D02*
X458500D01*
X453663Y160600D02*
X454600Y159663D01*
X440000Y156813D02*
X443787Y160600D01*
X440000Y153500D02*
Y156813D01*
X435500Y146500D02*
X436115Y147115D01*
Y149615D01*
X440000Y153500D01*
X395040Y176999D02*
X401699D01*
X383573Y178966D02*
Y180294D01*
X382922Y180945D02*
X383573Y180294D01*
Y178966D02*
X384856Y177683D01*
X396836D01*
X424500Y157500D02*
X425400Y156600D01*
X428100Y153900D02*
X435500Y146500D01*
X425400Y156302D02*
X427802Y153900D01*
X425400Y156302D02*
Y156600D01*
X427802Y153900D02*
X428100D01*
X424500Y157500D02*
Y173000D01*
X440500Y148500D02*
X448923Y156923D01*
X440500Y141000D02*
Y148500D01*
X401699Y176999D02*
X402000Y177300D01*
X365750Y176000D02*
X367500Y177750D01*
Y188500D01*
X345230Y222000D02*
X345399Y222170D01*
X337854Y222000D02*
X345230D01*
X337854Y217000D02*
Y222000D01*
Y227000D01*
Y232000D01*
X292500Y205500D02*
X293300Y206300D01*
X290300Y206700D02*
Y207700D01*
X287298Y210702D02*
X290300Y207700D01*
X291500Y205500D02*
X292500D01*
X290300Y206700D02*
X291500Y205500D01*
X287298Y210702D02*
Y211226D01*
X286706Y210634D02*
X287298Y211226D01*
X286648Y210575D02*
X286706Y210634D01*
X285700Y206700D02*
Y207700D01*
X286648Y208648D01*
Y210575D01*
X283500Y205500D02*
X284500D01*
X285700Y206700D01*
X275240Y210634D02*
X286706D01*
X147002Y106259D02*
X147846Y105415D01*
X141996Y107500D02*
X143237Y106259D01*
X147002D01*
X105406Y106745D02*
X106161Y107500D01*
X110500D01*
Y107697D01*
X113847Y111043D02*
Y117539D01*
X110500Y107697D02*
X113847Y111043D01*
X139646Y117539D02*
X141996Y115190D01*
X138650Y117539D02*
X139646D01*
X141996Y107500D02*
Y115190D01*
X130972Y107500D02*
X141996D01*
X110500D02*
X121524D01*
X486500Y292000D02*
X496500D01*
X258750Y176000D02*
X262423Y172327D01*
X247000Y176000D02*
X258750D01*
X262608Y171250D02*
X263500D01*
X262423Y171435D02*
X262608Y171250D01*
X262423Y171435D02*
Y172327D01*
X247500Y153000D02*
Y164263D01*
X253424Y170186D01*
X253608Y171250D02*
X254500D01*
X253424Y171065D02*
X253608Y171250D01*
X253424Y170186D02*
Y171065D01*
X449108Y157750D02*
X450000D01*
X448923Y157565D02*
X449108Y157750D01*
X448923Y156923D02*
Y157565D01*
D41*
X481000Y271500D02*
Y276000D01*
X472500Y284500D02*
X475500D01*
X393502D02*
X472500D01*
X481238Y271738D02*
Y271817D01*
X481000Y271500D02*
X481238Y271738D01*
X472500Y284500D02*
X481000Y276000D01*
X482047Y291047D02*
X485547D01*
X475500Y284500D02*
X482047Y291047D01*
X485547D02*
X486500Y292000D01*
X381850Y272848D02*
X393502Y284500D01*
X306500Y303250D02*
Y308228D01*
D42*
X277552Y197500D02*
X283500D01*
D43*
X528811Y271811D02*
D03*
X259811Y246311D02*
D03*
X543311Y170311D02*
D03*
X449311Y297811D02*
D03*
X227311Y151311D02*
D03*
X108811Y303811D02*
D03*
D44*
X108500Y270500D02*
D03*
X486500Y292000D02*
D03*
X424500Y173000D02*
D03*
X108500Y180500D02*
D03*
X306000Y181500D02*
D03*
D45*
X118500Y270500D02*
D03*
X138500D02*
D03*
X148500D02*
D03*
X158500D02*
D03*
X168500D02*
D03*
X178500D02*
D03*
X188500D02*
D03*
X198500D02*
D03*
X128500D02*
D03*
X397000Y246500D02*
D03*
Y192000D02*
D03*
X506500Y292000D02*
D03*
X496500D02*
D03*
X516500D02*
D03*
X526500D02*
D03*
X536500D02*
D03*
X546500D02*
D03*
X562500Y283500D02*
D03*
Y273500D02*
D03*
Y263500D02*
D03*
X484500Y173000D02*
D03*
X474500D02*
D03*
X464500D02*
D03*
X454500D02*
D03*
X434500D02*
D03*
X444500D02*
D03*
X128500Y180500D02*
D03*
X198500D02*
D03*
X188500D02*
D03*
X178500D02*
D03*
X168500D02*
D03*
X158500D02*
D03*
X148500D02*
D03*
X138500D02*
D03*
X118500D02*
D03*
X296000Y181500D02*
D03*
D46*
X387000Y246500D02*
D03*
Y192000D02*
D03*
D47*
X562500Y293500D02*
D03*
D48*
X452220Y337000D02*
D03*
X466000D02*
D03*
X424661D02*
D03*
X438441D02*
D03*
X397102D02*
D03*
X410882D02*
D03*
X369543D02*
D03*
X383323D02*
D03*
X341984D02*
D03*
X355764D02*
D03*
X314425D02*
D03*
X328205D02*
D03*
X286866D02*
D03*
X300646D02*
D03*
X259307D02*
D03*
X273087D02*
D03*
X203221D02*
D03*
X217000D02*
D03*
X157720D02*
D03*
X171500D02*
D03*
X114220D02*
D03*
X128000D02*
D03*
X489472Y115500D02*
D03*
X475693D02*
D03*
X544591D02*
D03*
X530811D02*
D03*
X517031D02*
D03*
X503252D02*
D03*
X434354D02*
D03*
X420575D02*
D03*
X406795D02*
D03*
X393016D02*
D03*
X379236D02*
D03*
X365457D02*
D03*
X324118D02*
D03*
X310339D02*
D03*
X296559D02*
D03*
X282780D02*
D03*
X269000D02*
D03*
X255221D02*
D03*
X214559D02*
D03*
X200780D02*
D03*
X187000D02*
D03*
X173221D02*
D03*
D49*
X290247Y127253D02*
D03*
X279827Y136848D02*
D03*
X255361Y138648D02*
D03*
X293000Y138000D02*
D03*
X272000Y124000D02*
D03*
X379000Y130800D02*
D03*
X437439Y130589D02*
D03*
X430500Y136000D02*
D03*
X467665Y148166D02*
D03*
X434396Y155185D02*
D03*
X361500Y140000D02*
D03*
X435500Y146500D02*
D03*
X440500Y141000D02*
D03*
X398148Y154352D02*
D03*
X382922Y180945D02*
D03*
X339000Y201500D02*
D03*
X345399Y222170D02*
D03*
X287298Y211226D02*
D03*
X147846Y105415D02*
D03*
X105406Y106745D02*
D03*
X481238Y271817D02*
D03*
X405800Y269912D02*
D03*
X381850Y272848D02*
D03*
X247000Y176000D02*
D03*
X247500Y153000D02*
D03*
X277350Y197298D02*
D03*
X350500Y160500D02*
D03*
X324500Y176500D02*
D03*
X347500Y176000D02*
D03*
X173194Y132085D02*
D03*
X210377Y146547D02*
D03*
X402000Y277500D02*
D03*
X392000Y230000D02*
D03*
X385500Y229000D02*
D03*
X106000Y140000D02*
D03*
X108500Y163000D02*
D03*
X106000Y150826D02*
D03*
X263500Y210500D02*
D03*
X253183Y202183D02*
D03*
X223953Y289555D02*
D03*
X257500Y283500D02*
D03*
X186774Y307770D02*
D03*
X119000Y125000D02*
D03*
X293000Y172000D02*
D03*
Y160500D02*
D03*
X305552Y309176D02*
D03*
X475509Y130412D02*
D03*
X314000Y273000D02*
D03*
X319662Y278200D02*
D03*
X325500Y261000D02*
D03*
X271000Y137000D02*
D03*
X489098Y126862D02*
D03*
X392500Y302459D02*
D03*
X393609Y293405D02*
D03*
X301809Y278022D02*
D03*
X296000Y272500D02*
D03*
X309525Y266592D02*
D03*
X159290Y200011D02*
D03*
X156392Y190940D02*
D03*
X282000Y260500D02*
D03*
X288493Y266381D02*
D03*
X409500Y193500D02*
D03*
X290312Y318530D02*
D03*
X138486Y281314D02*
D03*
M02*
