G04*
G04 #@! TF.GenerationSoftware,Altium Limited,Altium Designer,21.0.9 (235)*
G04*
G04 Layer_Color=16711935*
%FSLAX25Y25*%
%MOIN*%
G70*
G04*
G04 #@! TF.SameCoordinates,A275BC4C-76E1-47BA-AFC5-B931A1449514*
G04*
G04*
G04 #@! TF.FilePolarity,Negative*
G04*
G01*
G75*
%ADD26C,0.09953*%
%ADD27R,0.06706X0.06706*%
%ADD28C,0.06706*%
%ADD29R,0.05524X0.05524*%
%ADD30R,0.06706X0.06706*%
%ADD31C,0.08674*%
D26*
X528811Y271811D02*
D03*
X259811Y246311D02*
D03*
X543311Y170311D02*
D03*
X449311Y297811D02*
D03*
X227311Y151311D02*
D03*
X108811Y303811D02*
D03*
D27*
X108500Y270500D02*
D03*
X486500Y292000D02*
D03*
X424500Y173000D02*
D03*
X108500Y180500D02*
D03*
X306000Y181500D02*
D03*
D28*
X118500Y270500D02*
D03*
X138500D02*
D03*
X148500D02*
D03*
X158500D02*
D03*
X168500D02*
D03*
X178500D02*
D03*
X188500D02*
D03*
X198500D02*
D03*
X128500D02*
D03*
X397000Y246500D02*
D03*
Y192000D02*
D03*
X506500Y292000D02*
D03*
X496500D02*
D03*
X516500D02*
D03*
X526500D02*
D03*
X536500D02*
D03*
X546500D02*
D03*
X562500Y283500D02*
D03*
Y273500D02*
D03*
Y263500D02*
D03*
X484500Y173000D02*
D03*
X474500D02*
D03*
X464500D02*
D03*
X454500D02*
D03*
X434500D02*
D03*
X444500D02*
D03*
X128500Y180500D02*
D03*
X198500D02*
D03*
X188500D02*
D03*
X178500D02*
D03*
X168500D02*
D03*
X158500D02*
D03*
X148500D02*
D03*
X138500D02*
D03*
X118500D02*
D03*
X296000Y181500D02*
D03*
D29*
X387000Y246500D02*
D03*
Y192000D02*
D03*
D30*
X562500Y293500D02*
D03*
D31*
X452220Y337000D02*
D03*
X466000D02*
D03*
X424661D02*
D03*
X438441D02*
D03*
X397102D02*
D03*
X410882D02*
D03*
X369543D02*
D03*
X383323D02*
D03*
X341984D02*
D03*
X355764D02*
D03*
X314425D02*
D03*
X328205D02*
D03*
X286866D02*
D03*
X300646D02*
D03*
X259307D02*
D03*
X273087D02*
D03*
X203221D02*
D03*
X217000D02*
D03*
X157720D02*
D03*
X171500D02*
D03*
X114220D02*
D03*
X128000D02*
D03*
X489472Y115500D02*
D03*
X475693D02*
D03*
X544591D02*
D03*
X530811D02*
D03*
X517031D02*
D03*
X503252D02*
D03*
X434354D02*
D03*
X420575D02*
D03*
X406795D02*
D03*
X393016D02*
D03*
X379236D02*
D03*
X365457D02*
D03*
X324118D02*
D03*
X310339D02*
D03*
X296559D02*
D03*
X282780D02*
D03*
X269000D02*
D03*
X255221D02*
D03*
X214559D02*
D03*
X200780D02*
D03*
X187000D02*
D03*
X173221D02*
D03*
M02*
