M48
;Layer_Color=9474304
;FILE_FORMAT=2:5
INCH,LZ
;TYPE=PLATED
T1F00S00C0.02500
T2F00S00C0.02953
T3F00S00C0.03543
T4F00S00C0.03937
T5F00S00C0.05118
;TYPE=NON_PLATED
T6F00S00C0.07953
%
T01
X0105406Y0106745
X0119Y0125
X0106Y014
Y0150826
X0147846Y0105415
X0173194Y0132085
X0210377Y0146547
X02475Y0153
X0255361Y0138648
X0271Y0137
X0279827Y0136848
X0293Y0138
X0290247Y0127253
X0272Y0124
X03615Y014
X0379Y01308
X0398148Y0154352
X0434396Y0155185
X04355Y01465
X04405Y0141
X0437439Y0130589
X04305Y0136
X0467665Y0148166
X0475509Y0130412
X0489098Y0126862
X0481238Y0271817
X04058Y0269912
X0402Y02775
X0393609Y0293405
X03925Y0302459
X038185Y0272848
X03855Y0229
X0392Y023
X04095Y01935
X0382922Y0180945
X03475Y0176
X03505Y01605
X03245Y01765
X0339Y02015
X0345399Y022217
X03255Y0261
X0319662Y02782
X0314Y0273
X0309525Y0266592
X0301809Y0278022
X0296Y02725
X0288493Y0266381
X0282Y02605
X02575Y02835
X0223953Y0289555
X0186774Y030777
X0305552Y0309176
X0287298Y0211226
X027735Y0197298
X02635Y02105
X0253183Y0202183
X0247Y0176
X0293Y0172
Y01605
X0156392Y019094
X015929Y0200011
X01085Y0163
X0138486Y0281314
X0290312Y031853
T02
X0387Y0192
Y02465
T03
X04745Y0173
X04845
X04865Y0292
X04965
X05065
X05165
X05265
X05365
X05465
X05625Y02935
Y02835
Y02735
Y02635
X04645Y0173
X04545
X04445
X04345
X04245
X0306Y01815
X0296
X01985Y01805
X01885
X01785
X01685
X01585
X01585Y02705
X01685
X01785
X01885
X01985
X01485
X01385
X01285
X01185
X01085
X01085Y01805
X01185
X01285
X01385
X01485
T04
X0397Y0192
Y02465
T05
X0173221Y01155
X0187
X020078
X0214559
X0255221
X0269
X028278
X0296559
X0310339
X0324118
X0365457
X0379236
X0393016
X0406795
X0420575
X0434354
X0475693
X0489472
X0503252
X0517031
X0530811
X0544591
X0128Y0337
X011422
X015772
X01715
X0203221
X0217
X0259307
X0273087
X0286866
X0300646
X0314425
X0328205
X0341984
X0355764
X0369543
X0383323
X0397102
X0410882
X0424661
X0438441
X045222
X0466
T06
X0227311Y0151311
X0543311Y0170311
X0528811Y0271811
X0449311Y0297811
X0259811Y0246311
X0108811Y0303811
M30
