G04*
G04 #@! TF.GenerationSoftware,Altium Limited,Altium Designer,21.0.9 (235)*
G04*
G04 Layer_Color=8388736*
%FSLAX25Y25*%
%MOIN*%
G70*
G04*
G04 #@! TF.SameCoordinates,A275BC4C-76E1-47BA-AFC5-B931A1449514*
G04*
G04*
G04 #@! TF.FilePolarity,Negative*
G04*
G01*
G75*
%ADD17O,0.04000X0.02000*%
%ADD18R,0.02375X0.06115*%
%ADD19R,0.09461X0.07099*%
%ADD20R,0.07887X0.08280*%
%ADD21R,0.08280X0.08280*%
%ADD22R,0.02965X0.02965*%
%ADD23R,0.06800X0.04800*%
%ADD24R,0.10249X0.03792*%
%ADD25R,0.03359X0.05721*%
%ADD26C,0.09953*%
%ADD27R,0.06706X0.06706*%
%ADD28C,0.06706*%
%ADD29R,0.05524X0.05524*%
%ADD30R,0.06706X0.06706*%
%ADD31C,0.08674*%
G36*
X321052Y304897D02*
X321104Y304887D01*
X321153Y304870D01*
X321200Y304847D01*
X321244Y304818D01*
X321283Y304783D01*
X321318Y304744D01*
X321347Y304700D01*
X321370Y304653D01*
X321387Y304604D01*
X321397Y304552D01*
X321401Y304500D01*
Y302000D01*
X321397Y301948D01*
X321387Y301896D01*
X321370Y301847D01*
X321347Y301800D01*
X321318Y301756D01*
X321283Y301717D01*
X320966Y301399D01*
X321000Y301401D01*
X321052Y301397D01*
X321104Y301387D01*
X321153Y301370D01*
X321200Y301347D01*
X321244Y301318D01*
X321283Y301283D01*
X321318Y301244D01*
X321347Y301200D01*
X321370Y301153D01*
X321387Y301104D01*
X321397Y301052D01*
X321401Y301000D01*
Y295500D01*
X321397Y295448D01*
X321387Y295396D01*
X321370Y295347D01*
X321347Y295300D01*
X321318Y295256D01*
X321283Y295217D01*
X321244Y295182D01*
X321200Y295153D01*
X321153Y295130D01*
X321104Y295113D01*
X321052Y295103D01*
X321000Y295099D01*
X315000D01*
X314948Y295103D01*
X314896Y295113D01*
X314847Y295130D01*
X314800Y295153D01*
X314756Y295182D01*
X314717Y295217D01*
X314682Y295256D01*
X314653Y295300D01*
X314630Y295347D01*
X314613Y295396D01*
X314603Y295448D01*
X314599Y295500D01*
Y301000D01*
X314603Y301052D01*
X314613Y301104D01*
X314630Y301153D01*
X314653Y301200D01*
X314682Y301244D01*
X314717Y301283D01*
X314756Y301318D01*
X314800Y301347D01*
X314847Y301370D01*
X314896Y301387D01*
X314948Y301397D01*
X315000Y301401D01*
X315035Y301399D01*
X314717Y301717D01*
X314682Y301756D01*
X314653Y301800D01*
X314630Y301847D01*
X314613Y301896D01*
X314603Y301948D01*
X314599Y302000D01*
Y304500D01*
X314603Y304552D01*
X314613Y304604D01*
X314630Y304653D01*
X314653Y304700D01*
X314682Y304744D01*
X314717Y304783D01*
X314756Y304818D01*
X314800Y304847D01*
X314847Y304870D01*
X314896Y304887D01*
X314948Y304897D01*
X315000Y304901D01*
X321000D01*
X321052Y304897D01*
D02*
G37*
G36*
X309052D02*
X309104Y304887D01*
X309153Y304870D01*
X309200Y304847D01*
X309244Y304818D01*
X309283Y304783D01*
X309318Y304744D01*
X309347Y304700D01*
X309370Y304653D01*
X309387Y304604D01*
X309397Y304552D01*
X309401Y304500D01*
Y302000D01*
X309397Y301948D01*
X309387Y301896D01*
X309370Y301847D01*
X309347Y301800D01*
X309318Y301756D01*
X309283Y301717D01*
X308965Y301399D01*
X309000Y301401D01*
X309052Y301397D01*
X309104Y301387D01*
X309153Y301370D01*
X309200Y301347D01*
X309244Y301318D01*
X309283Y301283D01*
X309318Y301244D01*
X309347Y301200D01*
X309370Y301153D01*
X309387Y301104D01*
X309397Y301052D01*
X309401Y301000D01*
Y295500D01*
X309397Y295448D01*
X309387Y295396D01*
X309370Y295347D01*
X309347Y295300D01*
X309318Y295256D01*
X309283Y295217D01*
X309244Y295182D01*
X309200Y295153D01*
X309153Y295130D01*
X309104Y295113D01*
X309052Y295103D01*
X309000Y295099D01*
X303000D01*
X302948Y295103D01*
X302896Y295113D01*
X302847Y295130D01*
X302800Y295153D01*
X302756Y295182D01*
X302717Y295217D01*
X302682Y295256D01*
X302653Y295300D01*
X302630Y295347D01*
X302613Y295396D01*
X302603Y295448D01*
X302599Y295500D01*
Y301000D01*
X302603Y301052D01*
X302613Y301104D01*
X302630Y301153D01*
X302653Y301200D01*
X302682Y301244D01*
X302717Y301283D01*
X302756Y301318D01*
X302800Y301347D01*
X302847Y301370D01*
X302896Y301387D01*
X302948Y301397D01*
X303000Y301401D01*
X303034Y301399D01*
X302717Y301717D01*
X302682Y301756D01*
X302653Y301800D01*
X302630Y301847D01*
X302613Y301896D01*
X302603Y301948D01*
X302599Y302000D01*
Y304500D01*
X302603Y304552D01*
X302613Y304604D01*
X302630Y304653D01*
X302653Y304700D01*
X302682Y304744D01*
X302717Y304783D01*
X302756Y304818D01*
X302800Y304847D01*
X302847Y304870D01*
X302896Y304887D01*
X302948Y304897D01*
X303000Y304901D01*
X309000D01*
X309052Y304897D01*
D02*
G37*
G36*
X385052Y304647D02*
X385104Y304637D01*
X385153Y304620D01*
X385200Y304597D01*
X385244Y304568D01*
X385283Y304533D01*
X385318Y304494D01*
X385347Y304450D01*
X385370Y304403D01*
X385387Y304354D01*
X385397Y304302D01*
X385401Y304250D01*
Y298750D01*
X385397Y298698D01*
X385387Y298646D01*
X385370Y298597D01*
X385347Y298550D01*
X385318Y298506D01*
X385283Y298467D01*
X385244Y298432D01*
X385200Y298403D01*
X385153Y298380D01*
X385104Y298363D01*
X385052Y298353D01*
X385000Y298349D01*
X384965Y298351D01*
X385283Y298033D01*
X385318Y297994D01*
X385347Y297950D01*
X385370Y297903D01*
X385387Y297854D01*
X385397Y297802D01*
X385401Y297750D01*
Y295250D01*
X385397Y295198D01*
X385387Y295146D01*
X385370Y295097D01*
X385347Y295050D01*
X385318Y295006D01*
X385283Y294967D01*
X385244Y294932D01*
X385200Y294903D01*
X385153Y294880D01*
X385104Y294863D01*
X385052Y294853D01*
X385000Y294849D01*
X379000D01*
X378948Y294853D01*
X378896Y294863D01*
X378847Y294880D01*
X378800Y294903D01*
X378756Y294932D01*
X378717Y294967D01*
X378682Y295006D01*
X378653Y295050D01*
X378630Y295097D01*
X378613Y295146D01*
X378603Y295198D01*
X378599Y295250D01*
Y297750D01*
X378603Y297802D01*
X378613Y297854D01*
X378630Y297903D01*
X378653Y297950D01*
X378682Y297994D01*
X378717Y298033D01*
X379034Y298351D01*
X379000Y298349D01*
X378948Y298353D01*
X378896Y298363D01*
X378847Y298380D01*
X378800Y298403D01*
X378756Y298432D01*
X378717Y298467D01*
X378682Y298506D01*
X378653Y298550D01*
X378630Y298597D01*
X378613Y298646D01*
X378603Y298698D01*
X378599Y298750D01*
Y304250D01*
X378603Y304302D01*
X378613Y304354D01*
X378630Y304403D01*
X378653Y304450D01*
X378682Y304494D01*
X378717Y304533D01*
X378756Y304568D01*
X378800Y304597D01*
X378847Y304620D01*
X378896Y304637D01*
X378948Y304647D01*
X379000Y304651D01*
X385000D01*
X385052Y304647D01*
D02*
G37*
G36*
X373052D02*
X373104Y304637D01*
X373153Y304620D01*
X373200Y304597D01*
X373244Y304568D01*
X373283Y304533D01*
X373318Y304494D01*
X373347Y304450D01*
X373370Y304403D01*
X373387Y304354D01*
X373397Y304302D01*
X373401Y304250D01*
Y298750D01*
X373397Y298698D01*
X373387Y298646D01*
X373370Y298597D01*
X373347Y298550D01*
X373318Y298506D01*
X373283Y298467D01*
X373244Y298432D01*
X373200Y298403D01*
X373153Y298380D01*
X373104Y298363D01*
X373052Y298353D01*
X373000Y298349D01*
X372966Y298351D01*
X373283Y298033D01*
X373318Y297994D01*
X373347Y297950D01*
X373370Y297903D01*
X373387Y297854D01*
X373397Y297802D01*
X373401Y297750D01*
Y295250D01*
X373397Y295198D01*
X373387Y295146D01*
X373370Y295097D01*
X373347Y295050D01*
X373318Y295006D01*
X373283Y294967D01*
X373244Y294932D01*
X373200Y294903D01*
X373153Y294880D01*
X373104Y294863D01*
X373052Y294853D01*
X373000Y294849D01*
X367000D01*
X366948Y294853D01*
X366896Y294863D01*
X366847Y294880D01*
X366800Y294903D01*
X366756Y294932D01*
X366717Y294967D01*
X366682Y295006D01*
X366653Y295050D01*
X366630Y295097D01*
X366613Y295146D01*
X366603Y295198D01*
X366599Y295250D01*
Y297750D01*
X366603Y297802D01*
X366613Y297854D01*
X366630Y297903D01*
X366653Y297950D01*
X366682Y297994D01*
X366717Y298033D01*
X367035Y298351D01*
X367000Y298349D01*
X366948Y298353D01*
X366896Y298363D01*
X366847Y298380D01*
X366800Y298403D01*
X366756Y298432D01*
X366717Y298467D01*
X366682Y298506D01*
X366653Y298550D01*
X366630Y298597D01*
X366613Y298646D01*
X366603Y298698D01*
X366599Y298750D01*
Y304250D01*
X366603Y304302D01*
X366613Y304354D01*
X366630Y304403D01*
X366653Y304450D01*
X366682Y304494D01*
X366717Y304533D01*
X366756Y304568D01*
X366800Y304597D01*
X366847Y304620D01*
X366896Y304637D01*
X366948Y304647D01*
X367000Y304651D01*
X373000D01*
X373052Y304647D01*
D02*
G37*
G36*
X361052D02*
X361104Y304637D01*
X361153Y304620D01*
X361200Y304597D01*
X361244Y304568D01*
X361283Y304533D01*
X361318Y304494D01*
X361347Y304450D01*
X361370Y304403D01*
X361387Y304354D01*
X361397Y304302D01*
X361401Y304250D01*
Y298750D01*
X361397Y298698D01*
X361387Y298646D01*
X361370Y298597D01*
X361347Y298550D01*
X361318Y298506D01*
X361283Y298467D01*
X361244Y298432D01*
X361200Y298403D01*
X361153Y298380D01*
X361104Y298363D01*
X361052Y298353D01*
X361000Y298349D01*
X360965Y298351D01*
X361283Y298033D01*
X361318Y297994D01*
X361347Y297950D01*
X361370Y297903D01*
X361387Y297854D01*
X361397Y297802D01*
X361401Y297750D01*
Y295250D01*
X361397Y295198D01*
X361387Y295146D01*
X361370Y295097D01*
X361347Y295050D01*
X361318Y295006D01*
X361283Y294967D01*
X361244Y294932D01*
X361200Y294903D01*
X361153Y294880D01*
X361104Y294863D01*
X361052Y294853D01*
X361000Y294849D01*
X355000D01*
X354948Y294853D01*
X354896Y294863D01*
X354847Y294880D01*
X354800Y294903D01*
X354756Y294932D01*
X354717Y294967D01*
X354682Y295006D01*
X354653Y295050D01*
X354630Y295097D01*
X354613Y295146D01*
X354603Y295198D01*
X354599Y295250D01*
Y297750D01*
X354603Y297802D01*
X354613Y297854D01*
X354630Y297903D01*
X354653Y297950D01*
X354682Y297994D01*
X354717Y298033D01*
X355034Y298351D01*
X355000Y298349D01*
X354948Y298353D01*
X354896Y298363D01*
X354847Y298380D01*
X354800Y298403D01*
X354756Y298432D01*
X354717Y298467D01*
X354682Y298506D01*
X354653Y298550D01*
X354630Y298597D01*
X354613Y298646D01*
X354603Y298698D01*
X354599Y298750D01*
Y304250D01*
X354603Y304302D01*
X354613Y304354D01*
X354630Y304403D01*
X354653Y304450D01*
X354682Y304494D01*
X354717Y304533D01*
X354756Y304568D01*
X354800Y304597D01*
X354847Y304620D01*
X354896Y304637D01*
X354948Y304647D01*
X355000Y304651D01*
X361000D01*
X361052Y304647D01*
D02*
G37*
G36*
X349052D02*
X349104Y304637D01*
X349153Y304620D01*
X349200Y304597D01*
X349244Y304568D01*
X349283Y304533D01*
X349318Y304494D01*
X349347Y304450D01*
X349370Y304403D01*
X349387Y304354D01*
X349397Y304302D01*
X349401Y304250D01*
Y298750D01*
X349397Y298698D01*
X349387Y298646D01*
X349370Y298597D01*
X349347Y298550D01*
X349318Y298506D01*
X349283Y298467D01*
X349244Y298432D01*
X349200Y298403D01*
X349153Y298380D01*
X349104Y298363D01*
X349052Y298353D01*
X349000Y298349D01*
X348966Y298351D01*
X349283Y298033D01*
X349318Y297994D01*
X349347Y297950D01*
X349370Y297903D01*
X349387Y297854D01*
X349397Y297802D01*
X349401Y297750D01*
Y295250D01*
X349397Y295198D01*
X349387Y295146D01*
X349370Y295097D01*
X349347Y295050D01*
X349318Y295006D01*
X349283Y294967D01*
X349244Y294932D01*
X349200Y294903D01*
X349153Y294880D01*
X349104Y294863D01*
X349052Y294853D01*
X349000Y294849D01*
X343000D01*
X342948Y294853D01*
X342896Y294863D01*
X342847Y294880D01*
X342800Y294903D01*
X342756Y294932D01*
X342717Y294967D01*
X342682Y295006D01*
X342653Y295050D01*
X342630Y295097D01*
X342613Y295146D01*
X342603Y295198D01*
X342599Y295250D01*
Y297750D01*
X342603Y297802D01*
X342613Y297854D01*
X342630Y297903D01*
X342653Y297950D01*
X342682Y297994D01*
X342717Y298033D01*
X343035Y298351D01*
X343000Y298349D01*
X342948Y298353D01*
X342896Y298363D01*
X342847Y298380D01*
X342800Y298403D01*
X342756Y298432D01*
X342717Y298467D01*
X342682Y298506D01*
X342653Y298550D01*
X342630Y298597D01*
X342613Y298646D01*
X342603Y298698D01*
X342599Y298750D01*
Y304250D01*
X342603Y304302D01*
X342613Y304354D01*
X342630Y304403D01*
X342653Y304450D01*
X342682Y304494D01*
X342717Y304533D01*
X342756Y304568D01*
X342800Y304597D01*
X342847Y304620D01*
X342896Y304637D01*
X342948Y304647D01*
X343000Y304651D01*
X349000D01*
X349052Y304647D01*
D02*
G37*
G36*
X360052Y226397D02*
X360104Y226387D01*
X360153Y226370D01*
X360200Y226347D01*
X360244Y226318D01*
X360283Y226283D01*
X360318Y226244D01*
X360347Y226200D01*
X360370Y226153D01*
X360387Y226104D01*
X360397Y226052D01*
X360401Y226000D01*
Y220500D01*
X360397Y220448D01*
X360387Y220396D01*
X360370Y220347D01*
X360347Y220300D01*
X360318Y220256D01*
X360283Y220217D01*
X360244Y220182D01*
X360200Y220153D01*
X360153Y220130D01*
X360104Y220113D01*
X360052Y220103D01*
X360000Y220099D01*
X359965Y220101D01*
X360283Y219783D01*
X360318Y219744D01*
X360347Y219700D01*
X360370Y219653D01*
X360387Y219604D01*
X360397Y219552D01*
X360401Y219500D01*
Y217000D01*
X360397Y216948D01*
X360387Y216896D01*
X360370Y216847D01*
X360347Y216800D01*
X360318Y216756D01*
X360283Y216717D01*
X360244Y216682D01*
X360200Y216653D01*
X360153Y216630D01*
X360104Y216613D01*
X360052Y216603D01*
X360000Y216599D01*
X354000D01*
X353948Y216603D01*
X353896Y216613D01*
X353847Y216630D01*
X353800Y216653D01*
X353756Y216682D01*
X353717Y216717D01*
X353682Y216756D01*
X353653Y216800D01*
X353630Y216847D01*
X353613Y216896D01*
X353603Y216948D01*
X353599Y217000D01*
Y219500D01*
X353603Y219552D01*
X353613Y219604D01*
X353630Y219653D01*
X353653Y219700D01*
X353682Y219744D01*
X353717Y219783D01*
X354034Y220101D01*
X354000Y220099D01*
X353948Y220103D01*
X353896Y220113D01*
X353847Y220130D01*
X353800Y220153D01*
X353756Y220182D01*
X353717Y220217D01*
X353682Y220256D01*
X353653Y220300D01*
X353630Y220347D01*
X353613Y220396D01*
X353603Y220448D01*
X353599Y220500D01*
Y226000D01*
X353603Y226052D01*
X353613Y226104D01*
X353630Y226153D01*
X353653Y226200D01*
X353682Y226244D01*
X353717Y226283D01*
X353756Y226318D01*
X353800Y226347D01*
X353847Y226370D01*
X353896Y226387D01*
X353948Y226397D01*
X354000Y226401D01*
X360000D01*
X360052Y226397D01*
D02*
G37*
G36*
X373552Y172897D02*
X373604Y172887D01*
X373653Y172870D01*
X373700Y172847D01*
X373744Y172818D01*
X373783Y172783D01*
X373818Y172744D01*
X373847Y172700D01*
X373870Y172653D01*
X373887Y172604D01*
X373897Y172552D01*
X373901Y172500D01*
Y167000D01*
X373897Y166948D01*
X373887Y166896D01*
X373870Y166847D01*
X373847Y166800D01*
X373818Y166756D01*
X373783Y166717D01*
X373744Y166682D01*
X373700Y166653D01*
X373653Y166630D01*
X373604Y166613D01*
X373552Y166603D01*
X373500Y166599D01*
X373465Y166601D01*
X373783Y166283D01*
X373818Y166244D01*
X373847Y166200D01*
X373870Y166153D01*
X373887Y166104D01*
X373897Y166052D01*
X373901Y166000D01*
Y163500D01*
X373897Y163448D01*
X373887Y163396D01*
X373870Y163347D01*
X373847Y163300D01*
X373818Y163256D01*
X373783Y163217D01*
X373744Y163182D01*
X373700Y163153D01*
X373653Y163130D01*
X373604Y163113D01*
X373552Y163103D01*
X373500Y163099D01*
X367500D01*
X367448Y163103D01*
X367396Y163113D01*
X367347Y163130D01*
X367300Y163153D01*
X367256Y163182D01*
X367217Y163217D01*
X367182Y163256D01*
X367153Y163300D01*
X367130Y163347D01*
X367113Y163396D01*
X367103Y163448D01*
X367099Y163500D01*
Y166000D01*
X367103Y166052D01*
X367113Y166104D01*
X367130Y166153D01*
X367153Y166200D01*
X367182Y166244D01*
X367217Y166283D01*
X367534Y166601D01*
X367500Y166599D01*
X367448Y166603D01*
X367396Y166613D01*
X367347Y166630D01*
X367300Y166653D01*
X367256Y166682D01*
X367217Y166717D01*
X367182Y166756D01*
X367153Y166800D01*
X367130Y166847D01*
X367113Y166896D01*
X367103Y166948D01*
X367099Y167000D01*
Y172500D01*
X367103Y172552D01*
X367113Y172604D01*
X367130Y172653D01*
X367153Y172700D01*
X367182Y172744D01*
X367217Y172783D01*
X367256Y172818D01*
X367300Y172847D01*
X367347Y172870D01*
X367396Y172887D01*
X367448Y172897D01*
X367500Y172901D01*
X373500D01*
X373552Y172897D01*
D02*
G37*
G36*
X364552D02*
X364604Y172887D01*
X364653Y172870D01*
X364700Y172847D01*
X364744Y172818D01*
X364783Y172783D01*
X364818Y172744D01*
X364847Y172700D01*
X364870Y172653D01*
X364887Y172604D01*
X364897Y172552D01*
X364901Y172500D01*
Y167000D01*
X364897Y166948D01*
X364887Y166896D01*
X364870Y166847D01*
X364847Y166800D01*
X364818Y166756D01*
X364783Y166717D01*
X364744Y166682D01*
X364700Y166653D01*
X364653Y166630D01*
X364604Y166613D01*
X364552Y166603D01*
X364500Y166599D01*
X364465Y166601D01*
X364783Y166283D01*
X364818Y166244D01*
X364847Y166200D01*
X364870Y166153D01*
X364887Y166104D01*
X364897Y166052D01*
X364901Y166000D01*
Y163500D01*
X364897Y163448D01*
X364887Y163396D01*
X364870Y163347D01*
X364847Y163300D01*
X364818Y163256D01*
X364783Y163217D01*
X364744Y163182D01*
X364700Y163153D01*
X364653Y163130D01*
X364604Y163113D01*
X364552Y163103D01*
X364500Y163099D01*
X358500D01*
X358448Y163103D01*
X358396Y163113D01*
X358347Y163130D01*
X358300Y163153D01*
X358256Y163182D01*
X358217Y163217D01*
X358182Y163256D01*
X358153Y163300D01*
X358130Y163347D01*
X358113Y163396D01*
X358103Y163448D01*
X358099Y163500D01*
Y166000D01*
X358103Y166052D01*
X358113Y166104D01*
X358130Y166153D01*
X358153Y166200D01*
X358182Y166244D01*
X358217Y166283D01*
X358535Y166601D01*
X358500Y166599D01*
X358448Y166603D01*
X358396Y166613D01*
X358347Y166630D01*
X358300Y166653D01*
X358256Y166682D01*
X358217Y166717D01*
X358182Y166756D01*
X358153Y166800D01*
X358130Y166847D01*
X358113Y166896D01*
X358103Y166948D01*
X358099Y167000D01*
Y172500D01*
X358103Y172552D01*
X358113Y172604D01*
X358130Y172653D01*
X358153Y172700D01*
X358182Y172744D01*
X358217Y172783D01*
X358256Y172818D01*
X358300Y172847D01*
X358347Y172870D01*
X358396Y172887D01*
X358448Y172897D01*
X358500Y172901D01*
X364500D01*
X364552Y172897D01*
D02*
G37*
G36*
X266552D02*
X266604Y172887D01*
X266653Y172870D01*
X266700Y172847D01*
X266744Y172818D01*
X266783Y172783D01*
X266818Y172744D01*
X266847Y172700D01*
X266870Y172653D01*
X266887Y172604D01*
X266897Y172552D01*
X266901Y172500D01*
Y167000D01*
X266897Y166948D01*
X266887Y166896D01*
X266870Y166847D01*
X266847Y166800D01*
X266818Y166756D01*
X266783Y166717D01*
X266744Y166682D01*
X266700Y166653D01*
X266653Y166630D01*
X266604Y166613D01*
X266552Y166603D01*
X266500Y166599D01*
X266465Y166601D01*
X266783Y166283D01*
X266818Y166244D01*
X266847Y166200D01*
X266870Y166153D01*
X266887Y166104D01*
X266897Y166052D01*
X266901Y166000D01*
Y163500D01*
X266897Y163448D01*
X266887Y163396D01*
X266870Y163347D01*
X266847Y163300D01*
X266818Y163256D01*
X266783Y163217D01*
X266744Y163182D01*
X266700Y163153D01*
X266653Y163130D01*
X266604Y163113D01*
X266552Y163103D01*
X266500Y163099D01*
X260500D01*
X260448Y163103D01*
X260396Y163113D01*
X260347Y163130D01*
X260300Y163153D01*
X260256Y163182D01*
X260217Y163217D01*
X260182Y163256D01*
X260153Y163300D01*
X260130Y163347D01*
X260113Y163396D01*
X260103Y163448D01*
X260099Y163500D01*
Y166000D01*
X260103Y166052D01*
X260113Y166104D01*
X260130Y166153D01*
X260153Y166200D01*
X260182Y166244D01*
X260217Y166283D01*
X260535Y166601D01*
X260500Y166599D01*
X260448Y166603D01*
X260396Y166613D01*
X260347Y166630D01*
X260300Y166653D01*
X260256Y166682D01*
X260217Y166717D01*
X260182Y166756D01*
X260153Y166800D01*
X260130Y166847D01*
X260113Y166896D01*
X260103Y166948D01*
X260099Y167000D01*
Y172500D01*
X260103Y172552D01*
X260113Y172604D01*
X260130Y172653D01*
X260153Y172700D01*
X260182Y172744D01*
X260217Y172783D01*
X260256Y172818D01*
X260300Y172847D01*
X260347Y172870D01*
X260396Y172887D01*
X260448Y172897D01*
X260500Y172901D01*
X266500D01*
X266552Y172897D01*
D02*
G37*
G36*
X257552D02*
X257604Y172887D01*
X257653Y172870D01*
X257700Y172847D01*
X257744Y172818D01*
X257783Y172783D01*
X257818Y172744D01*
X257847Y172700D01*
X257870Y172653D01*
X257887Y172604D01*
X257897Y172552D01*
X257901Y172500D01*
Y167000D01*
X257897Y166948D01*
X257887Y166896D01*
X257870Y166847D01*
X257847Y166800D01*
X257818Y166756D01*
X257783Y166717D01*
X257744Y166682D01*
X257700Y166653D01*
X257653Y166630D01*
X257604Y166613D01*
X257552Y166603D01*
X257500Y166599D01*
X257466Y166601D01*
X257783Y166283D01*
X257818Y166244D01*
X257847Y166200D01*
X257870Y166153D01*
X257887Y166104D01*
X257897Y166052D01*
X257901Y166000D01*
Y163500D01*
X257897Y163448D01*
X257887Y163396D01*
X257870Y163347D01*
X257847Y163300D01*
X257818Y163256D01*
X257783Y163217D01*
X257744Y163182D01*
X257700Y163153D01*
X257653Y163130D01*
X257604Y163113D01*
X257552Y163103D01*
X257500Y163099D01*
X251500D01*
X251448Y163103D01*
X251396Y163113D01*
X251347Y163130D01*
X251300Y163153D01*
X251256Y163182D01*
X251217Y163217D01*
X251182Y163256D01*
X251153Y163300D01*
X251130Y163347D01*
X251113Y163396D01*
X251103Y163448D01*
X251099Y163500D01*
Y166000D01*
X251103Y166052D01*
X251113Y166104D01*
X251130Y166153D01*
X251153Y166200D01*
X251182Y166244D01*
X251217Y166283D01*
X251535Y166601D01*
X251500Y166599D01*
X251448Y166603D01*
X251396Y166613D01*
X251347Y166630D01*
X251300Y166653D01*
X251256Y166682D01*
X251217Y166717D01*
X251182Y166756D01*
X251153Y166800D01*
X251130Y166847D01*
X251113Y166896D01*
X251103Y166948D01*
X251099Y167000D01*
Y172500D01*
X251103Y172552D01*
X251113Y172604D01*
X251130Y172653D01*
X251153Y172700D01*
X251182Y172744D01*
X251217Y172783D01*
X251256Y172818D01*
X251300Y172847D01*
X251347Y172870D01*
X251396Y172887D01*
X251448Y172897D01*
X251500Y172901D01*
X257500D01*
X257552Y172897D01*
D02*
G37*
G36*
X461552Y159397D02*
X461604Y159387D01*
X461653Y159370D01*
X461700Y159347D01*
X461744Y159318D01*
X461783Y159283D01*
X461818Y159244D01*
X461847Y159200D01*
X461870Y159153D01*
X461887Y159104D01*
X461897Y159052D01*
X461901Y159000D01*
Y153500D01*
X461897Y153448D01*
X461887Y153396D01*
X461870Y153347D01*
X461847Y153300D01*
X461818Y153256D01*
X461783Y153217D01*
X461744Y153182D01*
X461700Y153153D01*
X461653Y153130D01*
X461604Y153113D01*
X461552Y153103D01*
X461500Y153099D01*
X461466Y153101D01*
X461783Y152783D01*
X461818Y152744D01*
X461847Y152700D01*
X461870Y152653D01*
X461887Y152604D01*
X461897Y152552D01*
X461901Y152500D01*
Y150000D01*
X461897Y149948D01*
X461887Y149896D01*
X461870Y149847D01*
X461847Y149800D01*
X461818Y149756D01*
X461783Y149717D01*
X461744Y149682D01*
X461700Y149653D01*
X461653Y149630D01*
X461604Y149613D01*
X461552Y149603D01*
X461500Y149599D01*
X455500D01*
X455448Y149603D01*
X455396Y149613D01*
X455347Y149630D01*
X455300Y149653D01*
X455256Y149682D01*
X455217Y149717D01*
X455182Y149756D01*
X455153Y149800D01*
X455130Y149847D01*
X455113Y149896D01*
X455103Y149948D01*
X455099Y150000D01*
Y152500D01*
X455103Y152552D01*
X455113Y152604D01*
X455130Y152653D01*
X455153Y152700D01*
X455182Y152744D01*
X455217Y152783D01*
X455535Y153101D01*
X455500Y153099D01*
X455448Y153103D01*
X455396Y153113D01*
X455347Y153130D01*
X455300Y153153D01*
X455256Y153182D01*
X455217Y153217D01*
X455182Y153256D01*
X455153Y153300D01*
X455130Y153347D01*
X455113Y153396D01*
X455103Y153448D01*
X455099Y153500D01*
Y159000D01*
X455103Y159052D01*
X455113Y159104D01*
X455130Y159153D01*
X455153Y159200D01*
X455182Y159244D01*
X455217Y159283D01*
X455256Y159318D01*
X455300Y159347D01*
X455347Y159370D01*
X455396Y159387D01*
X455448Y159397D01*
X455500Y159401D01*
X461500D01*
X461552Y159397D01*
D02*
G37*
G36*
X453052D02*
X453104Y159387D01*
X453153Y159370D01*
X453200Y159347D01*
X453244Y159318D01*
X453283Y159283D01*
X453318Y159244D01*
X453347Y159200D01*
X453370Y159153D01*
X453387Y159104D01*
X453397Y159052D01*
X453401Y159000D01*
Y153500D01*
X453397Y153448D01*
X453387Y153396D01*
X453370Y153347D01*
X453347Y153300D01*
X453318Y153256D01*
X453283Y153217D01*
X453244Y153182D01*
X453200Y153153D01*
X453153Y153130D01*
X453104Y153113D01*
X453052Y153103D01*
X453000Y153099D01*
X452965Y153101D01*
X453283Y152783D01*
X453318Y152744D01*
X453347Y152700D01*
X453370Y152653D01*
X453387Y152604D01*
X453397Y152552D01*
X453401Y152500D01*
Y150000D01*
X453397Y149948D01*
X453387Y149896D01*
X453370Y149847D01*
X453347Y149800D01*
X453318Y149756D01*
X453283Y149717D01*
X453244Y149682D01*
X453200Y149653D01*
X453153Y149630D01*
X453104Y149613D01*
X453052Y149603D01*
X453000Y149599D01*
X447000D01*
X446948Y149603D01*
X446896Y149613D01*
X446847Y149630D01*
X446800Y149653D01*
X446756Y149682D01*
X446717Y149717D01*
X446682Y149756D01*
X446653Y149800D01*
X446630Y149847D01*
X446613Y149896D01*
X446603Y149948D01*
X446599Y150000D01*
Y152500D01*
X446603Y152552D01*
X446613Y152604D01*
X446630Y152653D01*
X446653Y152700D01*
X446682Y152744D01*
X446717Y152783D01*
X447035Y153101D01*
X447000Y153099D01*
X446948Y153103D01*
X446896Y153113D01*
X446847Y153130D01*
X446800Y153153D01*
X446756Y153182D01*
X446717Y153217D01*
X446682Y153256D01*
X446653Y153300D01*
X446630Y153347D01*
X446613Y153396D01*
X446603Y153448D01*
X446599Y153500D01*
Y159000D01*
X446603Y159052D01*
X446613Y159104D01*
X446630Y159153D01*
X446653Y159200D01*
X446682Y159244D01*
X446717Y159283D01*
X446756Y159318D01*
X446800Y159347D01*
X446847Y159370D01*
X446896Y159387D01*
X446948Y159397D01*
X447000Y159401D01*
X453000D01*
X453052Y159397D01*
D02*
G37*
%LPC*%
G36*
X318035Y298601D02*
X318000Y298599D01*
X317966Y298601D01*
X318000Y298567D01*
X318035Y298601D01*
D02*
G37*
G36*
X306034D02*
X306000Y298599D01*
X305965Y298601D01*
X306000Y298567D01*
X306034Y298601D01*
D02*
G37*
G36*
X382000Y301183D02*
X381965Y301149D01*
X382000Y301151D01*
X382034Y301149D01*
X382000Y301183D01*
D02*
G37*
G36*
X370000D02*
X369966Y301149D01*
X370000Y301151D01*
X370035Y301149D01*
X370000Y301183D01*
D02*
G37*
G36*
X358000D02*
X357965Y301149D01*
X358000Y301151D01*
X358034Y301149D01*
X358000Y301183D01*
D02*
G37*
G36*
X346000D02*
X345966Y301149D01*
X346000Y301151D01*
X346035Y301149D01*
X346000Y301183D01*
D02*
G37*
G36*
X357000Y222933D02*
X356965Y222899D01*
X357000Y222901D01*
X357034Y222899D01*
X357000Y222933D01*
D02*
G37*
G36*
X370500Y169433D02*
X370465Y169399D01*
X370500Y169401D01*
X370534Y169399D01*
X370500Y169433D01*
D02*
G37*
G36*
X361500D02*
X361466Y169399D01*
X361500Y169401D01*
X361535Y169399D01*
X361500Y169433D01*
D02*
G37*
G36*
X263500D02*
X263465Y169399D01*
X263500Y169401D01*
X263534Y169399D01*
X263500Y169433D01*
D02*
G37*
G36*
X254500D02*
X254466Y169399D01*
X254500Y169401D01*
X254535Y169399D01*
X254500Y169433D01*
D02*
G37*
G36*
X458500Y155933D02*
X458465Y155899D01*
X458500Y155901D01*
X458534Y155899D01*
X458500Y155933D01*
D02*
G37*
G36*
X450000D02*
X449965Y155899D01*
X450000Y155901D01*
X450035Y155899D01*
X450000Y155933D01*
D02*
G37*
%LPD*%
D17*
X458500Y157750D02*
D03*
Y151250D02*
D03*
X450000Y157750D02*
D03*
Y151250D02*
D03*
X254500Y171250D02*
D03*
Y164750D02*
D03*
X263500Y171250D02*
D03*
Y164750D02*
D03*
X361500D02*
D03*
Y171250D02*
D03*
X370500Y164750D02*
D03*
Y171250D02*
D03*
X357000Y218250D02*
D03*
Y224750D02*
D03*
X318000Y303250D02*
D03*
Y296750D02*
D03*
X306000Y303250D02*
D03*
Y296750D02*
D03*
X346000Y296500D02*
D03*
Y303000D02*
D03*
X358000Y296500D02*
D03*
Y303000D02*
D03*
X382000Y296500D02*
D03*
Y303000D02*
D03*
X370000Y296500D02*
D03*
Y303000D02*
D03*
D18*
X121130Y118032D02*
D03*
X123689D02*
D03*
X126248D02*
D03*
X128807D02*
D03*
X131366D02*
D03*
D19*
X113847Y117539D02*
D03*
X138650D02*
D03*
D20*
X110500Y107500D02*
D03*
X141996D02*
D03*
D21*
X121524D02*
D03*
X130972D02*
D03*
D22*
X402000Y177300D02*
D03*
Y172700D02*
D03*
X311000Y206300D02*
D03*
Y201700D02*
D03*
X305500Y206300D02*
D03*
Y201700D02*
D03*
X300000Y206300D02*
D03*
Y201700D02*
D03*
X188000Y165700D02*
D03*
Y170300D02*
D03*
X198500Y165700D02*
D03*
Y170300D02*
D03*
D23*
X395040Y168999D02*
D03*
Y176999D02*
D03*
X386540Y168999D02*
D03*
Y176999D02*
D03*
X283500Y197500D02*
D03*
Y205500D02*
D03*
X292500Y197500D02*
D03*
Y205500D02*
D03*
X367500Y188500D02*
D03*
Y196500D02*
D03*
X368000Y241000D02*
D03*
Y249000D02*
D03*
D24*
X337854Y212000D02*
D03*
X322500D02*
D03*
X337854Y217000D02*
D03*
X322500D02*
D03*
X337854Y222000D02*
D03*
X322500D02*
D03*
X337854Y227000D02*
D03*
X322500D02*
D03*
X337854Y232000D02*
D03*
X322500D02*
D03*
D25*
X275240Y210634D02*
D03*
X267760D02*
D03*
X271500Y202366D02*
D03*
D26*
X528811Y271811D02*
D03*
X259811Y246311D02*
D03*
X543311Y170311D02*
D03*
X449311Y297811D02*
D03*
X227311Y151311D02*
D03*
X108811Y303811D02*
D03*
D27*
X108500Y270500D02*
D03*
X486500Y292000D02*
D03*
X424500Y173000D02*
D03*
X108500Y180500D02*
D03*
X306000Y181500D02*
D03*
D28*
X118500Y270500D02*
D03*
X138500D02*
D03*
X148500D02*
D03*
X158500D02*
D03*
X168500D02*
D03*
X178500D02*
D03*
X188500D02*
D03*
X198500D02*
D03*
X128500D02*
D03*
X397000Y246500D02*
D03*
Y192000D02*
D03*
X506500Y292000D02*
D03*
X496500D02*
D03*
X516500D02*
D03*
X526500D02*
D03*
X536500D02*
D03*
X546500D02*
D03*
X562500Y283500D02*
D03*
Y273500D02*
D03*
Y263500D02*
D03*
X484500Y173000D02*
D03*
X474500D02*
D03*
X464500D02*
D03*
X454500D02*
D03*
X434500D02*
D03*
X444500D02*
D03*
X128500Y180500D02*
D03*
X198500D02*
D03*
X188500D02*
D03*
X178500D02*
D03*
X168500D02*
D03*
X158500D02*
D03*
X148500D02*
D03*
X138500D02*
D03*
X118500D02*
D03*
X296000Y181500D02*
D03*
D29*
X387000Y246500D02*
D03*
Y192000D02*
D03*
D30*
X562500Y293500D02*
D03*
D31*
X452220Y337000D02*
D03*
X466000D02*
D03*
X424661D02*
D03*
X438441D02*
D03*
X397102D02*
D03*
X410882D02*
D03*
X369543D02*
D03*
X383323D02*
D03*
X341984D02*
D03*
X355764D02*
D03*
X314425D02*
D03*
X328205D02*
D03*
X286866D02*
D03*
X300646D02*
D03*
X259307D02*
D03*
X273087D02*
D03*
X203221D02*
D03*
X217000D02*
D03*
X157720D02*
D03*
X171500D02*
D03*
X114220D02*
D03*
X128000D02*
D03*
X489472Y115500D02*
D03*
X475693D02*
D03*
X544591D02*
D03*
X530811D02*
D03*
X517031D02*
D03*
X503252D02*
D03*
X434354D02*
D03*
X420575D02*
D03*
X406795D02*
D03*
X393016D02*
D03*
X379236D02*
D03*
X365457D02*
D03*
X324118D02*
D03*
X310339D02*
D03*
X296559D02*
D03*
X282780D02*
D03*
X269000D02*
D03*
X255221D02*
D03*
X214559D02*
D03*
X200780D02*
D03*
X187000D02*
D03*
X173221D02*
D03*
M02*
